<?xml version="1.0" standalone="no"?>
<!DOCTYPE svg PUBLIC "-//W3C//DTD SVG 1.1//EN" "http://www.w3.org/Graphics/SVG/1.1/DTD/svg11.dtd" >
<svg xmlns="http://www.w3.org/2000/svg" xmlns:xlink="http://www.w3.org/1999/xlink" version="1.1">
<metadata>
Created by FontForge 20170731 at Tue Oct 17 15:06:13 2023
 By Aleksey,,,
Copyright (URW), Copyright 2018 by URW Type Foundry GmbH. All rights reserved.
</metadata>
<defs>
<font id="ShellHeavy" horiz-adv-x="1312" >
  <font-face 
    font-family="ShellHeavy"
    font-weight="600"
    font-stretch="normal"
    units-per-em="2048"
    panose-1="0 0 7 0 0 0 0 0 0 0"
    ascent="1638"
    descent="-410"
    x-height="1001"
    cap-height="1544"
    bbox="-778 -580 2851 2472"
    underline-thickness="270"
    underline-position="-511"
    unicode-range="U+0020-FB04"
  />
<missing-glyph horiz-adv-x="579" 
 />
    <glyph glyph-name="fi" unicode="fi" horiz-adv-x="1198" 
d="M424 0h-281v760h-108v241h108v322q0 112 21 180t72 127q59 62 136 96.5t160 34.5q77 0 148 -35v-253q-79 36 -127 36q-35 0 -67 -20t-44 -49q-18 -42 -18 -158v-281h256v-241h-256v-760zM928 1595q70 0 120 -50.5t50 -119.5t-50 -118.5t-118 -49.5q-70 0 -119 49.5
t-49 120.5q0 68 49.5 118t116.5 50zM1069 0h-281v1001h281v-1001z" />
    <glyph glyph-name="fl" unicode="fl" horiz-adv-x="1206" 
d="M424 0h-281v760h-108v241h108v322q0 112 21 179t72 124q59 63 137 98t162 35q67 0 145 -33v-253q-77 34 -127 34q-35 0 -67 -20t-44 -49q-18 -40 -18 -156v-281h256v-241h-256v-760zM1069 0h-281v1733h281v-1733z" />
    <glyph glyph-name=".notdef" horiz-adv-x="579" 
 />
    <glyph glyph-name=".null" horiz-adv-x="0" 
 />
    <glyph glyph-name="nonmarkingreturn" horiz-adv-x="682" 
 />
    <glyph glyph-name="space" unicode=" " horiz-adv-x="579" 
 />
    <glyph glyph-name="exclam" unicode="!" horiz-adv-x="579" 
d="M145 1544h289v-1057h-289v1057zM289 334q76 0 130 -53t54 -127q0 -76 -53.5 -130.5t-128.5 -54.5t-128.5 54.5t-53.5 130.5q0 73 54 126.5t126 53.5z" />
    <glyph glyph-name="quotedbl" unicode="&#x22;" horiz-adv-x="909" 
d="M92 1544h293l-45 -637h-203zM526 1544h291l-45 -637h-205z" />
    <glyph glyph-name="numbersign" unicode="#" horiz-adv-x="1261" 
d="M1235 905h-240l-30 -235h215v-219h-242l-59 -474l-217 29l55 445h-244l-61 -474l-219 29l55 447h-219v217h250l28 235h-223v217h250l55 445l217 -31l-51 -414h244l55 445l217 -31l-53 -414h217v-217zM528 905l-30 -235h245l27 235h-242z" />
    <glyph glyph-name="dollar" unicode="$" 
d="M750 1538q110 -11 193.5 -51t162.5 -121l-152 -195q-113 125 -249 125q-83 0 -139 -46.5t-56 -112.5q0 -79 84 -136q36 -21 166 -73q191 -77 278 -158q119 -110 119 -289t-108 -305t-299 -172v-233h-144v225q-312 12 -497 278l172 179q78 -107 159.5 -155t184.5 -48
q99 0 165 58t66 145q0 73 -45 118.5t-170 98.5q-221 90 -287 147q-64 49 -99.5 126t-35.5 165q0 107 52.5 205t140.5 157q41 29 83.5 44t110.5 24v223h144v-223z" />
    <glyph glyph-name="percent" unicode="%" horiz-adv-x="1794" 
d="M1417 1526l-919 -1592l-123 72l919 1589zM463 1563q169 0 280 -104t111 -261q0 -160 -111.5 -263.5t-283.5 -103.5q-170 0 -279.5 104t-109.5 265q0 155 112 259t281 104zM461 1395q-81 0 -140 -58.5t-59 -138.5q0 -85 59 -144t142 -59q82 0 140.5 59t58.5 142
q0 82 -59 140.5t-142 58.5zM1335 707q166 0 277.5 -104.5t111.5 -260.5q0 -158 -112 -261.5t-281 -103.5q-170 0 -279.5 104t-109.5 265q0 154 112.5 257.5t280.5 103.5zM1333 541q-81 0 -139.5 -58.5t-58.5 -138.5q0 -85 57.5 -144t140.5 -59q82 0 140.5 59t58.5 142
q0 82 -58 140.5t-141 58.5z" />
    <glyph glyph-name="ampersand" unicode="&#x26;" horiz-adv-x="1642" 
d="M1147 537q125 125 190 213l179 -175q-41 -53 -77 -93t-124 -128l311 -354h-373l-151 174q-133 -109 -252 -159t-242 -50q-210 0 -347.5 126t-137.5 317q0 199 162 337q23 21 139 89q52 28 68 38q-87 94 -122.5 167.5t-35.5 156.5q0 167 119 275t305 108q180 0 299 -106.5
t119 -266.5q0 -109 -68.5 -201t-214.5 -176zM750 989q99 64 137.5 113t38.5 108q0 67 -44.5 110.5t-113.5 43.5q-66 0 -109 -42t-43 -105q0 -47 23 -87t111 -141zM643 698q-125 -83 -171 -137t-46 -117q0 -87 68 -150t161 -63q64 0 128.5 30t152.5 101z" />
    <glyph glyph-name="quotesingle" unicode="'" horiz-adv-x="477" 
d="M92 1544h293l-45 -637h-203z" />
    <glyph glyph-name="parenleft" unicode="(" horiz-adv-x="737" 
d="M608 1651q-186 -396 -186 -959q0 -273 50 -530t136 -432l-223 -123q-57 105 -89 191t-58 202q-82 342 -82 700q0 302 59.5 584t169.5 490z" />
    <glyph glyph-name="parenright" unicode=")" horiz-adv-x="737" 
d="M131 -270q188 404 188 958q0 271 -50 527.5t-138 435.5l225 123q55 -105 87.5 -192.5t58.5 -203.5q84 -350 84 -700q0 -299 -60.5 -580t-169.5 -491z" />
    <glyph glyph-name="asterisk" unicode="*" 
d="M549 1733h213l-49 -293l264 137l67 -205l-294 -43l211 -209l-173 -127l-133 267l-135 -267l-174 125l213 207l-293 47l68 205l264 -137z" />
    <glyph glyph-name="plus" unicode="+" 
d="M563 862v426h185v-426h426v-184h-426v-424h-185v424h-424v184h424z" />
    <glyph glyph-name="comma" unicode="," horiz-adv-x="579" 
d="M514 289l-326 -613l-178 21l246 622z" />
    <glyph glyph-name="hyphen" unicode="-" horiz-adv-x="520" 
d="M520 647v-233h-520v233h520z" />
    <glyph glyph-name="period" unicode="." horiz-adv-x="579" 
d="M289 334q76 0 130 -53t54 -127q0 -76 -53.5 -130.5t-128.5 -54.5t-128.5 54.5t-53.5 130.5q0 73 54 126.5t126 53.5z" />
    <glyph glyph-name="slash" unicode="/" horiz-adv-x="1075" 
d="M999 1696l-874 -2089l-193 76l873 2091z" />
    <glyph glyph-name="zero" unicode="0" horiz-adv-x="1376" 
d="M690 1583q126 0 239.5 -61t196.5 -174q160 -226 160 -576q0 -349 -160 -575q-82 -111 -196.5 -173.5t-239.5 -62.5q-129 0 -243.5 61.5t-196.5 174.5q-82 116 -121 257.5t-39 329.5q0 347 160 564q85 113 199 174t241 61zM690 1317q-130 0 -214.5 -152.5t-84.5 -384.5
q0 -246 83.5 -399.5t215.5 -153.5q129 0 212 153t83 392q0 238 -83 391.5t-212 153.5z" />
    <glyph glyph-name="one" unicode="1" horiz-adv-x="886" 
d="M131 1282v262h524v-1544h-301v1282h-223z" />
    <glyph glyph-name="two" unicode="2" horiz-adv-x="1282" 
d="M1159 262v-262h-1122l455 516q211 239 283.5 354.5t72.5 212.5q0 98 -69 166t-169 68q-101 0 -162 -67t-67 -187h-318q15 239 160.5 379.5t378.5 140.5q154 0 278.5 -64t195.5 -178.5t71 -255.5q0 -129 -65.5 -256t-213.5 -282l-270 -285h561z" />
    <glyph glyph-name="three" unicode="3" horiz-adv-x="1282" 
d="M563 926h41q97 0 155 58t58 155q0 89 -58.5 145.5t-150.5 56.5q-181 0 -205 -200h-284q31 217 160.5 329.5t349.5 112.5q212 0 342.5 -118t130.5 -310q0 -117 -40.5 -193t-137.5 -137q55 -21 85.5 -42t57.5 -54q92 -112 92 -280q0 -217 -152.5 -352.5t-398.5 -135.5
q-161 0 -284.5 66.5t-200.5 193.5q-36 59 -51.5 109t-16.5 114h301q13 -103 80.5 -160t173.5 -57q108 0 178 68.5t70 173.5t-67.5 175.5t-169.5 70.5q-12 0 -58 -4v215z" />
    <glyph glyph-name="four" unicode="4" 
d="M1266 535v-236h-183v-299h-280v299h-754v133l764 1139h270v-1036h183zM803 1141l-410 -606h410v606z" />
    <glyph glyph-name="five" unicode="5" horiz-adv-x="1275" 
d="M567 1282l-61 -242q73 11 115 11q225 0 374.5 -153t149.5 -384q0 -244 -168.5 -398.5t-435.5 -154.5q-152 0 -271.5 48.5t-220.5 152.5l98 262q171 -197 388 -197q129 0 219 86t90 209q0 131 -101.5 221.5t-248.5 90.5q-157 0 -297 -101h-17l182 811h713v-262h-508z" />
    <glyph glyph-name="six" unicode="6" 
d="M946 1446l-364 -469q55 23 92 31t88 8q132 0 242 -66.5t173.5 -184t63.5 -259.5q0 -242 -164 -393.5t-424 -151.5q-255 0 -419 149t-164 382q0 227 194 487l469 627zM657 776q-120 0 -203 -84.5t-83 -204.5q0 -122 82.5 -205t203.5 -83q117 0 200 83t83 201
q0 123 -81.5 208t-201.5 85z" />
    <glyph glyph-name="seven" unicode="7" 
d="M106 1282v262h1190l-938 -1587l-243 143l706 1182h-715z" />
    <glyph glyph-name="eight" unicode="8" horiz-adv-x="1265" 
d="M373 807q-223 115 -223 340q0 190 138.5 313t352.5 123q211 0 345 -123t134 -315q0 -116 -55.5 -198t-173.5 -140q278 -110 278 -381q0 -202 -149.5 -333.5t-378.5 -131.5q-236 0 -390.5 130.5t-154.5 330.5q0 83 30.5 159t86.5 132q35 31 68.5 51.5t91.5 42.5zM635 1364
q-88 0 -150.5 -64t-62.5 -153q0 -90 62.5 -153.5t152.5 -63.5q88 0 150.5 63t62.5 152q0 91 -63 155t-152 64zM631 682q-96 0 -165 -70t-69 -168q0 -103 69 -174t169 -71q97 0 165 71t68 172q0 100 -69 170t-168 70z" />
    <glyph glyph-name="nine" unicode="9" 
d="M367 96l362 469q-94 -37 -180 -37q-201 0 -340 147.5t-139 362.5q0 238 165.5 391.5t423.5 153.5q254 0 418 -148.5t164 -379.5q0 -111 -50.5 -239.5t-143.5 -250.5l-467 -631zM655 1346q-117 0 -200.5 -84.5t-83.5 -200.5q0 -123 83 -208t203 -85q119 0 201 84t82 205
q0 123 -82.5 206t-202.5 83z" />
    <glyph glyph-name="colon" unicode=":" horiz-adv-x="579" 
d="M289 1036q77 0 130.5 -52.5t53.5 -127.5q0 -76 -53.5 -129t-128.5 -53t-128.5 53t-53.5 129q0 74 53.5 127t126.5 53zM289 334q76 0 130 -53t54 -127q0 -76 -53.5 -130.5t-128.5 -54.5t-128.5 54.5t-53.5 130.5q0 73 54 126.5t126 53.5z" />
    <glyph glyph-name="semicolon" unicode=";" horiz-adv-x="579" 
d="M360 1034q77 0 131 -52.5t54 -127.5q0 -76 -54 -129t-129 -53t-128.5 53t-53.5 129q0 74 53.5 127t126.5 53zM500 289l-326 -613l-178 21l248 622z" />
    <glyph glyph-name="less" unicode="&#x3c;" horiz-adv-x="1157" 
d="M1079 1114l-686 -342l682 -342l4 -295l-1003 512v254l1003 508v-295z" />
    <glyph glyph-name="equal" unicode="=" 
d="M1174 1038v-184h-1035v184h1035zM1174 688v-186h-1035v186h1035z" />
    <glyph glyph-name="greater" unicode="&#x3e;" horiz-adv-x="1157" 
d="M76 432l686 340l-684 342l-2 295l1003 -512v-252l-1003 -510v297z" />
    <glyph glyph-name="question" unicode="?" horiz-adv-x="1132" 
d="M377 705q0 72 40.5 116t151.5 109q101 62 136.5 105.5t35.5 121.5q0 72 -47 119t-127 47q-73 0 -121.5 -47.5t-48.5 -116.5q0 -16 2 -26h-297q-2 12 -2 28q0 175 131 293.5t338 118.5q201 0 334 -118t133 -304q0 -115 -56 -209.5t-210 -191.5q-65 -40 -86.5 -66.5
t-21.5 -56.5v-140h-285v218zM516 334q76 0 129 -53t53 -127q0 -77 -52.5 -131t-127.5 -54q-76 0 -129 54t-53 131q0 73 54 126.5t126 53.5z" />
    <glyph glyph-name="at" unicode="@" horiz-adv-x="1767" 
d="M1264 651q-7 -68 -7 -106q0 -33 9 -47.5t30 -14.5q52 0 102 55.5t81.5 145.5t31.5 184q0 237 -166 390t-423 153q-132 0 -250 -49.5t-203 -134t-134.5 -203.5t-49.5 -252q0 -173 81 -318t224 -227q144 -84 350 -84q134 0 239 26.5t246 94.5l23 10l68 -168l-19 -10
q-146 -69 -275.5 -100t-279.5 -31q-266 0 -461 109q-184 106 -290.5 292.5t-106.5 403.5q0 169 64.5 319t175.5 257.5t266 170t330 62.5q214 0 389.5 -91t276 -252.5t100.5 -358.5q0 -150 -56 -281t-151 -209t-203 -78q-61 0 -108.5 31.5t-69.5 87.5q-60 -64 -123 -93.5
t-141 -29.5q-166 0 -274.5 124t-108.5 312q0 194 120 323.5t301 129.5q78 0 146.5 -26.5t103.5 -69.5l11 78h192zM887 993q-95 0 -156 -73.5t-61 -188.5q0 -99 49 -163t125 -64q100 0 177 86t77 196q0 90 -59.5 148.5t-151.5 58.5z" />
    <glyph glyph-name="A" unicode="A" horiz-adv-x="1550" 
d="M461 326l-139 -326h-320l670 1577h225l649 -1577h-321l-133 326h-631zM782 1124l-225 -555h440z" />
    <glyph glyph-name="B" unicode="B" horiz-adv-x="1318" 
d="M178 1544h381q258 0 379 -92q63 -51 100 -135.5t37 -179.5q0 -129 -57 -222q-32 -43 -111 -92q80 -18 123 -38t78 -58q53 -53 83 -130t30 -163q0 -91 -36 -174t-102 -141q-131 -119 -385 -119h-520v1544zM565 901q234 0 234 201q0 98 -58.5 148t-171.5 50h-90v-399h86z
M608 244q153 0 227 52.5t74 160.5q0 115 -90 170q-40 26 -87 35.5t-140 9.5h-113v-428h129z" />
    <glyph glyph-name="C" unicode="C" horiz-adv-x="1392" 
d="M1292 1128q-94 93 -183 134t-196 41q-140 0 -255.5 -70.5t-181.5 -194t-66 -272.5q0 -226 146 -375t366 -149q109 0 193.5 38t176.5 130v-355q-103 -49 -191 -69.5t-188 -20.5q-168 0 -318.5 62.5t-259 169t-172 255t-63.5 312.5q0 166 64 317t173 260t259.5 173.5
t316.5 64.5q102 0 189.5 -22.5t189.5 -73.5v-355z" />
    <glyph glyph-name="D" unicode="D" horiz-adv-x="1548" 
d="M178 1544h443q336 0 553 -178q130 -105 202 -262.5t72 -331.5q0 -171 -73.5 -328.5t-205.5 -265.5q-112 -93 -243.5 -135.5t-307.5 -42.5h-440v1544zM559 262q146 0 244 29t170 94q77 69 121.5 173t44.5 214q0 112 -44.5 213.5t-121.5 171.5q-75 67 -171 96t-243 29h-80
v-1020h80z" />
    <glyph glyph-name="E" unicode="E" horiz-adv-x="1144" 
d="M479 1282v-342h533v-262h-533v-416h553v-262h-854v1544h854v-262h-553z" />
    <glyph glyph-name="F" unicode="F" horiz-adv-x="1081" 
d="M479 1282v-342h484v-262h-484v-678h-301v1544h817v-262h-516z" />
    <glyph glyph-name="G" unicode="G" horiz-adv-x="1763" 
d="M1661 825q-2 -170 -19 -269.5t-61 -186.5q-95 -195 -269 -299.5t-403 -104.5q-173 0 -323 60t-257 165.5t-168 254t-61 319.5q0 233 105.5 419t293 291t421.5 105q216 0 384 -92.5t277 -272.5l-264 -141q-137 230 -402 230q-218 0 -361.5 -153.5t-143.5 -385.5
q0 -149 65 -269t180.5 -188.5t257.5 -68.5q166 0 277.5 89.5t128.5 237.5h-363v260h705z" />
    <glyph glyph-name="H" unicode="H" horiz-adv-x="1607" 
d="M1133 946v598h299v-1544h-299v684h-654v-684h-301v1544h301v-598h654z" />
    <glyph glyph-name="I" unicode="I" horiz-adv-x="655" 
d="M479 0h-301v1544h301v-1544z" />
    <glyph glyph-name="J" unicode="J" horiz-adv-x="903" 
d="M725 502q0 -158 -33 -261t-104 -171q-55 -51 -131 -79t-158 -28q-204 0 -362 146l182 219q59 -86 149 -86q99 0 135 92q21 56 21 217v993h301v-1042z" />
    <glyph glyph-name="K" unicode="K" horiz-adv-x="1474" 
d="M1047 1544h378l-653 -713l688 -831h-395l-549 694l-37 -37v-657h-301v1544h301v-653z" />
    <glyph glyph-name="L" unicode="L" horiz-adv-x="983" 
d="M479 262h475v-262h-776v1544h301v-1282z" />
    <glyph glyph-name="M" unicode="M" horiz-adv-x="1968" 
d="M362 1571h207l422 -1008l436 1008h209l256 -1571h-303l-137 950l-424 -970h-84l-409 970l-156 -950h-303z" />
    <glyph glyph-name="N" unicode="N" horiz-adv-x="1802" 
d="M178 1579h209l938 -1075v1040h301v-1575h-207l-940 1075v-1044h-301v1579z" />
    <glyph glyph-name="O" unicode="O" horiz-adv-x="1849" 
d="M928 1579q170 0 322.5 -63t261.5 -170.5t173 -257.5t64 -318t-64.5 -317.5t-175.5 -256t-265.5 -169t-328.5 -62.5q-171 0 -322.5 63t-259.5 171.5t-170.5 260t-62.5 322.5q0 162 65.5 309.5t176 254.5t264 170t322.5 63zM924 1303q-138 0 -256.5 -71t-188 -192
t-69.5 -262q0 -224 150.5 -380t365.5 -156q139 0 257.5 71t187.5 193t69 266q0 109 -40.5 207t-109.5 169t-164.5 113t-201.5 42z" />
    <glyph glyph-name="P" unicode="P" horiz-adv-x="1239" 
d="M479 0h-301v1544h451q151 0 243 -27t164 -92q75 -68 116.5 -165t41.5 -207q0 -99 -33 -189t-92 -155q-132 -138 -395 -138h-195v-571zM602 834q283 0 283 221q0 55 -21.5 102.5t-58.5 75.5q-63 49 -221 49h-105v-448h123z" />
    <glyph glyph-name="Q" unicode="Q" horiz-adv-x="1841" 
d="M1489 -59l-129 141q-100 -61 -200.5 -89t-223.5 -28q-140 0 -268.5 39.5t-230.5 113t-178.5 172t-117.5 222.5t-41 258q0 168 64.5 318t175 257.5t264.5 170.5t326 63q173 0 327 -62.5t264 -170.5t174 -258.5t64 -319.5q0 -158 -51.5 -288.5t-165.5 -262.5l250 -248z
M1329 446q62 69 90.5 147t28.5 177q0 147 -68.5 269.5t-188 193t-263.5 70.5t-263 -70t-187 -193.5t-68 -273.5q0 -224 146 -374t366 -150q71 0 120.5 13.5t100.5 47.5l-299 291l313 27z" />
    <glyph glyph-name="R" unicode="R" horiz-adv-x="1331" 
d="M1305 0h-369l-418 621h-39v-621h-301v1544h447q264 0 393 -108q72 -60 112.5 -153t40.5 -196q0 -104 -37 -193.5t-102 -145.5q-84 -73 -213 -97zM567 834q143 0 218 60t75 175q0 231 -289 231h-92v-466h88z" />
    <glyph glyph-name="S" unicode="S" horiz-adv-x="1230" 
d="M932 1192q-60 67 -118 96t-132 29q-92 0 -154.5 -50t-62.5 -122q0 -62 49 -103t184 -92q130 -47 194 -78.5t116 -74.5q135 -117 135 -324q0 -228 -148.5 -369t-388.5 -141q-169 0 -297.5 71t-232.5 222l194 188q53 -98 137 -152t187 -54q105 0 172.5 61.5t67.5 157.5
q0 93 -84 153q-53 34 -215 95q-209 75 -294 168t-85 247q0 194 136 321.5t345 127.5q259 0 453 -170z" />
    <glyph glyph-name="T" unicode="T" horiz-adv-x="1026" 
d="M360 0v1282h-344v262h994v-262h-348v-1282h-302z" />
    <glyph glyph-name="U" unicode="U" horiz-adv-x="1595" 
d="M479 659q0 -120 9.5 -172.5t39.5 -101.5q38 -66 110.5 -104.5t160.5 -38.5q86 0 159 38.5t111 104.5q30 50 39.5 103.5t9.5 170.5v885h301v-944q0 -267 -114 -412q-80 -104 -214 -163.5t-292 -59.5t-293 59.5t-215 163.5q-113 148 -113 412v944h301v-885z" />
    <glyph glyph-name="V" unicode="V" horiz-adv-x="1490" 
d="M743 506l416 1038h326l-666 -1581h-162l-655 1581h330z" />
    <glyph glyph-name="W" unicode="W" horiz-adv-x="2258" 
d="M666 494l378 1062h164l359 -1062l370 1050h318l-582 -1575h-211l-342 1010l-360 -1010h-211l-547 1575h317z" />
    <glyph glyph-name="X" unicode="X" horiz-adv-x="1445" 
d="M102 1544h361l272 -479l285 479h362l-475 -727l525 -817h-353l-348 565l-358 -565h-357l547 817z" />
    <glyph glyph-name="Y" unicode="Y" horiz-adv-x="1349" 
d="M-12 1544h356l332 -536l328 536h360l-543 -835v-709h-301v709z" />
    <glyph glyph-name="Z" unicode="Z" horiz-adv-x="1351" 
d="M1260 262v-262h-1211l754 1282h-637v262h1132l-751 -1282h713z" />
    <glyph glyph-name="bracketleft" unicode="[" horiz-adv-x="802" 
d="M473 -123h207v-248h-479v2104h479v-248h-207v-1608z" />
    <glyph glyph-name="backslash" unicode="\" horiz-adv-x="1075" 
d="M1143 -317l-195 -76l-872 2089l194 78z" />
    <glyph glyph-name="bracketright" unicode="]" horiz-adv-x="802" 
d="M334 1485h-211v248h481v-2104h-481v248h211v1608z" />
    <glyph glyph-name="asciicircum" unicode="^" horiz-adv-x="1157" 
d="M12 772l369 780h397l369 -780h-313l-252 541l-256 -541h-314z" />
    <glyph glyph-name="underscore" unicode="_" horiz-adv-x="1157" 
d="M1157 -106v-271h-1157v271h1157z" />
    <glyph glyph-name="grave" unicode="`" horiz-adv-x="1157" 
d="M420 1620l276 -350l-133 -92l-348 313z" />
    <glyph glyph-name="a" unicode="a" horiz-adv-x="1316" 
d="M1182 1001v-1001h-279v129q-67 -85 -146.5 -123.5t-183.5 -38.5q-212 0 -351.5 153t-139.5 382q0 111 38 210t102.5 169.5t155 111.5t191.5 41q102 0 181 -38.5t153 -123.5v129h279zM653 782q-118 0 -200 -81.5t-82 -198.5q0 -118 82.5 -200.5t199.5 -82.5
q114 0 196.5 82.5t82.5 196.5q0 120 -81 202t-198 82z" />
    <glyph glyph-name="b" unicode="b" horiz-adv-x="1316" 
d="M414 872q75 85 154 123.5t180 38.5q137 0 249 -70t175 -191t63 -269q0 -152 -63.5 -274.5t-176.5 -192.5t-252 -70q-104 0 -182 38.5t-147 123.5v-129h-279v1733h279v-861zM664 782q-116 0 -197.5 -81.5t-81.5 -198.5q0 -118 82.5 -200.5t198.5 -82.5q115 0 197.5 82.5
t82.5 196.5q0 120 -81.5 202t-200.5 82z" />
    <glyph glyph-name="c" unicode="c" horiz-adv-x="964" 
d="M887 696q-61 47 -113 66.5t-115 19.5q-124 0 -206 -80t-82 -202q0 -121 81.5 -201t206.5 -80q64 0 116.5 19.5t111.5 64.5v-272q-123 -64 -258 -64q-152 0 -277.5 69.5t-197.5 191t-72 268.5q0 150 72 273.5t198 194t279 70.5q138 0 256 -59v-279z" />
    <glyph glyph-name="d" unicode="d" horiz-adv-x="1316" 
d="M1182 1733v-1733h-279v129q-67 -85 -146.5 -123.5t-183.5 -38.5q-212 0 -351.5 153t-139.5 382q0 111 38 210t102.5 169.5t155 111.5t191.5 41q102 0 181 -38.5t153 -123.5v861h279zM653 782q-118 0 -200 -81.5t-82 -198.5q0 -118 82.5 -200.5t199.5 -82.5
q114 0 196.5 82.5t82.5 196.5q0 120 -81 202t-198 82z" />
    <glyph glyph-name="e" unicode="e" horiz-adv-x="1198" 
d="M369 457q5 -131 67 -200t176 -69q79 0 134.5 31.5t105.5 102.5l258 -41q-63 -155 -187.5 -234.5t-301.5 -79.5q-244 0 -391.5 145.5t-147.5 387.5q0 243 142.5 388.5t381.5 145.5t376.5 -144t137.5 -396v-37h-751zM852 635q-23 97 -84.5 148t-155.5 51q-93 0 -154 -52
t-81 -147h475z" />
    <glyph glyph-name="f" unicode="f" horiz-adv-x="677" 
d="M424 0h-281v760h-108v241h108v322q0 112 21 180t72 127q59 62 136 96.5t160 34.5q77 0 148 -35v-253q-79 36 -127 36q-37 0 -67 -19.5t-42 -51.5q-20 -44 -20 -156v-281h256v-241h-256v-760z" />
    <glyph glyph-name="g" unicode="g" 
d="M1178 37q0 -155 -24 -239.5t-89 -157.5q-148 -177 -422 -177q-305 0 -461 220q-37 54 -53.5 97t-22.5 101h306q45 -180 235 -180q112 0 189 74q61 67 61 209v151q-76 -90 -155 -129t-185 -39q-206 0 -340.5 146.5t-134.5 373.5q0 237 138.5 392t350.5 155
q105 0 180.5 -37.5t145.5 -124.5v129h281v-964zM653 782q-118 0 -200 -81.5t-82 -198.5q0 -118 82.5 -200.5t199.5 -82.5q114 0 196.5 82.5t82.5 196.5q0 119 -81.5 201.5t-197.5 82.5z" />
    <glyph glyph-name="h" unicode="h" horiz-adv-x="1232" 
d="M414 1733v-861q66 87 139 124.5t176 37.5q90 0 166 -32t125 -91q45 -53 62.5 -115t17.5 -167v-629h-281v549q0 68 -5.5 104.5t-22.5 61.5q-20 37 -64.5 59.5t-99.5 22.5q-108 0 -160.5 -69.5t-52.5 -213.5v-514h-279v1733h279z" />
    <glyph glyph-name="i" unicode="i" horiz-adv-x="538" 
d="M270 1595q69 0 118.5 -50t49.5 -120q0 -69 -49.5 -118.5t-118.5 -49.5q-70 0 -119 49.5t-49 120.5q0 68 49.5 118t118.5 50zM410 0h-281v1001h281v-1001z" />
    <glyph glyph-name="j" unicode="j" horiz-adv-x="538" 
d="M270 1595q69 0 118.5 -50t49.5 -120q0 -69 -49.5 -118.5t-118.5 -49.5q-70 0 -119 49.5t-49 120.5q0 68 49.5 118t118.5 50zM47 -541q-95 0 -141 19v250q45 -25 98 -25q58 0 91.5 34t33.5 126v1138h281v-1091q0 -150 -30 -230.5t-89 -130.5q-107 -90 -244 -90z" />
    <glyph glyph-name="k" unicode="k" horiz-adv-x="1196" 
d="M414 637l374 364h381l-471 -438l508 -563h-387l-375 430l-30 -31v-399h-279v1733h279v-1096z" />
    <glyph glyph-name="l" unicode="l" horiz-adv-x="548" 
d="M414 0h-279v1733h279v-1733z" />
    <glyph glyph-name="m" unicode="m" horiz-adv-x="1828" 
d="M414 1001v-114q68 78 140.5 112.5t164.5 34.5q105 0 180.5 -43.5t132.5 -138.5q115 182 328 182q90 0 165 -38.5t115 -104.5q54 -86 54 -244v-647h-281v549q0 107 -22 160q-40 88 -142 88q-54 0 -97.5 -27t-66.5 -74q-30 -64 -30 -182v-514h-279v532q0 115 -22 166
q-17 44 -58.5 71.5t-91.5 27.5q-47 0 -91.5 -25t-66.5 -65q-32 -60 -32 -193v-514h-279v1001h279z" />
    <glyph glyph-name="n" unicode="n" horiz-adv-x="1232" 
d="M414 1001v-124q65 85 138 121t177 36q90 0 166 -31.5t125 -89.5q44 -49 62 -111.5t18 -164.5v-637h-281v555q0 66 -5.5 101.5t-22.5 60.5q-20 37 -64.5 58.5t-99.5 21.5q-108 0 -160.5 -68.5t-52.5 -210.5v-518h-279v1001h279z" />
    <glyph glyph-name="o" unicode="o" horiz-adv-x="1306" 
d="M657 1034q252 0 411 -148t159 -384q0 -238 -161 -386.5t-419 -148.5q-251 0 -408 151t-157 392q0 229 161.5 376.5t413.5 147.5zM653 782q-116 0 -199 -82t-83 -196q0 -120 82 -202.5t202 -82.5q116 0 199.5 82.5t83.5 198.5q0 118 -83.5 200t-201.5 82z" />
    <glyph glyph-name="p" unicode="p" horiz-adv-x="1316" 
d="M135 -535v1536h279v-129q67 85 146 123.5t183 38.5q212 0 352 -152.5t140 -381.5q0 -148 -64 -270.5t-176 -192.5t-247 -70q-101 0 -180 38.5t-154 123.5v-664h-279zM664 782q-116 0 -197.5 -81.5t-81.5 -198.5q0 -118 82.5 -200.5t198.5 -82.5q115 0 197.5 82.5
t82.5 196.5q0 120 -81.5 202t-200.5 82z" />
    <glyph glyph-name="q" unicode="q" horiz-adv-x="1316" 
d="M903 129q-74 -85 -153 -123.5t-181 -38.5q-135 0 -247 70t-176 192.5t-64 270.5q0 229 139.5 381.5t351.5 152.5q104 0 183.5 -38.5t146.5 -123.5v129h279v-1536h-279v664zM653 782q-118 0 -200 -81.5t-82 -198.5q0 -118 82.5 -200.5t199.5 -82.5q114 0 196.5 82.5
t82.5 196.5q0 120 -81 202t-198 82z" />
    <glyph glyph-name="r" unicode="r" horiz-adv-x="833" 
d="M414 1001v-151q104 184 293 184q61 0 122 -24l-41 -262q-37 21 -63.5 27.5t-69.5 6.5q-116 0 -178 -71q-35 -39 -49 -91.5t-14 -138.5v-481h-279v1001h279z" />
    <glyph glyph-name="s" unicode="s" horiz-adv-x="937" 
d="M682 768q-85 68 -166 68q-47 0 -77.5 -24.5t-30.5 -61.5q0 -34 31.5 -56.5t127.5 -54.5q85 -29 122.5 -46.5t72.5 -43.5q110 -76 110 -223q0 -158 -117.5 -258.5t-303.5 -100.5q-108 0 -207.5 44t-171.5 124l145 170q120 -117 240 -117q54 0 90.5 32t36.5 79
q0 42 -30 65.5t-126 59.5q-94 34 -126 48.5t-66 39.5q-99 66 -99 207t100.5 230t258.5 89q184 0 325 -106z" />
    <glyph glyph-name="t" unicode="t" horiz-adv-x="727" 
d="M676 250v-244q-63 -31 -184 -31q-157 0 -232 66q-84 76 -84 248v471h-117v241h117v345h279v-345h235v-241h-235v-426q0 -72 26 -98.5t86 -26.5q65 0 109 41z" />
    <glyph glyph-name="u" unicode="u" horiz-adv-x="1239" 
d="M823 0v127q-65 -85 -141 -122.5t-180 -37.5q-187 0 -281 105q-86 103 -86 295v634h279v-555q0 -106 30 -159q22 -37 67.5 -58.5t100.5 -21.5q112 0 161.5 71t49.5 232v491h281v-1001h-281z" />
    <glyph glyph-name="v" unicode="v" horiz-adv-x="1161" 
d="M582 434l260 567h315l-516 -1021h-127l-512 1021h315z" />
    <glyph glyph-name="w" unicode="w" horiz-adv-x="1832" 
d="M582 424l272 606h121l272 -616l269 587h313l-518 -1021h-129l-271 608l-266 -608h-129l-514 1021h315z" />
    <glyph glyph-name="x" unicode="x" horiz-adv-x="1300" 
d="M92 1001h354l209 -258l211 258h357l-394 -456l469 -545h-358l-287 350l-291 -350h-360l477 545z" />
    <glyph glyph-name="y" unicode="y" horiz-adv-x="1239" 
d="M2 1001h326l301 -569l284 569h322l-809 -1536h-317l368 689z" />
    <glyph glyph-name="z" unicode="z" horiz-adv-x="1122" 
d="M1055 244v-244h-1024l569 764h-481v244h973l-566 -764h529z" />
    <glyph glyph-name="braceleft" unicode="{" horiz-adv-x="731" 
d="M457 954q-4 -120 -32 -174.5t-108 -101.5q60 -31 97.5 -89.5t42.5 -127.5v-430q0 -119 24 -146q28 -39 119 -39h27v-235l-56 -2l-92 -2q-155 0 -219.5 76t-64.5 258v487q-8 59 -41 97t-88 48v228q69 15 99 58.5t30 129.5v443q0 171 63 245t209 74q45 0 160 -4v-236
q-115 -1 -144 -35t-26 -165v-357z" />
    <glyph glyph-name="bar" unicode="|" horiz-adv-x="1157" 
d="M729 1544v-1931h-301v1931h301z" />
    <glyph glyph-name="braceright" unicode="}" horiz-adv-x="731" 
d="M274 406q5 120 33 175t107 99q-60 32 -98 90t-42 127v432q0 64 -5 96.5t-24.5 53.5t-50 26t-90.5 6v236q27 2 56 2q39 2 92 2q155 0 220 -76t65 -256v-489q8 -59 41 -97t88 -47v-229q-69 -13 -99 -57t-30 -129v-443q0 -172 -63.5 -246.5t-209.5 -74.5q-47 0 -160 4v235
h27q107 0 133 62q10 29 10 141v357z" />
    <glyph glyph-name="asciitilde" unicode="~" horiz-adv-x="1544" 
d="M209 668q11 30 18 39q43 101 71 144t75 79q77 59 186 59q84 0 240 -59q112 -42 138.5 -50t61.5 -8q56 0 90 25.5t74 95.5l172 -98q-53 -109 -88 -159.5t-84 -86.5q-94 -65 -196 -65q-35 0 -81.5 13t-156.5 52q-95 33 -127.5 42t-60.5 9q-63 0 -101 -38q-27 -27 -67 -103z
" />
    <glyph glyph-name="uni00A0" unicode="&#xa0;" horiz-adv-x="579" 
 />
    <glyph glyph-name="exclamdown" unicode="&#xa1;" horiz-adv-x="579" 
d="M289 1204q76 0 130 -53.5t54 -128.5t-53.5 -128.5t-128.5 -53.5t-128.5 54t-53.5 132q0 72 54 125t126 53zM434 729v-1100h-289v1100h289z" />
    <glyph glyph-name="cent" unicode="&#xa2;" 
d="M842 1296q100 -11 184 -47v-286q-61 58 -108.5 80t-112.5 22q-121 0 -200 -83.5t-79 -211.5q0 -123 78.5 -205t196.5 -82q132 0 225 103v-287q-65 -25 -100.5 -34.5t-83.5 -12.5v-195h-146v191q-207 26 -339 172t-132 350q0 146 66 266.5t186 192.5q84 52 219 74v176h146
v-183z" />
    <glyph glyph-name="sterling" unicode="&#xa3;" 
d="M113 758h149q-90 164 -90 311q0 95 41.5 191t112.5 165q160 154 419 154q243 0 377 -140.5t140 -398.5l-304 -30q7 61 7 65q0 103 -69 170.5t-173 67.5q-107 0 -178.5 -74.5t-71.5 -185.5q0 -81 39 -176q7 -20 39 -80l18 -39h344v-211h-276q6 -64 6 -88q0 -84 -27 -158
q40 -14 86 -29t70 -24q123 -39 178 -39q100 0 140 123l204 -45q-50 -170 -133 -246t-221 -76q-51 0 -104 12t-166 48q-182 59 -254 59q-114 0 -156 -104l-219 38q60 151 139.5 222.5t196.5 78.5q26 69 26 123q0 36 -16 105h-274v211z" />
    <glyph glyph-name="currency" unicode="&#xa4;" horiz-adv-x="1544" 
d="M285 555q-103 147 -103 319q0 166 103 318l-242 240l166 165l240 -241q82 54 158 78t165 24q167 0 318 -100l239 237l162 -163l-238 -236q58 -90 81.5 -163t23.5 -161q0 -85 -23 -159.5t-75 -155.5l237 -238l-162 -163l-237 237q-150 -104 -330 -104q-85 0 -159 23.5
t-163 78.5l-237 -235l-162 161zM776 1190q-134 0 -226.5 -92.5t-92.5 -225.5q0 -130 92 -222.5t221 -92.5q131 0 223 92.5t92 224.5q0 129 -91.5 222.5t-217.5 93.5z" />
    <glyph glyph-name="yen" unicode="&#xa5;" 
d="M139 840v211h168l-291 493h330l309 -536l306 536h333l-297 -493h174v-211h-301l-82 -146h383v-211h-383v-483h-276v483h-373v211h373l-80 146h-293z" />
    <glyph glyph-name="brokenbar" unicode="&#xa6;" horiz-adv-x="1157" 
d="M729 1544v-803h-301v803h301zM729 354v-741h-301v741h301z" />
    <glyph glyph-name="section" unicode="&#xa7;" 
d="M815 1335q-8 91 -50 140t-112 49q-65 0 -110 -45t-45 -109q0 -63 47.5 -102.5t197.5 -104.5q131 -55 190 -89.5t105 -82.5q105 -108 105 -268q0 -270 -271 -399q211 -94 211 -312q0 -173 -125.5 -289t-314.5 -116q-121 0 -218.5 48t-154.5 136q-36 54 -50 109t-19 147
h284q2 -94 47 -148.5t123 -54.5q69 0 117.5 49.5t48.5 122.5q0 87 -67 138q-43 30 -181 79q-127 43 -186.5 75t-105.5 81q-54 54 -83.5 130.5t-29.5 162.5q0 146 70.5 247.5t193.5 135.5q-205 90 -205 311q0 169 114.5 272t303.5 103q133 0 239.5 -50.5t155.5 -137.5
q48 -84 54 -228h-279zM657 893q-83 0 -139.5 -58t-56.5 -143q0 -83 57 -141.5t137 -58.5t136.5 58.5t56.5 141.5t-56.5 142t-134.5 59z" />
    <glyph glyph-name="dieresis" unicode="&#xa8;" horiz-adv-x="1157" 
d="M338 1524q67 0 115.5 -49.5t48.5 -118.5t-48 -117.5t-116 -48.5q-69 0 -117.5 49t-48.5 119q0 68 49 117t117 49zM817 1524q69 0 117.5 -49.5t48.5 -118.5t-48.5 -117.5t-117.5 -48.5t-117.5 49t-48.5 119q0 68 49.5 117t116.5 49z" />
    <glyph glyph-name="copyright" unicode="&#xa9;" horiz-adv-x="1759" 
d="M891 1579q158 0 304 -65t252 -173.5t169 -258t63 -312.5q0 -164 -63.5 -313t-170.5 -256.5t-255 -171.5t-311 -64q-162 0 -310.5 64t-256.5 171.5t-172 257t-64 312.5q0 167 63.5 317t172 258t259.5 171t320 63zM889 1432q-135 0 -256.5 -51.5t-208 -140t-137.5 -211
t-51 -259.5q0 -133 51.5 -255.5t137.5 -211t205 -141.5t249 -53t248 52.5t204 141t136.5 211t50.5 256.5q0 178 -85.5 330.5t-230.5 242t-313 89.5zM1182 942q-3 3 -8.5 8t-9.5 9t-7 8q-55 52 -107.5 75t-117.5 23q-123 0 -207 -86t-84 -213q0 -125 84 -207t213 -82
q108 0 190 70q12 9 54 51v-254q-120 -57 -250 -57q-215 0 -363.5 139t-148.5 340q0 133 68 245t187 177t261 65q68 0 122 -13t124 -46v-252z" />
    <glyph glyph-name="ordfeminine" unicode="&#xaa;" horiz-adv-x="784" 
d="M707 1526v-600h-168v78q-77 -99 -197 -99q-124 0 -208.5 92.5t-84.5 229.5q0 134 84 225.5t207 91.5q117 0 199 -98v80h168zM389 1393q-69 0 -118.5 -49.5t-49.5 -118.5t49.5 -119.5t118.5 -50.5q67 0 116.5 50t49.5 118q0 72 -48.5 121t-117.5 49zM705 838v-127h-633
v127h633z" />
    <glyph glyph-name="guillemotleft" unicode="&#xab;" horiz-adv-x="1187" 
d="M618 129l-165 -117l-361 490l361 495l163 -112l-280 -383zM1071 129l-164 -117l-360 490l360 495l162 -112l-281 -383z" />
    <glyph glyph-name="logicalnot" unicode="&#xac;" horiz-adv-x="1157" 
d="M778 346h-702v272h1003v-618h-301v346z" />
    <glyph glyph-name="uni00AD" unicode="&#xad;" horiz-adv-x="520" 
d="M520 647v-233h-520v233h520z" />
    <glyph glyph-name="registered" unicode="&#xae;" horiz-adv-x="1759" 
d="M891 1579q158 0 304 -65t252 -173.5t169 -258t63 -312.5q0 -164 -63.5 -313t-170.5 -256.5t-255 -171.5t-311 -64q-162 0 -310.5 64t-256.5 171.5t-172 257t-64 312.5q0 167 63.5 317t172 258t259.5 171t320 63zM889 1432q-135 0 -256.5 -51.5t-208 -140t-137.5 -211
t-51 -259.5q0 -133 51.5 -255.5t137.5 -211t205 -141.5t249 -53t248 52.5t204 141t136.5 211t50.5 256.5q0 178 -85.5 330.5t-230.5 242t-313 89.5zM1292 307h-272l-258 359v-359h-217v926h293q168 0 261 -74t93 -205q0 -101 -53 -168.5t-154 -95.5zM801 821q168 0 168 121
t-166 121h-41v-242h39z" />
    <glyph glyph-name="macron" unicode="&#xaf;" horiz-adv-x="1157" 
d="M948 1460v-184h-739v184h739z" />
    <glyph glyph-name="degree" unicode="&#xb0;" 
d="M655 1573q130 0 220 -89t90 -218q0 -128 -90.5 -219t-217.5 -91q-130 0 -220.5 90.5t-90.5 221.5q0 126 91.5 215.5t217.5 89.5zM655 1419q-63 0 -108 -45t-45 -108q0 -65 45.5 -110.5t109.5 -45.5q63 0 107.5 45.5t44.5 110.5q0 63 -45 108t-109 45z" />
    <glyph glyph-name="plusminus" unicode="&#xb1;" 
d="M563 862v426h185v-426h426v-184h-426v-408h-185v408h-424v184h424zM1174 139v-186h-1035v186h1035z" />
    <glyph glyph-name="uni00B2" unicode="&#xb2;" horiz-adv-x="894" 
d="M752 786v-168h-686l278 318q111 125 158 201t47 131q0 56 -39.5 96.5t-93.5 40.5t-87.5 -40t-33.5 -103v-17h-207q9 152 97 240t231 88q141 0 235 -86.5t94 -218.5q0 -78 -39 -155t-126 -171l-150 -156h322z" />
    <glyph glyph-name="uni00B3" unicode="&#xb3;" horiz-adv-x="894" 
d="M385 1178q10 -2 31 -2q54 0 86.5 31t32.5 85q0 49 -32.5 81t-82.5 32q-52 0 -80 -28.5t-37 -88.5h-182q38 281 309 281q128 0 207.5 -72.5t79.5 -189.5q0 -125 -96 -197q61 -28 96 -88t35 -137q0 -130 -93.5 -213.5t-236.5 -83.5t-238.5 85t-99.5 218h195q6 -65 43.5 -99
t101.5 -34q60 0 100.5 39.5t40.5 97.5q0 60 -40 99.5t-99 39.5l-41 -2v146z" />
    <glyph glyph-name="acute" unicode="&#xb4;" horiz-adv-x="1157" 
d="M598 1178l-135 92l274 350l207 -129z" />
    <glyph glyph-name="uni00B5" unicode="&#xb5;" horiz-adv-x="1239" 
d="M135 -535v1536h279v-571q0 -109 53 -166t154 -57q202 0 202 227v567h281v-614q0 -189 -107 -293q-133 -127 -368 -127q-126 0 -238 45l23 -547h-279z" />
    <glyph glyph-name="paragraph" unicode="&#xb6;" 
d="M387 782h-27q-154 0 -249 103t-95 270q0 110 43 196t121 132q112 61 301 61h776v-262h-170v-1495h-253v1495h-193v-1495h-254v995z" />
    <glyph glyph-name="periodcentered" unicode="&#xb7;" horiz-adv-x="579" 
d="M289 698q77 0 130.5 -52.5t53.5 -127.5q0 -76 -53.5 -129t-128.5 -53t-128.5 53t-53.5 129q0 74 53.5 127t126.5 53z" />
    <glyph glyph-name="cedilla" unicode="&#xb8;" horiz-adv-x="1157" 
d="M551 -494l-141 82l229 308l180 -99z" />
    <glyph glyph-name="uni00B9" unicode="&#xb9;" horiz-adv-x="894" 
d="M225 1374v170h328v-926h-195v756h-133z" />
    <glyph glyph-name="ordmasculine" unicode="&#xba;" horiz-adv-x="780" 
d="M391 1546q150 0 245 -89.5t95 -229.5q0 -143 -96 -232.5t-248 -89.5t-245 90t-93 236q0 137 96.5 226t245.5 89zM389 1393q-68 0 -118 -49.5t-50 -116.5q0 -69 50 -119.5t120 -50.5q69 0 117.5 50.5t48.5 119.5t-49 117.5t-119 48.5zM717 838v-127h-633v127h633z" />
    <glyph glyph-name="guillemotright" unicode="&#xbb;" horiz-adv-x="1187" 
d="M119 885l162 112l360 -495l-360 -490l-166 117l284 373zM571 885l162 112l361 -495l-361 -490l-164 117l283 373z" />
    <glyph glyph-name="onequarter" unicode="&#xbc;" horiz-adv-x="2103" 
d="M1438 1595l123 -69l-920 -1592l-123 72zM541 618h-195v756h-133v170h328v-926zM1917 350h108v-160h-108v-190h-182v190h-463v84l473 668h172v-592zM1491 338h254v352z" />
    <glyph glyph-name="onehalf" unicode="&#xbd;" horiz-adv-x="2064" 
d="M1561 1526l-920 -1592l-123 72l920 1589zM213 1374v170h328v-926h-195v756h-133zM1937 168v-168h-688l281 317q110 126 156.5 201t46.5 129q0 57 -38.5 97t-92.5 40t-88.5 -39t-34.5 -102v-16h-207q10 152 98.5 239.5t231.5 87.5q139 0 233 -87t94 -216q0 -80 -38.5 -157
t-127.5 -170l-145 -156h319z" />
    <glyph glyph-name="threequarters" unicode="&#xbe;" horiz-adv-x="2097" 
d="M1430 1595l120 -69l-915 -1592l-125 72zM737 885q0 -131 -92 -214t-237 -83q-143 0 -238.5 85t-99.5 218h194q6 -64 43.5 -98.5t102.5 -34.5q61 0 101 39t40 98q0 60 -39.5 99.5t-99.5 39.5l-41 -2v146q10 -2 32 -2q54 0 85.5 31t31.5 85q0 50 -31.5 81.5t-82.5 31.5
q-52 0 -80 -28.5t-37 -88.5h-183q38 281 310 281q128 0 208.5 -72.5t80.5 -189.5q0 -127 -99 -197q62 -28 96.5 -87.5t34.5 -137.5zM1909 350h108v-160h-108v-190h-180v190h-463v84l473 668h170v-592zM1485 338h254v352z" />
    <glyph glyph-name="questiondown" unicode="&#xbf;" horiz-adv-x="1132" 
d="M610 840q-75 0 -128.5 53t-53.5 127q0 76 53 130t127 54q76 0 129.5 -53.5t53.5 -130.5q0 -73 -53.5 -126.5t-127.5 -53.5zM750 469q0 -51 -18 -85t-54 -61.5t-121 -78.5q-69 -42 -102 -70.5t-50.5 -66t-17.5 -91.5q0 -73 46 -119.5t126 -46.5q73 0 121.5 47.5
t48.5 116.5q0 17 -2 27h299q2 -12 2 -29q0 -175 -131.5 -293t-339.5 -118q-201 0 -334 118t-133 304q0 114 56.5 209t209.5 192q74 47 91.5 69.5t17.5 53.5v110h285v-188z" />
    <glyph glyph-name="Agrave" unicode="&#xc0;" horiz-adv-x="1550" 
d="M635 2105l319 -307l-125 -112l-387 262zM461 326l-139 -326h-320l670 1577h225l649 -1577h-321l-133 326h-631zM782 1124l-225 -555h440z" />
    <glyph glyph-name="Aacute" unicode="&#xc1;" horiz-adv-x="1550" 
d="M735 1686l-123 112l318 307l192 -157zM461 326l-139 -326h-320l670 1577h225l649 -1577h-321l-133 326h-631zM782 1124l-225 -555h440z" />
    <glyph glyph-name="Acircumflex" unicode="&#xc2;" horiz-adv-x="1550" 
d="M803 2142l397 -319l-145 -137l-252 206l-252 -206l-139 137zM461 326l-139 -326h-320l670 1577h225l649 -1577h-321l-133 326h-631zM782 1124l-225 -555h440z" />
    <glyph glyph-name="Atilde" unicode="&#xc3;" horiz-adv-x="1550" 
d="M377 1716q22 137 88.5 215t161.5 78q69 0 186 -47q86 -31 103.5 -36t41.5 -5q33 0 53 17t46 69h160q-26 -139 -98 -217t-175 -78q-49 0 -162 45q-114 43 -153 43q-32 0 -53.5 -19t-38.5 -65h-160zM461 326l-139 -326h-320l670 1577h225l649 -1577h-321l-133 326h-631z
M782 1124l-225 -555h440z" />
    <glyph glyph-name="Adieresis" unicode="&#xc4;" horiz-adv-x="1550" 
d="M530 2044q69 0 117.5 -48t48.5 -116q0 -70 -48.5 -119t-117.5 -49t-118.5 49t-49.5 119q0 67 50 115.5t118 48.5zM1018 2044q69 0 118.5 -48.5t49.5 -115.5q0 -70 -49.5 -119t-118.5 -49t-117.5 49t-48.5 119q0 67 49 115.5t117 48.5zM461 326l-139 -326h-320l670 1577
h225l649 -1577h-321l-133 326h-631zM782 1124l-225 -555h440z" />
    <glyph glyph-name="Aring" unicode="&#xc5;" horiz-adv-x="1550" 
d="M772 2132q92 0 156.5 -63.5t64.5 -153.5q0 -92 -63.5 -156.5t-153.5 -64.5q-92 0 -156.5 64.5t-64.5 158.5q0 88 64.5 151.5t152.5 63.5zM776 1999q-36 0 -62 -25t-26 -59q0 -37 25.5 -62.5t62.5 -25.5q34 0 59 26t25 62q0 35 -25 59.5t-59 24.5zM461 326l-139 -326h-320
l670 1577h225l649 -1577h-321l-133 326h-631zM782 1124l-225 -555h440z" />
    <glyph glyph-name="AE" unicode="&#xc6;" horiz-adv-x="2129" 
d="M469 326l-133 -326h-320l664 1544h815l102 -262h-567l139 -344h560l104 -262h-561l172 -414h569l101 -262h-883l-131 326h-631zM795 1094l-226 -525h439z" />
    <glyph glyph-name="Ccedilla" unicode="&#xc7;" horiz-adv-x="1392" 
d="M1292 1128q-164 170 -379 170q-140 0 -255.5 -70t-181.5 -192t-66 -270q0 -223 144.5 -373.5t356.5 -150.5q210 0 381 168v-355q-123 -51 -206 -70.5t-177 -19.5q-221 0 -407 106.5t-294 290t-108 400.5q0 167 64 317.5t172.5 258.5t259.5 171.5t319 63.5
q103 0 191 -20.5t186 -69.5v-355zM752 -512l-146 92l232 324l194 -119z" />
    <glyph glyph-name="Egrave" unicode="&#xc8;" horiz-adv-x="1144" 
d="M479 2105l318 -307l-123 -112l-387 262zM479 1282v-342h533v-262h-533v-416h553v-262h-854v1544h854v-262h-553z" />
    <glyph glyph-name="Eacute" unicode="&#xc9;" horiz-adv-x="1144" 
d="M582 1686l-123 112l317 307l191 -157zM479 1282v-342h533v-262h-533v-416h553v-262h-854v1544h854v-262h-553z" />
    <glyph glyph-name="Ecircumflex" unicode="&#xca;" horiz-adv-x="1144" 
d="M618 2142l398 -319l-144 -137l-254 206l-251 -206l-140 137zM479 1282v-342h533v-262h-533v-416h553v-262h-854v1544h854v-262h-553z" />
    <glyph glyph-name="Edieresis" unicode="&#xcb;" horiz-adv-x="1144" 
d="M360 2044q69 0 118.5 -48.5t49.5 -115.5q0 -70 -49.5 -119t-118.5 -49t-117 49t-48 119q0 67 48.5 115.5t116.5 48.5zM850 2044q69 0 117.5 -48t48.5 -116q0 -70 -48.5 -119t-117.5 -49t-118.5 49t-49.5 119q0 67 50 115.5t118 48.5zM479 1282v-342h533v-262h-533v-416
h553v-262h-854v1544h854v-262h-553z" />
    <glyph glyph-name="Igrave" unicode="&#xcc;" horiz-adv-x="655" 
d="M172 2105l315 -307l-120 -112l-387 262zM477 0h-301v1544h301v-1544z" />
    <glyph glyph-name="Iacute" unicode="&#xcd;" horiz-adv-x="655" 
d="M289 1686l-123 112l317 307l193 -157zM479 0h-301v1544h301v-1544z" />
    <glyph glyph-name="Icircumflex" unicode="&#xce;" horiz-adv-x="655" 
d="M326 2142l366 -319l-143 -137l-223 206l-222 -206l-139 137zM479 0h-301v1544h301v-1544z" />
    <glyph glyph-name="Idieresis" unicode="&#xcf;" horiz-adv-x="655" 
d="M123 2044q69 0 117.5 -48t48.5 -116q0 -70 -48.5 -119t-117.5 -49t-117.5 49t-48.5 119q0 67 49 115.5t117 48.5zM532 2044q69 0 117.5 -48t48.5 -116q0 -70 -48.5 -119t-117.5 -49t-117 49t-48 119q0 67 48.5 115.5t116.5 48.5zM479 0h-301v1544h301v-1544z" />
    <glyph glyph-name="Eth" unicode="&#xd0;" horiz-adv-x="1548" 
d="M178 1544h443q336 0 553 -178q130 -105 202 -263t72 -331q0 -174 -73 -330t-206 -264q-114 -94 -245 -136t-306 -42h-440v655h-129v232h129v657zM807 887v-232h-328v-393h80q146 0 244 29t170 94q77 69 121.5 172t44.5 213q0 113 -44.5 215t-121.5 172q-77 68 -171 96.5
t-243 28.5h-80v-395h328z" />
    <glyph glyph-name="Ntilde" unicode="&#xd1;" horiz-adv-x="1802" 
d="M506 1716q20 136 86.5 214.5t161.5 78.5q69 0 186 -47q86 -31 103.5 -36t41.5 -5q33 0 54 17.5t47 68.5h160q-26 -140 -98.5 -217.5t-176.5 -77.5q-30 0 -62 9t-98 36q-114 43 -153 43q-32 0 -53.5 -19t-40.5 -65h-158zM178 1579h209l938 -1075v1040h301v-1575h-207
l-940 1075v-1044h-301v1579z" />
    <glyph glyph-name="Ograve" unicode="&#xd2;" horiz-adv-x="1849" 
d="M768 2105l317 -307l-122 -112l-388 262zM928 1579q170 0 322.5 -63t261.5 -170.5t173 -257.5t64 -318t-64.5 -317.5t-175.5 -256t-265.5 -169t-328.5 -62.5q-171 0 -322.5 63t-259.5 171.5t-170.5 260t-62.5 322.5q0 162 65.5 309.5t176 254.5t264 170t322.5 63z
M924 1303q-138 0 -256.5 -71t-188 -192t-69.5 -262q0 -224 150.5 -380t365.5 -156q139 0 257.5 71t187.5 193t69 266q0 109 -40.5 207t-109.5 169t-164.5 113t-201.5 42z" />
    <glyph glyph-name="Oacute" unicode="&#xd3;" horiz-adv-x="1849" 
d="M887 1686l-125 112l319 307l191 -157zM928 1579q170 0 322.5 -63t261.5 -170.5t173 -257.5t64 -318t-64.5 -317.5t-175.5 -256t-265.5 -169t-328.5 -62.5q-171 0 -322.5 63t-259.5 171.5t-170.5 260t-62.5 322.5q0 162 65.5 309.5t176 254.5t264 170t322.5 63zM924 1303
q-138 0 -256.5 -71t-188 -192t-69.5 -262q0 -224 150.5 -380t365.5 -156q139 0 257.5 71t187.5 193t69 266q0 109 -40.5 207t-109.5 169t-164.5 113t-201.5 42z" />
    <glyph glyph-name="Ocircumflex" unicode="&#xd4;" horiz-adv-x="1849" 
d="M922 2142l397 -319l-143 -137l-254 206l-252 -206l-140 137zM928 1579q170 0 322.5 -63t261.5 -170.5t173 -257.5t64 -318t-64.5 -317.5t-175.5 -256t-265.5 -169t-328.5 -62.5q-171 0 -322.5 63t-259.5 171.5t-170.5 260t-62.5 322.5q0 162 65.5 309.5t176 254.5
t264 170t322.5 63zM924 1303q-138 0 -256.5 -71t-188 -192t-69.5 -262q0 -224 150.5 -380t365.5 -156q139 0 257.5 71t187.5 193t69 266q0 109 -40.5 207t-109.5 169t-164.5 113t-201.5 42z" />
    <glyph glyph-name="Otilde" unicode="&#xd5;" horiz-adv-x="1849" 
d="M528 1716q19 136 85 214.5t163 78.5q68 0 185 -47q86 -31 103.5 -36t41.5 -5q34 0 54 17t48 69h160q-28 -140 -99.5 -217.5t-174.5 -77.5q-32 0 -64 9t-98 36q-111 43 -152 43q-34 0 -55.5 -19t-40.5 -65h-156zM928 1579q170 0 322.5 -63t261.5 -170.5t173 -257.5
t64 -318t-64.5 -317.5t-175.5 -256t-265.5 -169t-328.5 -62.5q-171 0 -322.5 63t-259.5 171.5t-170.5 260t-62.5 322.5q0 162 65.5 309.5t176 254.5t264 170t322.5 63zM924 1303q-138 0 -256.5 -71t-188 -192t-69.5 -262q0 -224 150.5 -380t365.5 -156q139 0 257.5 71
t187.5 193t69 266q0 109 -40.5 207t-109.5 169t-164.5 113t-201.5 42z" />
    <glyph glyph-name="Odieresis" unicode="&#xd6;" horiz-adv-x="1849" 
d="M680 2044q69 0 118.5 -48.5t49.5 -115.5q0 -70 -49.5 -119t-118.5 -49t-117.5 49t-48.5 119q0 67 49 115.5t117 48.5zM1169 2044q69 0 117.5 -48t48.5 -116q0 -70 -48.5 -119t-117.5 -49q-71 0 -119.5 49t-48.5 119q0 67 50 115.5t118 48.5zM928 1579q170 0 322.5 -63
t261.5 -170.5t173 -257.5t64 -318t-64.5 -317.5t-175.5 -256t-265.5 -169t-328.5 -62.5q-171 0 -322.5 63t-259.5 171.5t-170.5 260t-62.5 322.5q0 162 65.5 309.5t176 254.5t264 170t322.5 63zM924 1303q-138 0 -256.5 -71t-188 -192t-69.5 -262q0 -224 150.5 -380
t365.5 -156q139 0 257.5 71t187.5 193t69 266q0 109 -40.5 207t-109.5 169t-164.5 113t-201.5 42z" />
    <glyph glyph-name="multiply" unicode="&#xd7;" 
d="M657 903l322 322l129 -133l-322 -322l322 -321l-129 -130l-322 322l-321 -322l-133 130l323 321l-323 322l133 133z" />
    <glyph glyph-name="Oslash" unicode="&#xd8;" horiz-adv-x="1863" 
d="M1536 1329q78 -97 102 -137q56 -91 87.5 -202.5t31.5 -219.5q0 -161 -64.5 -310t-172.5 -257.5t-256.5 -173t-309.5 -64.5q-138 0 -260 29.5t-200 81.5l-172 -201l-160 145l155 199q-72 90 -90 121q-121 191 -121 430q0 168 64.5 318t175 257.5t264.5 170.5t326 63
q226 0 422 -113l176 211l172 -143zM1171 1245q-124 58 -239 58q-140 0 -259 -71t-188 -192.5t-69 -263.5q0 -88 27.5 -173t74.5 -146zM678 305q72 -36 127 -49.5t123 -13.5q141 0 260.5 70.5t188.5 192t69 265.5q0 183 -105 320z" />
    <glyph glyph-name="Ugrave" unicode="&#xd9;" horiz-adv-x="1595" 
d="M643 2105l318 -307l-123 -112l-387 262zM479 659q0 -120 9.5 -172.5t39.5 -101.5q38 -66 110.5 -104.5t160.5 -38.5q86 0 159 38.5t111 104.5q30 50 39.5 103.5t9.5 170.5v885h301v-944q0 -267 -114 -412q-80 -104 -214 -163.5t-292 -59.5t-293 59.5t-215 163.5
q-113 148 -113 412v944h301v-885z" />
    <glyph glyph-name="Uacute" unicode="&#xda;" horiz-adv-x="1595" 
d="M760 1686l-123 112l317 307l191 -157zM479 659q0 -120 9.5 -172.5t39.5 -101.5q38 -66 110.5 -104.5t160.5 -38.5q86 0 159 38.5t111 104.5q30 50 39.5 103.5t9.5 170.5v885h301v-944q0 -267 -114 -412q-80 -104 -214 -163.5t-292 -59.5t-293 59.5t-215 163.5
q-113 148 -113 412v944h301v-885z" />
    <glyph glyph-name="Ucircumflex" unicode="&#xdb;" horiz-adv-x="1595" 
d="M797 2142l397 -319l-145 -137l-252 206l-252 -206l-139 137zM479 659q0 -120 9.5 -172.5t39.5 -101.5q38 -66 110.5 -104.5t160.5 -38.5q86 0 159 38.5t111 104.5q30 50 39.5 103.5t9.5 170.5v885h301v-944q0 -267 -114 -412q-80 -104 -214 -163.5t-292 -59.5t-293 59.5
t-215 163.5q-113 148 -113 412v944h301v-885z" />
    <glyph glyph-name="Udieresis" unicode="&#xdc;" horiz-adv-x="1595" 
d="M555 2044q69 0 118.5 -48.5t49.5 -115.5q0 -70 -49.5 -119t-118.5 -49t-117.5 49t-48.5 119q0 67 49 115.5t117 48.5zM1040 2044q70 0 119 -48t49 -116q0 -70 -49 -119t-119 -49q-69 0 -117.5 49t-48.5 119q0 67 49 115.5t117 48.5zM479 659q0 -120 9.5 -172.5
t39.5 -101.5q38 -66 110.5 -104.5t160.5 -38.5q86 0 159 38.5t111 104.5q30 50 39.5 103.5t9.5 170.5v885h301v-944q0 -267 -114 -412q-80 -104 -214 -163.5t-292 -59.5t-293 59.5t-215 163.5q-113 148 -113 412v944h301v-885z" />
    <glyph glyph-name="Yacute" unicode="&#xdd;" horiz-adv-x="1349" 
d="M637 1686l-123 112l317 307l191 -157zM-12 1544h356l332 -536l328 536h360l-543 -835v-709h-301v709z" />
    <glyph glyph-name="Thorn" unicode="&#xde;" horiz-adv-x="1243" 
d="M479 0h-301v1544h301v-219h133q224 0 346 -61q112 -58 175 -171.5t63 -254.5q0 -132 -55 -243t-150 -173q-121 -78 -319 -78h-193v-344zM592 625q82 0 125.5 11t77.5 40q65 56 65 162q0 107 -66.5 159t-203.5 52h-111v-424h113z" />
    <glyph glyph-name="germandbls" unicode="&#xdf;" horiz-adv-x="1310" 
d="M135 1262q0 230 111 356q61 67 161.5 105t217.5 38q215 0 348 -124.5t133 -325.5q0 -105 -44 -183t-142 -147q67 -28 104 -51t70 -58q66 -64 101.5 -157t35.5 -199q0 -195 -107 -338.5t-286 -187.5q-102 -23 -244 -23v252q74 1 121.5 15t93.5 47q63 43 98 109t35 142
q0 82 -39 152t-106 107q-45 25 -87.5 35.5t-115.5 13.5v243q57 1 90.5 10.5t65.5 30.5q40 29 63 77t23 102q0 91 -59.5 148.5t-151.5 57.5q-68 0 -119 -32.5t-68 -87.5q-14 -41 -19 -92t-5 -156v-1141h-279v1262z" />
    <glyph glyph-name="agrave" unicode="&#xe0;" horiz-adv-x="1316" 
d="M563 1620l275 -350l-133 -92l-349 313zM1182 1001v-1001h-279v129q-67 -85 -146.5 -123.5t-183.5 -38.5q-212 0 -351.5 153t-139.5 382q0 111 38 210t102.5 169.5t155 111.5t191.5 41q102 0 181 -38.5t153 -123.5v129h279zM653 782q-118 0 -200 -81.5t-82 -198.5
q0 -118 82.5 -200.5t199.5 -82.5q114 0 196.5 82.5t82.5 196.5q0 120 -81 202t-198 82z" />
    <glyph glyph-name="aacute" unicode="&#xe1;" horiz-adv-x="1316" 
d="M659 1178l-131 92l275 350l205 -129zM1182 1001v-1001h-279v129q-67 -85 -146.5 -123.5t-183.5 -38.5q-212 0 -351.5 153t-139.5 382q0 111 38 210t102.5 169.5t155 111.5t191.5 41q102 0 181 -38.5t153 -123.5v129h279zM653 782q-118 0 -200 -81.5t-82 -198.5
q0 -118 82.5 -200.5t199.5 -82.5q114 0 196.5 82.5t82.5 196.5q0 120 -81 202t-198 82z" />
    <glyph glyph-name="acircumflex" unicode="&#xe2;" horiz-adv-x="1316" 
d="M672 1636l397 -319l-143 -139l-254 213l-252 -213l-139 139zM1182 1001v-1001h-279v129q-67 -85 -146.5 -123.5t-183.5 -38.5q-212 0 -351.5 153t-139.5 382q0 111 38 210t102.5 169.5t155 111.5t191.5 41q102 0 181 -38.5t153 -123.5v129h279zM653 782
q-118 0 -200 -81.5t-82 -198.5q0 -118 82.5 -200.5t199.5 -82.5q114 0 196.5 82.5t82.5 196.5q0 120 -81 202t-198 82z" />
    <glyph glyph-name="atilde" unicode="&#xe3;" horiz-adv-x="1316" 
d="M254 1210q20 134 86.5 211.5t161.5 77.5q67 0 186 -45q78 -30 100 -36.5t46 -6.5q32 0 52.5 17t49.5 69h158q-25 -136 -97.5 -213.5t-175.5 -77.5q-60 0 -162 43q-111 43 -153 43q-31 0 -52 -19t-42 -63h-158zM1182 1001v-1001h-279v129q-67 -85 -146.5 -123.5
t-183.5 -38.5q-212 0 -351.5 153t-139.5 382q0 111 38 210t102.5 169.5t155 111.5t191.5 41q102 0 181 -38.5t153 -123.5v129h279zM653 782q-118 0 -200 -81.5t-82 -198.5q0 -118 82.5 -200.5t199.5 -82.5q114 0 196.5 82.5t82.5 196.5q0 120 -81 202t-198 82z" />
    <glyph glyph-name="adieresis" unicode="&#xe4;" horiz-adv-x="1316" 
d="M442 1524q67 0 115.5 -49.5t48.5 -118.5t-48 -117.5t-116 -48.5q-69 0 -118.5 49t-49.5 119q0 67 50 116.5t118 49.5zM922 1524q69 0 117 -49.5t48 -118.5t-48 -117.5t-117 -48.5t-118.5 49t-49.5 119q0 67 50 116.5t118 49.5zM1182 1001v-1001h-279v129
q-67 -85 -146.5 -123.5t-183.5 -38.5q-212 0 -351.5 153t-139.5 382q0 111 38 210t102.5 169.5t155 111.5t191.5 41q102 0 181 -38.5t153 -123.5v129h279zM653 782q-118 0 -200 -81.5t-82 -198.5q0 -118 82.5 -200.5t199.5 -82.5q114 0 196.5 82.5t82.5 196.5q0 120 -81 202
t-198 82z" />
    <glyph glyph-name="aring" unicode="&#xe5;" horiz-adv-x="1316" 
d="M672 1604q88 0 150.5 -62t62.5 -151t-62.5 -151t-150.5 -62q-89 0 -151 62t-62 153q0 88 62.5 149.5t150.5 61.5zM672 1473q-34 0 -58 -24t-24 -58q0 -32 24 -56t58 -24q32 0 56 24t24 56q0 35 -23 58.5t-57 23.5zM1182 1001v-1001h-279v129q-67 -85 -146.5 -123.5
t-183.5 -38.5q-212 0 -351.5 153t-139.5 382q0 111 38 210t102.5 169.5t155 111.5t191.5 41q102 0 181 -38.5t153 -123.5v129h279zM653 782q-118 0 -200 -81.5t-82 -198.5q0 -118 82.5 -200.5t199.5 -82.5q114 0 196.5 82.5t82.5 196.5q0 120 -81 202t-198 82z" />
    <glyph glyph-name="ae" unicode="&#xe6;" horiz-adv-x="1867" 
d="M1032 457q6 -127 74.5 -200t181.5 -73q78 0 137.5 36t90.5 102l262 -41q-62 -150 -191 -232t-303 -82q-259 0 -391 191q-144 -191 -399 -191q-184 0 -298 91t-114 237q0 151 109.5 241.5t291.5 90.5q152 0 279 -72q2 18 2 51q0 99 -66.5 154t-187.5 55q-138 0 -277 -43
v225q157 37 287 37q138 0 226.5 -40.5t146.5 -131.5q132 172 379 172q239 0 377.5 -145.5t138.5 -396.5v-35h-756zM1518 635q-52 199 -238 199q-93 0 -151 -48.5t-89 -150.5h478zM549 428q-91 0 -144 -33t-53 -90q0 -60 55 -99.5t142 -39.5q90 0 151.5 41.5t61.5 101.5
q0 52 -60 85.5t-153 33.5z" />
    <glyph glyph-name="ccedilla" unicode="&#xe7;" horiz-adv-x="964" 
d="M887 696q-61 52 -113 73.5t-117 21.5q-123 0 -204.5 -83t-81.5 -208q0 -124 81.5 -206.5t204.5 -82.5q67 0 119.5 21t110.5 71v-272q-125 -64 -258 -64q-152 0 -277.5 69.5t-197.5 191t-72 268.5q0 150 72 273.5t198 194t279 70.5q138 0 256 -59v-279zM481 -494l-141 82
l229 308l181 -99z" />
    <glyph glyph-name="egrave" unicode="&#xe8;" horiz-adv-x="1198" 
d="M487 1620l277 -350l-135 -92l-346 313zM369 457q5 -131 67 -200t176 -69q79 0 134.5 31.5t105.5 102.5l258 -41q-63 -155 -187.5 -234.5t-301.5 -79.5q-244 0 -391.5 145.5t-147.5 387.5q0 243 142.5 388.5t381.5 145.5t376.5 -144t137.5 -396v-37h-751zM852 635
q-23 97 -84.5 148t-155.5 51q-93 0 -154 -52t-81 -147h475z" />
    <glyph glyph-name="eacute" unicode="&#xe9;" horiz-adv-x="1198" 
d="M580 1178l-136 92l275 350l207 -129zM369 457q5 -131 67 -200t176 -69q79 0 134.5 31.5t105.5 102.5l258 -41q-63 -155 -187.5 -234.5t-301.5 -79.5q-244 0 -391.5 145.5t-147.5 387.5q0 243 142.5 388.5t381.5 145.5t376.5 -144t137.5 -396v-37h-751zM852 635
q-23 97 -84.5 148t-155.5 51q-93 0 -154 -52t-81 -147h475z" />
    <glyph glyph-name="ecircumflex" unicode="&#xea;" horiz-adv-x="1198" 
d="M612 1636l400 -319l-146 -139l-254 213l-252 -213l-139 139zM369 457q5 -131 67 -200t176 -69q79 0 134.5 31.5t105.5 102.5l258 -41q-63 -155 -187.5 -234.5t-301.5 -79.5q-244 0 -391.5 145.5t-147.5 387.5q0 243 142.5 388.5t381.5 145.5t376.5 -144t137.5 -396v-37
h-751zM852 635q-23 97 -84.5 148t-155.5 51q-93 0 -154 -52t-81 -147h475z" />
    <glyph glyph-name="edieresis" unicode="&#xeb;" horiz-adv-x="1198" 
d="M375 1524q67 0 115.5 -49.5t48.5 -118.5t-48 -117.5t-116 -48.5q-69 0 -117.5 49t-48.5 119q0 68 49.5 117t116.5 49zM856 1524q69 0 117.5 -49.5t48.5 -118.5t-48.5 -117.5t-117.5 -48.5t-117.5 49t-48.5 119q0 68 49 117t117 49zM369 457q5 -131 67 -200t176 -69
q79 0 134.5 31.5t105.5 102.5l258 -41q-63 -155 -187.5 -234.5t-301.5 -79.5q-244 0 -391.5 145.5t-147.5 387.5q0 243 142.5 388.5t381.5 145.5t376.5 -144t137.5 -396v-37h-751zM852 635q-23 97 -84.5 148t-155.5 51q-93 0 -154 -52t-81 -147h475z" />
    <glyph glyph-name="igrave" unicode="&#xec;" horiz-adv-x="540" 
d="M158 1620l276 -350l-133 -92l-348 313zM412 0h-281v1001h281v-1001z" />
    <glyph glyph-name="iacute" unicode="&#xed;" horiz-adv-x="540" 
d="M244 1178l-135 92l276 350l205 -129zM412 0h-281v1001h281v-1001z" />
    <glyph glyph-name="icircumflex" unicode="&#xee;" horiz-adv-x="540" 
d="M268 1636l353 -319l-144 -139l-209 213l-205 -213l-139 139zM412 0h-281v1001h281v-1001z" />
    <glyph glyph-name="idieresis" unicode="&#xef;" horiz-adv-x="540" 
d="M68 1524q69 0 117 -49.5t48 -118.5t-48 -117.5t-117 -48.5t-118.5 49t-49.5 119q0 67 50 116.5t118 49.5zM477 1524q69 0 117.5 -49.5t48.5 -118.5t-48.5 -117.5t-117.5 -48.5t-118.5 49t-49.5 119q0 67 50 116.5t118 49.5zM412 0h-281v1001h281v-1001z" />
    <glyph glyph-name="eth" unicode="&#xf0;" horiz-adv-x="1306" 
d="M944 1503l-172 -86q216 -198 335.5 -434t119.5 -465q0 -250 -155.5 -400.5t-412.5 -150.5q-253 0 -415 149.5t-162 381.5q0 239 162 387.5t422 148.5q25 0 45 -2q-79 153 -181 266l-215 -108l-90 184l166 86q-52 38 -82 53l-71 33q-38 19 -48 23l82 166q71 -23 171 -77
t145 -93l262 129zM655 782q-117 0 -200.5 -82t-83.5 -196q0 -120 82 -202.5t202 -82.5q116 0 199.5 82.5t83.5 200.5q0 119 -81.5 199.5t-201.5 80.5z" />
    <glyph glyph-name="ntilde" unicode="&#xf1;" horiz-adv-x="1232" 
d="M213 1210q19 133 86 211t162 78q68 0 184 -45q77 -30 100 -36.5t46 -6.5q34 0 54 17t48 69h160q-26 -136 -99 -213.5t-174 -77.5q-35 0 -66.5 8t-95.5 35q-114 43 -153 43q-32 0 -53.5 -19.5t-40.5 -62.5h-158zM414 1001v-124q65 85 138 121t177 36q90 0 166 -31.5
t125 -89.5q44 -49 62 -111.5t18 -164.5v-637h-281v555q0 66 -5.5 101.5t-22.5 60.5q-20 37 -64.5 58.5t-99.5 21.5q-108 0 -160.5 -68.5t-52.5 -210.5v-518h-279v1001h279z" />
    <glyph glyph-name="ograve" unicode="&#xf2;" horiz-adv-x="1306" 
d="M541 1620l276 -350l-135 -92l-346 313zM657 1034q252 0 411 -148t159 -384q0 -238 -161 -386.5t-419 -148.5q-251 0 -408 151t-157 392q0 229 161.5 376.5t413.5 147.5zM653 782q-116 0 -199 -82t-83 -196q0 -120 82 -202.5t202 -82.5q116 0 199.5 82.5t83.5 198.5
q0 118 -83.5 200t-201.5 82z" />
    <glyph glyph-name="oacute" unicode="&#xf3;" horiz-adv-x="1306" 
d="M641 1178l-135 92l276 350l203 -129zM657 1034q252 0 411 -148t159 -384q0 -238 -161 -386.5t-419 -148.5q-251 0 -408 151t-157 392q0 229 161.5 376.5t413.5 147.5zM653 782q-116 0 -199 -82t-83 -196q0 -120 82 -202.5t202 -82.5q116 0 199.5 82.5t83.5 198.5
q0 118 -83.5 200t-201.5 82z" />
    <glyph glyph-name="ocircumflex" unicode="&#xf4;" horiz-adv-x="1306" 
d="M651 1636l398 -319l-144 -139l-252 213l-254 -213l-139 139zM657 1034q252 0 411 -148t159 -384q0 -238 -161 -386.5t-419 -148.5q-251 0 -408 151t-157 392q0 229 161.5 376.5t413.5 147.5zM653 782q-116 0 -199 -82t-83 -196q0 -120 82 -202.5t202 -82.5
q116 0 199.5 82.5t83.5 198.5q0 118 -83.5 200t-201.5 82z" />
    <glyph glyph-name="otilde" unicode="&#xf5;" horiz-adv-x="1306" 
d="M250 1210q19 133 86 211t162 78q68 0 184 -45q77 -30 100 -36.5t47 -6.5q33 0 53.5 17t47.5 69h160q-26 -137 -98 -214t-175 -77q-35 0 -66.5 8t-95.5 35q-114 43 -153 43q-32 0 -53.5 -19.5t-40.5 -62.5h-158zM657 1034q252 0 411 -148t159 -384q0 -238 -161 -386.5
t-419 -148.5q-251 0 -408 151t-157 392q0 229 161.5 376.5t413.5 147.5zM653 782q-116 0 -199 -82t-83 -196q0 -120 82 -202.5t202 -82.5q116 0 199.5 82.5t83.5 198.5q0 118 -83.5 200t-201.5 82z" />
    <glyph glyph-name="odieresis" unicode="&#xf6;" horiz-adv-x="1306" 
d="M414 1524q68 0 117 -49.5t49 -118.5t-49 -117.5t-117 -48.5q-69 0 -117.5 49t-48.5 119q0 68 49 117t117 49zM893 1524q69 0 118.5 -49.5t49.5 -118.5t-49.5 -117.5t-118.5 -48.5t-117.5 49t-48.5 119q0 68 49.5 117t116.5 49zM657 1034q252 0 411 -148t159 -384
q0 -238 -161 -386.5t-419 -148.5q-251 0 -408 151t-157 392q0 229 161.5 376.5t413.5 147.5zM653 782q-116 0 -199 -82t-83 -196q0 -120 82 -202.5t202 -82.5q116 0 199.5 82.5t83.5 198.5q0 118 -83.5 200t-201.5 82z" />
    <glyph glyph-name="divide" unicode="&#xf7;" 
d="M655 1298q59 0 100.5 -41.5t41.5 -99.5t-41.5 -99.5t-100.5 -41.5q-60 0 -100.5 41.5t-40.5 101.5q0 57 42 98t99 41zM1174 862v-184h-1035v184h1035zM655 528q59 0 100.5 -41.5t41.5 -99.5q0 -60 -41.5 -100.5t-100.5 -40.5q-60 0 -100.5 41t-40.5 102q0 57 42 98t99 41
z" />
    <glyph glyph-name="oslash" unicode="&#xf8;" horiz-adv-x="1310" 
d="M1079 877q148 -157 148 -377q0 -232 -160 -382.5t-410 -150.5q-153 0 -290 64l-138 -160l-120 106l120 146q-147 150 -147 379q0 234 160 383t411 149q156 0 289 -61l131 160l131 -107zM764 760q-54 22 -111 22q-117 0 -199.5 -82.5t-82.5 -199.5q0 -71 45 -154zM545 244
q61 -25 108 -25q117 0 201 82t84 199q0 77 -47 155z" />
    <glyph glyph-name="ugrave" unicode="&#xf9;" horiz-adv-x="1239" 
d="M504 1620l276 -350l-133 -92l-348 313zM823 0v127q-65 -85 -141 -122.5t-180 -37.5q-187 0 -281 105q-86 103 -86 295v634h279v-555q0 -106 30 -159q22 -37 67.5 -58.5t100.5 -21.5q112 0 161.5 71t49.5 232v491h281v-1001h-281z" />
    <glyph glyph-name="uacute" unicode="&#xfa;" horiz-adv-x="1239" 
d="M614 1178l-135 92l275 350l207 -129zM823 0v127q-65 -85 -141 -122.5t-180 -37.5q-187 0 -281 105q-86 103 -86 295v634h279v-555q0 -106 30 -159q22 -37 67.5 -58.5t100.5 -21.5q112 0 161.5 71t49.5 232v491h281v-1001h-281z" />
    <glyph glyph-name="ucircumflex" unicode="&#xfb;" horiz-adv-x="1239" 
d="M612 1636l400 -319l-144 -139l-256 213l-252 -213l-139 139zM823 0v127q-65 -85 -141 -122.5t-180 -37.5q-187 0 -281 105q-86 103 -86 295v634h279v-555q0 -106 30 -159q22 -37 67.5 -58.5t100.5 -21.5q112 0 161.5 71t49.5 232v491h281v-1001h-281z" />
    <glyph glyph-name="udieresis" unicode="&#xfc;" horiz-adv-x="1239" 
d="M381 1524q67 0 115.5 -49.5t48.5 -118.5t-48 -117.5t-116 -48.5q-69 0 -117.5 49t-48.5 119q0 68 49.5 117t116.5 49zM860 1524q69 0 117.5 -49.5t48.5 -118.5t-48.5 -117.5t-117.5 -48.5t-117.5 49t-48.5 119q0 68 49 117t117 49zM823 0v127q-65 -85 -141 -122.5
t-180 -37.5q-187 0 -281 105q-86 103 -86 295v634h279v-555q0 -106 30 -159q22 -37 67.5 -58.5t100.5 -21.5q112 0 161.5 71t49.5 232v491h281v-1001h-281z" />
    <glyph glyph-name="yacute" unicode="&#xfd;" horiz-adv-x="1239" 
d="M604 1178l-131 92l275 350l202 -129zM2 1001h326l301 -569l284 569h322l-809 -1536h-317l368 689z" />
    <glyph glyph-name="thorn" unicode="&#xfe;" 
d="M135 -528v2216h289v-791q70 75 143 107t170 32q214 0 354 -152t140 -382q0 -149 -64.5 -271.5t-178 -192t-251.5 -69.5q-94 0 -167 32t-146 103v-632h-289zM666 778q-112 0 -183 -78.5t-71 -201.5q0 -120 70.5 -198.5t179.5 -78.5q114 0 187 78.5t73 198.5
q0 125 -71 202.5t-185 77.5z" />
    <glyph glyph-name="ydieresis" unicode="&#xff;" horiz-adv-x="1239" 
d="M379 1524q68 0 117 -49.5t49 -118.5t-49 -117.5t-117 -48.5q-69 0 -117.5 49t-48.5 119q0 68 49.5 117t116.5 49zM858 1524q69 0 118.5 -49.5t49.5 -118.5t-49.5 -117.5t-118.5 -48.5t-117.5 49t-48.5 119q0 68 49 117t117 49zM2 1001h326l301 -569l284 569h322
l-809 -1536h-317l368 689z" />
    <glyph glyph-name="Amacron" unicode="&#x100;" horiz-adv-x="1550" 
d="M1159 1927v-184h-770v184h770zM461 326l-139 -326h-320l670 1577h225l649 -1577h-321l-133 326h-631zM782 1124l-225 -555h440z" />
    <glyph glyph-name="amacron" unicode="&#x101;" horiz-adv-x="1316" 
d="M1032 1460v-184h-741v184h741zM1182 1001v-1001h-279v129q-67 -85 -146.5 -123.5t-183.5 -38.5q-212 0 -351.5 153t-139.5 382q0 111 38 210t102.5 169.5t155 111.5t191.5 41q102 0 181 -38.5t153 -123.5v129h279zM653 782q-118 0 -200 -81.5t-82 -198.5
q0 -118 82.5 -200.5t199.5 -82.5q114 0 196.5 82.5t82.5 196.5q0 120 -81 202t-198 82z" />
    <glyph glyph-name="Abreve" unicode="&#x102;" horiz-adv-x="1550" 
d="M588 2017q28 -77 71.5 -111t116.5 -34q72 0 115.5 34t69.5 111h194q-20 -149 -122 -236t-257 -87q-158 0 -260.5 86.5t-122.5 236.5h195zM461 326l-139 -326h-320l670 1577h225l649 -1577h-321l-133 326h-631zM782 1124l-225 -555h440z" />
    <glyph glyph-name="abreve" unicode="&#x103;" horiz-adv-x="1316" 
d="M487 1503q26 -76 71 -110.5t116 -34.5q72 0 116 34t70 111h195q-19 -151 -121 -238t-260 -87q-157 0 -258.5 87t-120.5 238h192zM1182 1001v-1001h-279v129q-67 -85 -146.5 -123.5t-183.5 -38.5q-212 0 -351.5 153t-139.5 382q0 111 38 210t102.5 169.5t155 111.5
t191.5 41q102 0 181 -38.5t153 -123.5v129h279zM653 782q-118 0 -200 -81.5t-82 -198.5q0 -118 82.5 -200.5t199.5 -82.5q114 0 196.5 82.5t82.5 196.5q0 120 -81 202t-198 82z" />
    <glyph glyph-name="Aogonek" unicode="&#x104;" horiz-adv-x="1550" 
d="M461 326l-139 -326h-320l670 1577h225l649 -1577q-139 -106 -139 -190q0 -40 27 -66.5t67 -26.5q60 0 131 45l-41 -182q-67 -37 -159 -37q-101 0 -167.5 55t-66.5 140q0 131 186 262h-159l-133 326h-631zM782 1124l-225 -555h440z" />
    <glyph glyph-name="aogonek" unicode="&#x105;" horiz-adv-x="1316" 
d="M1182 1001v-1001q-6 -4 -17 -11.5t-12 -8.5q-65 -43 -90 -76t-25 -76q0 -40 29 -66t72 -26q46 0 110 31l-35 -156q-64 -39 -147 -39q-85 0 -145 51.5t-60 124.5q0 42 18.5 87.5t47.5 78.5q38 41 121 86h-146v129q-67 -85 -146.5 -123.5t-183.5 -38.5q-212 0 -351.5 153
t-139.5 382q0 111 38 210t102.5 169.5t155 111.5t191.5 41q102 0 181 -38.5t153 -123.5v129h279zM653 782q-118 0 -200 -81.5t-82 -198.5q0 -118 82.5 -200.5t199.5 -82.5q114 0 196.5 82.5t82.5 196.5q0 120 -81 202t-198 82z" />
    <glyph glyph-name="Cacute" unicode="&#x106;" horiz-adv-x="1392" 
d="M842 1686l-123 112l317 307l193 -157zM1292 1128q-94 93 -183 134t-196 41q-140 0 -255.5 -70.5t-181.5 -194t-66 -272.5q0 -226 146 -375t366 -149q109 0 193.5 38t176.5 130v-355q-103 -49 -191 -69.5t-188 -20.5q-168 0 -318.5 62.5t-259 169t-172 255t-63.5 312.5
q0 166 64 317t173 260t259.5 173.5t316.5 64.5q102 0 189.5 -22.5t189.5 -73.5v-355z" />
    <glyph glyph-name="cacute" unicode="&#x107;" horiz-adv-x="964" 
d="M563 1178l-135 92l277 350l204 -129zM887 696q-61 47 -113 66.5t-115 19.5q-124 0 -206 -80t-82 -202q0 -121 81.5 -201t206.5 -80q64 0 116.5 19.5t111.5 64.5v-272q-123 -64 -258 -64q-152 0 -277.5 69.5t-197.5 191t-72 268.5q0 150 72 273.5t198 194t279 70.5
q138 0 256 -59v-279z" />
    <glyph glyph-name="Ccircumflex" unicode="&#x108;" horiz-adv-x="1392" 
d="M870 2142l398 -319l-144 -137l-254 206l-252 -206l-139 137zM1292 1128q-94 93 -183 134t-196 41q-140 0 -255.5 -70.5t-181.5 -194t-66 -272.5q0 -226 146 -375t366 -149q109 0 193.5 38t176.5 130v-355q-103 -49 -191 -69.5t-188 -20.5q-168 0 -318.5 62.5t-259 169
t-172 255t-63.5 312.5q0 166 64 317t173 260t259.5 173.5t316.5 64.5q102 0 189.5 -22.5t189.5 -73.5v-355z" />
    <glyph glyph-name="ccircumflex" unicode="&#x109;" horiz-adv-x="964" 
d="M573 1636l396 -319l-144 -139l-252 213l-251 -213l-142 139zM887 696q-61 47 -113 66.5t-115 19.5q-124 0 -206 -80t-82 -202q0 -121 81.5 -201t206.5 -80q64 0 116.5 19.5t111.5 64.5v-272q-123 -64 -258 -64q-152 0 -277.5 69.5t-197.5 191t-72 268.5q0 150 72 273.5
t198 194t279 70.5q138 0 256 -59v-279z" />
    <glyph glyph-name="Cdotaccent" unicode="&#x10a;" horiz-adv-x="1392" 
d="M883 2044q71 0 121.5 -51t50.5 -123q0 -71 -51 -122.5t-121 -51.5q-73 0 -124.5 52t-51.5 124q0 70 51.5 121t124.5 51zM1292 1128q-94 93 -183 134t-196 41q-140 0 -255.5 -70.5t-181.5 -194t-66 -272.5q0 -226 146 -375t366 -149q109 0 193.5 38t176.5 130v-355
q-103 -49 -191 -69.5t-188 -20.5q-168 0 -318.5 62.5t-259 169t-172 255t-63.5 312.5q0 166 64 317t173 260t259.5 173.5t316.5 64.5q102 0 189.5 -22.5t189.5 -73.5v-355z" />
    <glyph glyph-name="cdotaccent" unicode="&#x10b;" horiz-adv-x="964" 
d="M592 1538q72 0 123 -50.5t51 -121.5q0 -73 -51 -124.5t-123 -51.5t-124 52t-52 126q0 69 52 119.5t124 50.5zM887 696q-61 47 -113 66.5t-115 19.5q-124 0 -206 -80t-82 -202q0 -121 81.5 -201t206.5 -80q64 0 116.5 19.5t111.5 64.5v-272q-123 -64 -258 -64
q-152 0 -277.5 69.5t-197.5 191t-72 268.5q0 150 72 273.5t198 194t279 70.5q138 0 256 -59v-279z" />
    <glyph glyph-name="Ccaron" unicode="&#x10c;" horiz-adv-x="1392" 
d="M627 2142l252 -205l254 205l143 -135l-399 -321l-392 321zM1292 1128q-94 93 -183 134t-196 41q-140 0 -255.5 -70.5t-181.5 -194t-66 -272.5q0 -226 146 -375t366 -149q109 0 193.5 38t176.5 130v-355q-103 -49 -191 -69.5t-188 -20.5q-168 0 -318.5 62.5t-259 169
t-172 255t-63.5 312.5q0 166 64 317t173 260t259.5 173.5t316.5 64.5q102 0 189.5 -22.5t189.5 -73.5v-355z" />
    <glyph glyph-name="ccaron" unicode="&#x10d;" horiz-adv-x="964" 
d="M322 1636l251 -211l252 211l148 -137l-400 -321l-391 321zM887 696q-61 47 -113 66.5t-115 19.5q-124 0 -206 -80t-82 -202q0 -121 81.5 -201t206.5 -80q64 0 116.5 19.5t111.5 64.5v-272q-123 -64 -258 -64q-152 0 -277.5 69.5t-197.5 191t-72 268.5q0 150 72 273.5
t198 194t279 70.5q138 0 256 -59v-279z" />
    <glyph glyph-name="Dcaron" unicode="&#x10e;" horiz-adv-x="1548" 
d="M434 2142l254 -205l254 205l143 -135l-397 -321l-391 321zM178 1544h443q336 0 553 -178q130 -105 202 -262.5t72 -331.5q0 -171 -73.5 -328.5t-205.5 -265.5q-112 -93 -243.5 -135.5t-307.5 -42.5h-440v1544zM559 262q146 0 244 29t170 94q77 69 121.5 173t44.5 214
q0 112 -44.5 213.5t-121.5 171.5q-75 67 -171 96t-243 29h-80v-1020h80z" />
    <glyph glyph-name="dcaron" unicode="&#x10f;" horiz-adv-x="1675" 
d="M1661 1722l-254 -407l-147 16l165 412zM1182 1733v-1733h-279v129q-67 -85 -146.5 -123.5t-183.5 -38.5q-212 0 -351.5 153t-139.5 382q0 111 38 210t102.5 169.5t155 111.5t191.5 41q102 0 181 -38.5t153 -123.5v861h279zM653 782q-118 0 -200 -81.5t-82 -198.5
q0 -118 82.5 -200.5t199.5 -82.5q114 0 196.5 82.5t82.5 196.5q0 120 -81 202t-198 82z" />
    <glyph glyph-name="Dcroat" unicode="&#x110;" horiz-adv-x="1548" 
d="M178 1544h443q336 0 553 -178q130 -105 202 -263t72 -331q0 -174 -73 -330t-206 -264q-114 -94 -245 -136t-306 -42h-440v655h-129v232h129v657zM807 887v-232h-328v-393h80q146 0 244 29t170 94q77 69 121.5 172t44.5 213q0 113 -44.5 215t-121.5 172q-77 68 -171 96.5
t-243 28.5h-80v-395h328z" />
    <glyph glyph-name="dcroat" unicode="&#x111;" horiz-adv-x="1316" 
d="M1182 1733v-215h123v-215h-123v-1303h-279v129q-67 -85 -146.5 -123.5t-183.5 -38.5q-212 0 -351.5 153t-139.5 382q0 111 38 210t102.5 169.5t155 111.5t191.5 41t180.5 -38.5t153.5 -123.5v431h-278v215h278v215h279zM653 782q-118 0 -200 -81.5t-82 -198.5
q0 -118 82.5 -200.5t199.5 -82.5q114 0 196.5 82.5t82.5 196.5q0 120 -81 202t-198 82z" />
    <glyph glyph-name="Emacron" unicode="&#x112;" horiz-adv-x="1144" 
d="M991 1927v-184h-772v184h772zM479 1282v-342h533v-262h-533v-416h553v-262h-854v1544h854v-262h-553z" />
    <glyph glyph-name="emacron" unicode="&#x113;" horiz-adv-x="1198" 
d="M985 1460v-184h-739v184h739zM369 457q5 -131 67 -200t176 -69q79 0 134.5 31.5t105.5 102.5l258 -41q-63 -155 -187.5 -234.5t-301.5 -79.5q-244 0 -391.5 145.5t-147.5 387.5q0 243 142.5 388.5t381.5 145.5t376.5 -144t137.5 -396v-37h-751zM852 635q-23 97 -84.5 148
t-155.5 51q-93 0 -154 -52t-81 -147h475z" />
    <glyph glyph-name="Ebreve" unicode="&#x114;" horiz-adv-x="1144" 
d="M434 2017q26 -76 71 -110.5t116 -34.5q72 0 115 34t71 111h194q-19 -150 -120.5 -236.5t-259.5 -86.5q-157 0 -258.5 87t-120.5 236h192zM479 1282v-342h533v-262h-533v-416h553v-262h-854v1544h854v-262h-553z" />
    <glyph glyph-name="ebreve" unicode="&#x115;" horiz-adv-x="1198" 
d="M414 1503q26 -77 70 -111t116 -34t116 34t70 111h195q-19 -150 -121.5 -237.5t-259.5 -87.5t-259 87t-122 238h195zM369 457q5 -131 67 -200t176 -69q79 0 134.5 31.5t105.5 102.5l258 -41q-63 -155 -187.5 -234.5t-301.5 -79.5q-244 0 -391.5 145.5t-147.5 387.5
q0 243 142.5 388.5t381.5 145.5t376.5 -144t137.5 -396v-37h-751zM852 635q-23 97 -84.5 148t-155.5 51q-93 0 -154 -52t-81 -147h475z" />
    <glyph glyph-name="Edotaccent" unicode="&#x116;" horiz-adv-x="1144" 
d="M623 2044q71 0 122.5 -51t51.5 -123q0 -70 -51.5 -122t-122.5 -52q-72 0 -124.5 52t-52.5 124q0 69 52.5 120.5t124.5 51.5zM479 1282v-342h533v-262h-533v-416h553v-262h-854v1544h854v-262h-553z" />
    <glyph glyph-name="edotaccent" unicode="&#x117;" horiz-adv-x="1198" 
d="M616 1538q70 0 121 -51t51 -121q0 -73 -50.5 -124.5t-121.5 -51.5q-74 0 -125 51.5t-51 126.5q0 69 51.5 119.5t124.5 50.5zM369 457q5 -131 67 -200t176 -69q79 0 134.5 31.5t105.5 102.5l258 -41q-63 -155 -187.5 -234.5t-301.5 -79.5q-244 0 -391.5 145.5
t-147.5 387.5q0 243 142.5 388.5t381.5 145.5t376.5 -144t137.5 -396v-37h-751zM852 635q-23 97 -84.5 148t-155.5 51q-93 0 -154 -52t-81 -147h475z" />
    <glyph glyph-name="Eogonek" unicode="&#x118;" horiz-adv-x="1144" 
d="M479 1282v-342h533v-262h-533v-416h553v-262q-72 -57 -105.5 -102t-33.5 -88q0 -39 28 -66t68 -27q58 0 129 45l-39 -182q-70 -37 -159 -37q-103 0 -169.5 55t-66.5 140q0 131 186 262h-692v1544h854v-262h-553z" />
    <glyph glyph-name="eogonek" unicode="&#x119;" horiz-adv-x="1198" 
d="M369 457q5 -131 67 -200t176 -69q79 0 134.5 31.5t105.5 102.5l258 -41q-33 -88 -83.5 -145.5t-139.5 -110.5q-164 -102 -164 -199q0 -38 28 -64t70 -26q47 0 111 31l-31 -156q-70 -39 -151 -39q-85 0 -144 51.5t-59 124.5q0 66 31 119t100 102q-27 -2 -55 -2
q-245 0 -393 146t-148 387q0 244 142.5 389t381.5 145t376.5 -144t137.5 -396v-37h-751zM852 635q-23 97 -84.5 148t-155.5 51q-93 0 -154 -52t-81 -147h475z" />
    <glyph glyph-name="Ecaron" unicode="&#x11a;" horiz-adv-x="1144" 
d="M367 2142l251 -205l254 205l144 -135l-398 -321l-391 321zM479 1282v-342h533v-262h-533v-416h553v-262h-854v1544h854v-262h-553z" />
    <glyph glyph-name="ecaron" unicode="&#x11b;" horiz-adv-x="1198" 
d="M360 1636l252 -211l254 211l146 -137l-400 -321l-391 321zM369 457q5 -131 67 -200t176 -69q79 0 134.5 31.5t105.5 102.5l258 -41q-63 -155 -187.5 -234.5t-301.5 -79.5q-244 0 -391.5 145.5t-147.5 387.5q0 243 142.5 388.5t381.5 145.5t376.5 -144t137.5 -396v-37
h-751zM852 635q-23 97 -84.5 148t-155.5 51q-93 0 -154 -52t-81 -147h475z" />
    <glyph glyph-name="Gcircumflex" unicode="&#x11c;" horiz-adv-x="1763" 
d="M909 2142l398 -319l-146 -137l-252 206l-252 -206l-139 137zM1661 825q-2 -170 -19 -269.5t-61 -186.5q-95 -195 -269 -299.5t-403 -104.5q-173 0 -323 60t-257 165.5t-168 254t-61 319.5q0 233 105.5 419t293 291t421.5 105q216 0 384 -92.5t277 -272.5l-264 -141
q-137 230 -402 230q-218 0 -361.5 -153.5t-143.5 -385.5q0 -149 65 -269t180.5 -188.5t257.5 -68.5q166 0 277.5 89.5t128.5 237.5h-363v260h705z" />
    <glyph glyph-name="gcircumflex" unicode="&#x11d;" 
d="M670 1636l397 -319l-143 -139l-254 213l-254 -213l-137 139zM1178 37q0 -155 -24 -239.5t-89 -157.5q-148 -177 -422 -177q-305 0 -461 220q-37 54 -53.5 97t-22.5 101h306q45 -180 235 -180q112 0 189 74q61 67 61 209v151q-76 -90 -155 -129t-185 -39
q-206 0 -340.5 146.5t-134.5 373.5q0 237 138.5 392t350.5 155q105 0 180.5 -37.5t145.5 -124.5v129h281v-964zM653 782q-118 0 -200 -81.5t-82 -198.5q0 -118 82.5 -200.5t199.5 -82.5q114 0 196.5 82.5t82.5 196.5q0 119 -81.5 201.5t-197.5 82.5z" />
    <glyph glyph-name="Gbreve" unicode="&#x11e;" horiz-adv-x="1763" 
d="M727 2017q26 -77 69 -111t115 -34q73 0 117 34t72 111h192q-19 -149 -121.5 -236t-259.5 -87q-156 0 -259 87t-120 236h195zM1661 825q-2 -170 -19 -269.5t-61 -186.5q-95 -195 -269 -299.5t-403 -104.5q-173 0 -323 60t-257 165.5t-168 254t-61 319.5q0 233 105.5 419
t293 291t421.5 105q216 0 384 -92.5t277 -272.5l-264 -141q-137 230 -402 230q-218 0 -361.5 -153.5t-143.5 -385.5q0 -149 65 -269t180.5 -188.5t257.5 -68.5q166 0 277.5 89.5t128.5 237.5h-363v260h705z" />
    <glyph glyph-name="gbreve" unicode="&#x11f;" 
d="M469 1503q28 -77 71.5 -111t116.5 -34q71 0 115 34.5t70 110.5h194q-19 -151 -120.5 -238t-258.5 -87q-158 0 -260.5 87t-122.5 238h195zM1178 37q0 -155 -24 -239.5t-89 -157.5q-148 -177 -422 -177q-305 0 -461 220q-37 54 -53.5 97t-22.5 101h306q45 -180 235 -180
q112 0 189 74q61 67 61 209v151q-76 -90 -155 -129t-185 -39q-206 0 -340.5 146.5t-134.5 373.5q0 237 138.5 392t350.5 155q105 0 180.5 -37.5t145.5 -124.5v129h281v-964zM653 782q-118 0 -200 -81.5t-82 -198.5q0 -118 82.5 -200.5t199.5 -82.5q114 0 196.5 82.5
t82.5 196.5q0 119 -81.5 201.5t-197.5 82.5z" />
    <glyph glyph-name="Gdotaccent" unicode="&#x120;" horiz-adv-x="1763" 
d="M905 2044q71 0 122.5 -51t51.5 -123q0 -70 -51.5 -122t-122.5 -52q-73 0 -124.5 52t-51.5 124q0 70 51.5 121t124.5 51zM1661 825q-2 -170 -19 -269.5t-61 -186.5q-95 -195 -269 -299.5t-403 -104.5q-173 0 -323 60t-257 165.5t-168 254t-61 319.5q0 233 105.5 419
t293 291t421.5 105q216 0 384 -92.5t277 -272.5l-264 -141q-137 230 -402 230q-218 0 -361.5 -153.5t-143.5 -385.5q0 -149 65 -269t180.5 -188.5t257.5 -68.5q166 0 277.5 89.5t128.5 237.5h-363v260h705z" />
    <glyph glyph-name="gdotaccent" unicode="&#x121;" 
d="M641 1538q71 0 122.5 -51t51.5 -121q0 -73 -51.5 -124.5t-122.5 -51.5q-73 0 -124.5 52t-51.5 126q0 69 52 119.5t124 50.5zM1178 37q0 -155 -24 -239.5t-89 -157.5q-148 -177 -422 -177q-305 0 -461 220q-37 54 -53.5 97t-22.5 101h306q45 -180 235 -180q112 0 189 74
q61 67 61 209v151q-76 -90 -155 -129t-185 -39q-206 0 -340.5 146.5t-134.5 373.5q0 237 138.5 392t350.5 155q105 0 180.5 -37.5t145.5 -124.5v129h281v-964zM653 782q-118 0 -200 -81.5t-82 -198.5q0 -118 82.5 -200.5t199.5 -82.5q114 0 196.5 82.5t82.5 196.5
q0 119 -81.5 201.5t-197.5 82.5z" />
    <glyph glyph-name="uni0122" unicode="&#x122;" horiz-adv-x="1763" 
d="M1661 825q-2 -170 -19 -269.5t-61 -186.5q-95 -195 -269 -299.5t-403 -104.5q-173 0 -323 60t-257 165.5t-168 254t-61 319.5q0 233 105.5 419t293 291t421.5 105q216 0 384 -92.5t277 -272.5l-264 -141q-137 230 -402 230q-218 0 -361.5 -153.5t-143.5 -385.5
q0 -149 65 -269t180.5 -188.5t257.5 -68.5q166 0 277.5 89.5t128.5 237.5h-363v260h705zM1044 -143l-262 -414l-155 16l168 418z" />
    <glyph glyph-name="uni0123" unicode="&#x123;" 
d="M514 1204l252 406l147 -15l-165 -413zM1178 37q0 -155 -24 -239.5t-89 -157.5q-148 -177 -422 -177q-305 0 -461 220q-37 54 -53.5 97t-22.5 101h306q45 -180 235 -180q112 0 189 74q61 67 61 209v151q-76 -90 -155 -129t-185 -39q-206 0 -340.5 146.5t-134.5 373.5
q0 237 138.5 392t350.5 155q105 0 180.5 -37.5t145.5 -124.5v129h281v-964zM653 782q-118 0 -200 -81.5t-82 -198.5q0 -118 82.5 -200.5t199.5 -82.5q114 0 196.5 82.5t82.5 196.5q0 119 -81.5 201.5t-197.5 82.5z" />
    <glyph glyph-name="Hcircumflex" unicode="&#x124;" horiz-adv-x="1607" 
d="M803 2142l397 -319l-145 -137l-252 206l-252 -206l-139 137zM1133 946v598h299v-1544h-299v684h-654v-684h-301v1544h301v-598h654z" />
    <glyph glyph-name="hcircumflex" unicode="&#x125;" horiz-adv-x="1232" 
d="M387 2257l397 -320l-143 -139l-254 209l-252 -209l-139 139zM414 1733v-861q66 87 139 124.5t176 37.5q90 0 166 -32t125 -91q45 -53 62.5 -115t17.5 -167v-629h-281v549q0 68 -5.5 104.5t-22.5 61.5q-20 37 -64.5 59.5t-99.5 22.5q-108 0 -160.5 -69.5t-52.5 -213.5
v-514h-279v1733h279z" />
    <glyph glyph-name="Hbar" unicode="&#x126;" horiz-adv-x="1607" 
d="M1432 1544v-219h131v-231h-131v-1094h-299v684h-654v-684h-301v1094h-129v231h129v219h301v-219h654v219h299zM479 1094v-148h654v148h-654z" />
    <glyph glyph-name="hbar" unicode="&#x127;" horiz-adv-x="1232" 
d="M694 1303h-280v-431q66 87 139.5 124.5t177.5 37.5q90 0 166 -32t125 -91q45 -53 62.5 -115t17.5 -167v-629h-281v549q0 121 -26 166q-22 37 -67 59.5t-99 22.5q-109 0 -162 -69.5t-53 -213.5v-514h-279v1303h-123v215h123v215h279v-215h280v-215z" />
    <glyph glyph-name="Itilde" unicode="&#x128;" horiz-adv-x="655" 
d="M-92 1716q19 136 85.5 214.5t162.5 78.5q70 0 184 -47q86 -31 103.5 -36t41.5 -5q34 0 55 17t48 69h160q-28 -139 -100 -217t-173 -78q-33 0 -65.5 9t-96.5 36q-114 43 -153 43q-34 0 -55.5 -19t-38.5 -65h-158zM477 0h-301v1544h301v-1544z" />
    <glyph glyph-name="itilde" unicode="&#x129;" horiz-adv-x="540" 
d="M-147 1210q19 134 85 211.5t162 77.5q66 0 185 -45q79 -30 100 -36.5t45 -6.5q34 0 54 17t48 69h160q-28 -137 -99.5 -214t-172.5 -77q-36 0 -68.5 8t-95.5 35q-111 43 -154 43q-31 0 -52 -19t-40 -63h-157zM412 0h-281v1001h281v-1001z" />
    <glyph glyph-name="Imacron" unicode="&#x12a;" horiz-adv-x="655" 
d="M625 1927v-184h-594v184h594zM479 0h-301v1544h301v-1544z" />
    <glyph glyph-name="imacron" unicode="&#x12b;" horiz-adv-x="540" 
d="M553 1460v-184h-565v184h565zM410 0h-281v1001h281v-1001z" />
    <glyph glyph-name="Ibreve" unicode="&#x12c;" horiz-adv-x="655" 
d="M141 2017q26 -77 69.5 -111t115.5 -34q73 0 116.5 34t71.5 111h195q-20 -150 -122.5 -236.5t-260.5 -86.5q-156 0 -258 87t-121 236h194zM477 0h-301v1544h301v-1544z" />
    <glyph glyph-name="ibreve" unicode="&#x12d;" horiz-adv-x="540" 
d="M139 1503q21 -151 148 -151q129 0 147 151h178q-20 -159 -103 -242t-222 -83q-138 0 -222 83.5t-104 241.5h178zM412 0h-281v1001h281v-1001z" />
    <glyph glyph-name="Iogonek" unicode="&#x12e;" horiz-adv-x="655" 
d="M479 1544v-1544q-139 -106 -139 -190q0 -40 27 -66.5t67 -26.5q57 0 131 45l-39 -182q-70 -37 -159 -37q-103 0 -169.5 55t-66.5 140q0 130 186 262h-139v1544h301z" />
    <glyph glyph-name="iogonek" unicode="&#x12f;" horiz-adv-x="538" 
d="M270 1595q69 0 118.5 -50t49.5 -120q0 -69 -49.5 -118.5t-118.5 -49.5q-70 0 -119 49.5t-49 120.5q0 68 49.5 118t118.5 50zM129 0v1001h281v-1001q-91 -43 -131.5 -84t-40.5 -90q0 -38 28.5 -64t71.5 -26q44 0 108 31l-32 -156q-64 -39 -148 -39q-85 0 -144 51.5
t-59 126.5q0 72 39 130.5t129 119.5h-102z" />
    <glyph glyph-name="Idotaccent" unicode="&#x130;" horiz-adv-x="655" 
d="M328 2044q72 0 123 -51t51 -123q0 -71 -51 -122.5t-123 -51.5t-123 52t-51 124q0 70 51 121t123 51zM479 0h-301v1544h301v-1544z" />
    <glyph glyph-name="dotlessi" unicode="&#x131;" horiz-adv-x="540" 
d="M412 0h-281v1001h281v-1001z" />
    <glyph glyph-name="IJ" unicode="&#x132;" horiz-adv-x="1556" 
d="M479 0h-301v1544h301v-1544zM1382 502q0 -158 -33 -261t-104 -171q-55 -51 -131 -79t-158 -28q-204 0 -362 146l182 219q59 -86 150 -86q99 0 135 92q20 61 20 217v993h301v-1042z" />
    <glyph glyph-name="ij" unicode="&#x133;" horiz-adv-x="1095" 
d="M270 1595q69 0 118.5 -50t49.5 -120q0 -69 -49.5 -118.5t-118.5 -49.5q-70 0 -119 49.5t-49 120.5q0 68 49.5 118t118.5 50zM827 1595q69 0 118.5 -50t49.5 -120q0 -69 -49.5 -118.5t-118.5 -49.5q-70 0 -119 49.5t-49 120.5q0 68 49.5 118t118.5 50zM410 0h-281v1001
h281v-1001zM604 -541q-95 0 -141 19v250q45 -25 98 -25q58 0 91.5 34t33.5 126v1138h281v-1091q0 -150 -30 -230.5t-89 -130.5q-107 -90 -244 -90z" />
    <glyph glyph-name="Jcircumflex" unicode="&#x134;" horiz-adv-x="903" 
d="M569 2142l398 -319l-146 -137l-252 206l-252 -206l-141 137zM725 502q0 -158 -33 -261t-104 -171q-55 -51 -131 -79t-158 -28q-204 0 -362 146l182 219q59 -86 149 -86q99 0 135 92q21 56 21 217v993h301v-1042z" />
    <glyph glyph-name="jcircumflex" unicode="&#x135;" horiz-adv-x="538" 
d="M266 1636l398 -319l-144 -139l-254 213l-252 -213l-139 139zM47 -541q-95 0 -141 19v250q45 -25 98 -25q58 0 91.5 34t33.5 126v1138h281v-1091q0 -152 -29 -233t-90 -128q-107 -90 -244 -90z" />
    <glyph glyph-name="uni0136" unicode="&#x136;" horiz-adv-x="1474" 
d="M1047 1544h378l-653 -713l688 -831h-395l-549 694l-37 -37v-657h-301v1544h301v-653zM920 -143l-261 -414l-157 16l168 418z" />
    <glyph glyph-name="uni0137" unicode="&#x137;" horiz-adv-x="1196" 
d="M414 637l374 364h381l-471 -438l508 -563h-387l-375 430l-30 -31v-399h-279v1733h279v-1096zM754 -143l-252 -392l-148 17l166 395z" />
    <glyph glyph-name="kgreenlandic" unicode="&#x138;" horiz-adv-x="1196" 
d="M414 637l374 364h381l-471 -438l508 -563h-387l-375 430l-30 -31v-399h-279v1001h279v-364z" />
    <glyph glyph-name="Lacute" unicode="&#x139;" horiz-adv-x="983" 
d="M299 1686l-123 112l318 307l190 -157zM479 262h475v-262h-776v1544h301v-1282z" />
    <glyph glyph-name="lacute" unicode="&#x13a;" horiz-adv-x="548" 
d="M250 1784l-111 100l285 281l180 -160zM414 0h-279v1704h279v-1704z" />
    <glyph glyph-name="uni013B" unicode="&#x13b;" horiz-adv-x="983" 
d="M479 262h475v-262h-776v1544h301v-1282zM729 -143l-262 -414l-154 16l166 418z" />
    <glyph glyph-name="uni013C" unicode="&#x13c;" horiz-adv-x="548" 
d="M414 0h-279v1733h279v-1733zM412 -143l-252 -392l-148 17l166 395z" />
    <glyph glyph-name="Lcaron" unicode="&#x13d;" horiz-adv-x="983" 
d="M973 1530l-260 -414l-158 17l168 417zM479 262h475v-262h-776v1544h301v-1282z" />
    <glyph glyph-name="lcaron" unicode="&#x13e;" horiz-adv-x="909" 
d="M893 1722l-252 -407l-147 16l165 412zM414 0h-279v1733h279v-1733z" />
    <glyph glyph-name="Ldot" unicode="&#x13f;" horiz-adv-x="983" 
d="M479 262h475v-262h-776v1544h301v-1282zM819 872q89 0 151 -61t62 -149t-61.5 -150.5t-149.5 -62.5t-150.5 63t-62.5 152q0 86 62 147t149 61z" />
    <glyph glyph-name="ldot" unicode="&#x140;" horiz-adv-x="974" 
d="M414 0h-279v1733h279v-1733zM760 872q88 0 150.5 -61.5t62.5 -148.5q0 -88 -62.5 -150.5t-148.5 -62.5q-89 0 -151 63t-62 152q0 86 61.5 147t149.5 61z" />
    <glyph glyph-name="Lslash" unicode="&#x141;" horiz-adv-x="983" 
d="M475 1040l285 193v-266l-285 -189v-516h479v-262h-780v616l-164 -114v266l164 111v665h301v-504z" />
    <glyph glyph-name="lslash" unicode="&#x142;" horiz-adv-x="622" 
d="M449 1157l174 127v-258l-174 -121v-905h-281v776l-168 -121v256l168 115v707h281v-576z" />
    <glyph glyph-name="Nacute" unicode="&#x143;" horiz-adv-x="1802" 
d="M850 1686l-125 112l319 307l191 -157zM178 1579h209l938 -1075v1040h301v-1575h-207l-940 1075v-1044h-301v1579z" />
    <glyph glyph-name="nacute" unicode="&#x144;" horiz-adv-x="1232" 
d="M604 1178l-135 92l276 350l203 -129zM414 1001v-124q65 85 138 121t177 36q90 0 166 -31.5t125 -89.5q44 -49 62 -111.5t18 -164.5v-637h-281v555q0 66 -5.5 101.5t-22.5 60.5q-20 37 -64.5 58.5t-99.5 21.5q-108 0 -160.5 -68.5t-52.5 -210.5v-518h-279v1001h279z" />
    <glyph glyph-name="uni0145" unicode="&#x145;" horiz-adv-x="1802" 
d="M178 1579h209l938 -1075v1040h301v-1575h-207l-940 1075v-1044h-301v1579zM1081 -143l-262 -414l-155 16l167 418z" />
    <glyph glyph-name="uni0146" unicode="&#x146;" horiz-adv-x="1232" 
d="M414 1001v-124q65 85 138 121t177 36q90 0 166 -31.5t125 -89.5q44 -49 62 -111.5t18 -164.5v-637h-281v555q0 66 -5.5 101.5t-22.5 60.5q-20 37 -64.5 58.5t-99.5 21.5q-108 0 -160.5 -68.5t-52.5 -210.5v-518h-279v1001h279zM770 -143l-252 -392l-147 17l166 395z" />
    <glyph glyph-name="Ncaron" unicode="&#x147;" horiz-adv-x="1802" 
d="M647 2142l254 -205l252 205l145 -135l-397 -321l-391 321zM178 1579h209l938 -1075v1040h301v-1575h-207l-940 1075v-1044h-301v1579z" />
    <glyph glyph-name="ncaron" unicode="&#x148;" horiz-adv-x="1232" 
d="M377 1636l252 -211l256 211l143 -137l-399 -321l-391 321zM414 1001v-124q65 85 138 121t177 36q90 0 166 -31.5t125 -89.5q44 -49 62 -111.5t18 -164.5v-637h-281v555q0 66 -5.5 101.5t-22.5 60.5q-20 37 -64.5 58.5t-99.5 21.5q-108 0 -160.5 -68.5t-52.5 -210.5v-518
h-279v1001h279z" />
    <glyph glyph-name="napostrophe" unicode="&#x149;" horiz-adv-x="1546" 
d="M582 1544l-328 -616l-178 22l248 623zM725 1001v-124q65 85 138 121t177 36q90 0 166 -31.5t127 -89.5q43 -49 60.5 -112t17.5 -164v-637h-278v555q0 111 -29 162q-22 37 -65.5 58.5t-98.5 21.5q-109 0 -162 -68.5t-53 -210.5v-518h-281v1001h281z" />
    <glyph glyph-name="Eng" unicode="&#x14a;" horiz-adv-x="1607" 
d="M479 1544v-192q91 122 191 174.5t241 52.5q126 0 232.5 -47t177.5 -133q62 -77 86.5 -170t24.5 -250v-645q0 -165 -25.5 -264.5t-91.5 -182.5q-152 -196 -391 -196q-59 0 -105.5 11t-113.5 42v274q76 -33 120.5 -45t89.5 -12q60 0 111 30t74 79q33 76 33 235v627
q0 98 -10.5 154t-35.5 96q-35 57 -106 89t-160 32q-94 0 -167.5 -36.5t-114.5 -103.5q-33 -53 -46.5 -117t-13.5 -169v-877h-301v1544h301z" />
    <glyph glyph-name="eng" unicode="&#x14b;" horiz-adv-x="1232" 
d="M414 1001v-124q66 84 139.5 120.5t175.5 36.5q90 0 166 -31.5t125 -89.5q44 -49 62 -111.5t18 -164.5v-510q0 -109 -21 -177t-71 -126q-58 -63 -135.5 -97t-161.5 -34q-76 0 -148 33v256q75 -37 127 -37q36 0 66.5 18.5t42.5 50.5q20 44 20 154v387q0 66 -5.5 101.5
t-22.5 60.5q-19 36 -63.5 58t-98.5 22q-215 0 -215 -279v-518h-279v1001h279z" />
    <glyph glyph-name="Omacron" unicode="&#x14c;" horiz-adv-x="1849" 
d="M1311 1927v-184h-772v184h772zM928 1579q170 0 322.5 -63t261.5 -170.5t173 -257.5t64 -318t-64.5 -317.5t-175.5 -256t-265.5 -169t-328.5 -62.5q-171 0 -322.5 63t-259.5 171.5t-170.5 260t-62.5 322.5q0 162 65.5 309.5t176 254.5t264 170t322.5 63zM924 1303
q-138 0 -256.5 -71t-188 -192t-69.5 -262q0 -224 150.5 -380t365.5 -156q139 0 257.5 71t187.5 193t69 266q0 109 -40.5 207t-109.5 169t-164.5 113t-201.5 42z" />
    <glyph glyph-name="omacron" unicode="&#x14d;" horiz-adv-x="1306" 
d="M1026 1460v-184h-741v184h741zM657 1034q252 0 411 -148t159 -384q0 -238 -161 -386.5t-419 -148.5q-251 0 -408 151t-157 392q0 229 161.5 376.5t413.5 147.5zM653 782q-116 0 -199 -82t-83 -196q0 -120 82 -202.5t202 -82.5q116 0 199.5 82.5t83.5 198.5
q0 118 -83.5 200t-201.5 82z" />
    <glyph glyph-name="Obreve" unicode="&#x14e;" horiz-adv-x="1849" 
d="M737 2017q26 -76 71 -110.5t116 -34.5q72 0 115 34t71 111h195q-19 -149 -121 -236t-260 -87q-157 0 -258.5 87t-120.5 236h192zM928 1579q170 0 322.5 -63t261.5 -170.5t173 -257.5t64 -318t-64.5 -317.5t-175.5 -256t-265.5 -169t-328.5 -62.5q-171 0 -322.5 63
t-259.5 171.5t-170.5 260t-62.5 322.5q0 162 65.5 309.5t176 254.5t264 170t322.5 63zM924 1303q-138 0 -256.5 -71t-188 -192t-69.5 -262q0 -224 150.5 -380t365.5 -156q139 0 257.5 71t187.5 193t69 266q0 109 -40.5 207t-109.5 169t-164.5 113t-201.5 42z" />
    <glyph glyph-name="obreve" unicode="&#x14f;" horiz-adv-x="1306" 
d="M467 1503q28 -77 71.5 -111t116.5 -34q71 0 115 34.5t70 110.5h194q-19 -150 -121 -237.5t-258 -87.5q-158 0 -260.5 87t-122.5 238h195zM657 1034q252 0 411 -148t159 -384q0 -238 -161 -386.5t-419 -148.5q-251 0 -408 151t-157 392q0 229 161.5 376.5t413.5 147.5z
M653 782q-116 0 -199 -82t-83 -196q0 -120 82 -202.5t202 -82.5q116 0 199.5 82.5t83.5 198.5q0 118 -83.5 200t-201.5 82z" />
    <glyph glyph-name="Ohungarumlaut" unicode="&#x150;" horiz-adv-x="1849" 
d="M692 1686l-100 108l293 309l170 -155zM1139 1686l-101 108l293 309l170 -155zM928 1579q170 0 322.5 -63t261.5 -170.5t173 -257.5t64 -318t-64.5 -317.5t-175.5 -256t-265.5 -169t-328.5 -62.5q-171 0 -322.5 63t-259.5 171.5t-170.5 260t-62.5 322.5q0 162 65.5 309.5
t176 254.5t264 170t322.5 63zM924 1303q-138 0 -256.5 -71t-188 -192t-69.5 -262q0 -224 150.5 -380t365.5 -156q139 0 257.5 71t187.5 193t69 266q0 109 -40.5 207t-109.5 169t-164.5 113t-201.5 42z" />
    <glyph glyph-name="ohungarumlaut" unicode="&#x151;" horiz-adv-x="1306" 
d="M457 1178l-115 92l233 350l191 -129zM889 1178l-113 92l232 350l188 -129zM657 1034q252 0 411 -148t159 -384q0 -238 -161 -386.5t-419 -148.5q-251 0 -408 151t-157 392q0 229 161.5 376.5t413.5 147.5zM653 782q-116 0 -199 -82t-83 -196q0 -120 82 -202.5t202 -82.5
q116 0 199.5 82.5t83.5 198.5q0 118 -83.5 200t-201.5 82z" />
    <glyph glyph-name="OE" unicode="&#x152;" horiz-adv-x="2400" 
d="M1745 1282v-344h518v-262h-518v-414h541v-262h-838v209q-112 -127 -241.5 -185.5t-295.5 -58.5q-167 0 -317.5 63t-258.5 170.5t-171.5 256.5t-63.5 313q0 221 108 407.5t293 295t404 108.5q100 0 203.5 -28t183.5 -76q76 -51 156 -140v209h838v-262h-541zM903 1303
q-134 0 -247.5 -71t-179.5 -192t-66 -262q0 -150 64.5 -273t178 -193t252.5 -70q142 0 260 69.5t186 191t68 267.5q0 144 -69.5 267t-188.5 194.5t-258 71.5z" />
    <glyph glyph-name="oe" unicode="&#x153;" horiz-adv-x="2045" 
d="M1204 457q7 -127 75.5 -200t178.5 -73q153 0 234 140l260 -43q-61 -154 -188.5 -234t-309.5 -80q-255 0 -397 195q-95 -107 -189.5 -151t-232.5 -44q-239 0 -396 150.5t-157 380.5q0 232 158 384t399 152q257 0 418 -182q71 94 165 138t226 44q185 0 313 -88t174 -246
q29 -101 29 -243h-760zM1694 635q-52 199 -238 199q-189 0 -244 -199h482zM643 780q-113 0 -191.5 -79.5t-78.5 -194.5q0 -121 78 -204t192 -83q117 0 194.5 81.5t77.5 203.5q0 117 -77.5 196.5t-194.5 79.5z" />
    <glyph glyph-name="Racute" unicode="&#x154;" horiz-adv-x="1331" 
d="M573 1686l-122 112l317 307l193 -157zM1305 0h-369l-418 621h-39v-621h-301v1544h447q264 0 393 -108q72 -60 112.5 -153t40.5 -196q0 -104 -37 -193.5t-102 -145.5q-84 -73 -213 -97zM567 834q143 0 218 60t75 175q0 231 -289 231h-92v-466h88z" />
    <glyph glyph-name="racute" unicode="&#x155;" horiz-adv-x="833" 
d="M432 1178l-131 92l274 350l205 -129zM414 1001v-151q104 184 293 184q61 0 122 -24l-41 -262q-37 21 -63.5 27.5t-69.5 6.5q-116 0 -178 -71q-35 -39 -49 -91.5t-14 -138.5v-481h-279v1001h279z" />
    <glyph glyph-name="uni0156" unicode="&#x156;" horiz-adv-x="1331" 
d="M1305 0h-369l-418 621h-39v-621h-301v1544h447q264 0 393 -108q72 -60 112.5 -153t40.5 -196q0 -104 -37 -193.5t-102 -145.5q-84 -73 -213 -97zM567 834q143 0 218 60t75 175q0 231 -289 231h-92v-466h88zM842 -143l-260 -414l-156 16l166 418z" />
    <glyph glyph-name="uni0157" unicode="&#x157;" horiz-adv-x="833" 
d="M414 1001v-151q104 184 293 184q61 0 122 -24l-41 -262q-37 21 -63.5 27.5t-69.5 6.5q-116 0 -178 -71q-35 -39 -49 -91.5t-14 -138.5v-481h-279v1001h279zM461 -143l-252 -392l-150 17l168 395z" />
    <glyph glyph-name="Rcaron" unicode="&#x158;" horiz-adv-x="1331" 
d="M358 2142l252 -205l252 205l146 -135l-400 -321l-391 321zM1305 0h-369l-418 621h-39v-621h-301v1544h447q264 0 393 -108q72 -60 112.5 -153t40.5 -196q0 -104 -37 -193.5t-102 -145.5q-84 -73 -213 -97zM567 834q143 0 218 60t75 175q0 231 -289 231h-92v-466h88z" />
    <glyph glyph-name="rcaron" unicode="&#x159;" horiz-adv-x="833" 
d="M199 1636l252 -211l256 211l143 -137l-399 -321l-392 321zM414 1001v-151q104 184 293 184q61 0 122 -24l-41 -262q-37 21 -63.5 27.5t-69.5 6.5q-116 0 -178 -71q-35 -39 -49 -91.5t-14 -138.5v-481h-279v1001h279z" />
    <glyph glyph-name="Sacute" unicode="&#x15a;" horiz-adv-x="1230" 
d="M602 1686l-125 112l320 307l192 -157zM932 1192q-60 67 -118 96t-132 29q-92 0 -154.5 -50t-62.5 -122q0 -62 49 -103t184 -92q130 -47 194 -78.5t116 -74.5q135 -117 135 -324q0 -228 -148.5 -369t-388.5 -141q-169 0 -297.5 71t-232.5 222l194 188q53 -98 137 -152
t187 -54q105 0 172.5 61.5t67.5 157.5q0 93 -84 153q-53 34 -215 95q-209 75 -294 168t-85 247q0 194 136 321.5t345 127.5q259 0 453 -170z" />
    <glyph glyph-name="sacute" unicode="&#x15b;" horiz-adv-x="937" 
d="M485 1178l-133 92l275 350l204 -129zM682 768q-85 68 -166 68q-47 0 -77.5 -24.5t-30.5 -61.5q0 -34 31.5 -56.5t127.5 -54.5q85 -29 122.5 -46.5t72.5 -43.5q110 -76 110 -223q0 -158 -117.5 -258.5t-303.5 -100.5q-108 0 -207.5 44t-171.5 124l145 170
q120 -117 240 -117q54 0 90.5 32t36.5 79q0 42 -30 65.5t-126 59.5q-94 34 -126 48.5t-66 39.5q-99 66 -99 207t100.5 230t258.5 89q184 0 325 -106z" />
    <glyph glyph-name="Scircumflex" unicode="&#x15c;" horiz-adv-x="1230" 
d="M643 2142l397 -319l-143 -137l-252 206l-252 -206l-141 137zM932 1192q-60 67 -118 96t-132 29q-92 0 -154.5 -50t-62.5 -122q0 -62 49 -103t184 -92q130 -47 194 -78.5t116 -74.5q135 -117 135 -324q0 -228 -148.5 -369t-388.5 -141q-169 0 -297.5 71t-232.5 222
l194 188q53 -98 137 -152t187 -54q105 0 172.5 61.5t67.5 157.5q0 93 -84 153q-53 34 -215 95q-209 75 -294 168t-85 247q0 194 136 321.5t345 127.5q259 0 453 -170z" />
    <glyph glyph-name="scircumflex" unicode="&#x15d;" horiz-adv-x="937" 
d="M496 1636l397 -319l-143 -139l-252 213l-252 -213l-142 139zM682 768q-85 68 -166 68q-47 0 -77.5 -24.5t-30.5 -61.5q0 -34 31.5 -56.5t127.5 -54.5q85 -29 122.5 -46.5t72.5 -43.5q110 -76 110 -223q0 -158 -117.5 -258.5t-303.5 -100.5q-108 0 -207.5 44t-171.5 124
l145 170q120 -117 240 -117q54 0 90.5 32t36.5 79q0 42 -30 65.5t-126 59.5q-94 34 -126 48.5t-66 39.5q-99 66 -99 207t100.5 230t258.5 89q184 0 325 -106z" />
    <glyph glyph-name="Scedilla" unicode="&#x15e;" horiz-adv-x="1230" 
d="M932 1192q-60 67 -118 96t-132 29q-92 0 -154.5 -50t-62.5 -122q0 -62 49 -103t184 -92q130 -47 194 -78.5t116 -74.5q135 -117 135 -324q0 -228 -148.5 -369t-388.5 -141q-169 0 -297.5 71t-232.5 222l194 188q53 -98 137 -152t187 -54q105 0 172.5 61.5t67.5 157.5
q0 93 -84 153q-53 34 -215 95q-209 75 -294 168t-85 247q0 194 136 321.5t345 127.5q259 0 453 -170zM473 -512l-147 92l231 324l197 -119z" />
    <glyph glyph-name="scedilla" unicode="&#x15f;" horiz-adv-x="937" 
d="M682 768q-85 68 -166 68q-47 0 -77.5 -24.5t-30.5 -61.5q0 -34 31.5 -56.5t127.5 -54.5q85 -29 122.5 -46.5t72.5 -43.5q110 -76 110 -223q0 -158 -117.5 -258.5t-303.5 -100.5q-108 0 -207.5 44t-171.5 124l145 170q120 -117 240 -117q54 0 90.5 32t36.5 79
q0 42 -30 65.5t-126 59.5q-94 34 -126 48.5t-66 39.5q-99 66 -99 207t100.5 230t258.5 89q184 0 325 -106zM328 -494l-140 82l226 308l180 -99z" />
    <glyph glyph-name="Scaron" unicode="&#x160;" horiz-adv-x="1230" 
d="M393 2142l252 -205l252 205l143 -135l-397 -321l-391 321zM932 1192q-60 67 -118 96t-132 29q-92 0 -154.5 -50t-62.5 -122q0 -62 49 -103t184 -92q130 -47 194 -78.5t116 -74.5q135 -117 135 -324q0 -228 -148.5 -369t-388.5 -141q-169 0 -297.5 71t-232.5 222l194 188
q53 -98 137 -152t187 -54q105 0 172.5 61.5t67.5 157.5q0 93 -84 153q-53 34 -215 95q-209 75 -294 168t-85 247q0 194 136 321.5t345 127.5q259 0 453 -170z" />
    <glyph glyph-name="scaron" unicode="&#x161;" horiz-adv-x="937" 
d="M246 1636l252 -211l252 211l143 -137l-397 -321l-392 321zM682 768q-85 68 -166 68q-47 0 -77.5 -24.5t-30.5 -61.5q0 -34 31.5 -56.5t127.5 -54.5q85 -29 122.5 -46.5t72.5 -43.5q110 -76 110 -223q0 -158 -117.5 -258.5t-303.5 -100.5q-108 0 -207.5 44t-171.5 124
l145 170q120 -117 240 -117q54 0 90.5 32t36.5 79q0 42 -30 65.5t-126 59.5q-94 34 -126 48.5t-66 39.5q-99 66 -99 207t100.5 230t258.5 89q184 0 325 -106z" />
    <glyph glyph-name="uni0162" unicode="&#x162;" horiz-adv-x="1026" 
d="M360 0v1282h-344v262h994v-262h-348v-1282h-302zM659 -143l-262 -414l-153 16l166 418z" />
    <glyph glyph-name="uni0163" unicode="&#x163;" horiz-adv-x="727" 
d="M676 250v-244q-63 -31 -184 -31q-157 0 -232 66q-84 76 -84 248v471h-117v241h117v345h279v-345h235v-241h-235v-426q0 -72 26 -98.5t86 -26.5q65 0 109 41zM530 -143l-251 -392l-150 17l168 395z" />
    <glyph glyph-name="Tcaron" unicode="&#x164;" horiz-adv-x="1026" 
d="M256 2142l254 -205l254 205l143 -135l-397 -321l-391 321zM360 0v1282h-344v262h994v-262h-348v-1282h-302z" />
    <glyph glyph-name="tcaron" unicode="&#x165;" horiz-adv-x="948" 
d="M936 1507l-252 -407l-147 16l165 412zM676 250v-244q-63 -31 -184 -31q-157 0 -232 66q-84 76 -84 248v471h-117v241h117v345h279v-345h235v-241h-235v-426q0 -72 26 -98.5t86 -26.5q65 0 109 41z" />
    <glyph glyph-name="Tbar" unicode="&#x166;" horiz-adv-x="1026" 
d="M961 858h-299v-858h-302v858h-294v232h294v192h-344v262h994v-262h-348v-192h299v-232z" />
    <glyph glyph-name="tbar" unicode="&#x167;" horiz-adv-x="727" 
d="M690 760h-235v-150h217v-190h-217v-86q0 -72 26 -98.5t86 -26.5q65 0 109 41v-244q-63 -31 -184 -31q-157 0 -232 66q-84 76 -84 248v131h-113v190h113v150h-117v241h117v345h279v-345h235v-241z" />
    <glyph glyph-name="Utilde" unicode="&#x168;" horiz-adv-x="1595" 
d="M379 1716q20 136 86.5 214.5t161.5 78.5q69 0 186 -47q86 -31 103.5 -36t41.5 -5q33 0 53 17t46 69h160q-26 -139 -98 -217t-175 -78q-30 0 -62 9t-98 36q-117 43 -155 43q-32 0 -53.5 -19t-38.5 -65h-158zM479 659q0 -120 9.5 -172.5t39.5 -101.5q38 -66 110.5 -104.5
t160.5 -38.5q86 0 159 38.5t111 104.5q30 50 39.5 103.5t9.5 170.5v885h301v-944q0 -267 -114 -412q-80 -104 -214 -163.5t-292 -59.5t-293 59.5t-215 163.5q-113 148 -113 412v944h301v-885z" />
    <glyph glyph-name="utilde" unicode="&#x169;" horiz-adv-x="1239" 
d="M215 1210q19 133 86 211t162 78q68 0 184 -45q77 -30 100 -36.5t46 -6.5q34 0 54 17t48 69h160q-28 -137 -100 -214t-173 -77q-35 0 -66 8t-95 35q-114 43 -156 43q-30 0 -51.5 -19.5t-40.5 -62.5h-158zM823 0v127q-65 -85 -141 -122.5t-180 -37.5q-187 0 -281 105
q-86 103 -86 295v634h279v-555q0 -106 30 -159q22 -37 67.5 -58.5t100.5 -21.5q112 0 161.5 71t49.5 232v491h281v-1001h-281z" />
    <glyph glyph-name="Umacron" unicode="&#x16a;" horiz-adv-x="1595" 
d="M1186 1927v-184h-774v184h774zM479 659q0 -120 9.5 -172.5t39.5 -101.5q38 -66 110.5 -104.5t160.5 -38.5q86 0 159 38.5t111 104.5q30 50 39.5 103.5t9.5 170.5v885h301v-944q0 -267 -114 -412q-80 -104 -214 -163.5t-292 -59.5t-293 59.5t-215 163.5q-113 148 -113 412
v944h301v-885z" />
    <glyph glyph-name="umacron" unicode="&#x16b;" horiz-adv-x="1239" 
d="M987 1460v-184h-739v184h739zM823 0v127q-65 -85 -141 -122.5t-180 -37.5q-187 0 -281 105q-86 103 -86 295v634h279v-555q0 -106 30 -159q22 -37 67.5 -58.5t100.5 -21.5q112 0 161.5 71t49.5 232v491h281v-1001h-281z" />
    <glyph glyph-name="Ubreve" unicode="&#x16c;" horiz-adv-x="1595" 
d="M612 2017q26 -77 70 -111t117 -34q72 0 115 34t71 111h193q-17 -149 -119.5 -236t-259.5 -87t-259.5 87t-119.5 236h192zM479 659q0 -120 9.5 -172.5t39.5 -101.5q38 -66 110.5 -104.5t160.5 -38.5q86 0 159 38.5t111 104.5q30 50 39.5 103.5t9.5 170.5v885h301v-944
q0 -267 -114 -412q-80 -104 -214 -163.5t-292 -59.5t-293 59.5t-215 163.5q-113 148 -113 412v944h301v-885z" />
    <glyph glyph-name="ubreve" unicode="&#x16d;" horiz-adv-x="1239" 
d="M432 1503q26 -77 69.5 -111t116.5 -34q72 0 115.5 34t71.5 111h194q-19 -150 -121.5 -237.5t-259.5 -87.5t-258.5 87t-121.5 238h194zM823 0v127q-65 -85 -141 -122.5t-180 -37.5q-187 0 -281 105q-86 103 -86 295v634h279v-555q0 -106 30 -159q22 -37 67.5 -58.5
t100.5 -21.5q112 0 161.5 71t49.5 232v491h281v-1001h-281z" />
    <glyph glyph-name="Uring" unicode="&#x16e;" horiz-adv-x="1595" 
d="M799 2132q92 0 155.5 -63.5t63.5 -153.5q0 -92 -63.5 -156.5t-155.5 -64.5t-155.5 64.5t-63.5 158.5q0 88 64.5 151.5t154.5 63.5zM799 1999q-36 0 -62 -25t-26 -59q0 -37 25.5 -62.5t62.5 -25.5t62.5 25.5t25.5 62.5q0 34 -26 59t-62 25zM479 659q0 -120 9.5 -172.5
t39.5 -101.5q38 -66 110.5 -104.5t160.5 -38.5q86 0 159 38.5t111 104.5q30 50 39.5 103.5t9.5 170.5v885h301v-944q0 -267 -114 -412q-80 -104 -214 -163.5t-292 -59.5t-293 59.5t-215 163.5q-113 148 -113 412v944h301v-885z" />
    <glyph glyph-name="uring" unicode="&#x16f;" horiz-adv-x="1239" 
d="M616 1604q88 0 149.5 -62t61.5 -151t-61.5 -151t-149.5 -62q-89 0 -151 62t-62 153q0 88 62.5 149.5t150.5 61.5zM616 1473q-34 0 -57.5 -24t-23.5 -58q0 -33 23.5 -56.5t57.5 -23.5q32 0 56 24t24 56q0 35 -23 58.5t-57 23.5zM823 0v127q-65 -85 -141 -122.5t-180 -37.5
q-187 0 -281 105q-86 103 -86 295v634h279v-555q0 -106 30 -159q22 -37 67.5 -58.5t100.5 -21.5q112 0 161.5 71t49.5 232v491h281v-1001h-281z" />
    <glyph glyph-name="Uhungarumlaut" unicode="&#x170;" horiz-adv-x="1595" 
d="M545 1686l-101 108l289 309l174 -155zM991 1686l-100 108l291 309l172 -155zM479 659q0 -120 9.5 -172.5t39.5 -101.5q38 -66 110.5 -104.5t160.5 -38.5q86 0 159 38.5t111 104.5q30 50 39.5 103.5t9.5 170.5v885h301v-944q0 -267 -114 -412q-80 -104 -214 -163.5
t-292 -59.5t-293 59.5t-215 163.5q-113 148 -113 412v944h301v-885z" />
    <glyph glyph-name="uhungarumlaut" unicode="&#x171;" horiz-adv-x="1239" 
d="M410 1178l-113 92l233 350l189 -129zM842 1178l-113 92l232 350l190 -129zM823 0v127q-65 -85 -141 -122.5t-180 -37.5q-187 0 -281 105q-86 103 -86 295v634h279v-555q0 -106 30 -159q22 -37 67.5 -58.5t100.5 -21.5q112 0 161.5 71t49.5 232v491h281v-1001h-281z" />
    <glyph glyph-name="Uogonek" unicode="&#x172;" horiz-adv-x="1595" 
d="M479 1544v-885q0 -120 9.5 -172.5t39.5 -101.5q38 -66 110.5 -104.5t160.5 -38.5q86 0 159 38.5t111 104.5q30 50 39.5 103.5t9.5 170.5v885h301v-944q-2 -188 -47.5 -299.5t-157.5 -200.5q-83 -74 -121 -131.5t-38 -111.5q0 -39 28 -66t68 -27q56 0 129 43l-39 -180
q-70 -37 -160 -37q-101 0 -167 54.5t-66 136.5q0 116 106 199q-85 -15 -149 -15q-162 0 -298 59t-216 164q-113 148 -113 412v944h301z" />
    <glyph glyph-name="uogonek" unicode="&#x173;" horiz-adv-x="1239" 
d="M989 -428q-86 0 -145.5 51t-59.5 125q0 43 18 88.5t48 77.5q33 38 119 86h-146v127q-65 -85 -141 -122.5t-180 -37.5q-187 0 -281 105q-86 103 -86 295v634h279v-555q0 -106 30 -159q22 -37 67.5 -58.5t100.5 -21.5q112 0 161.5 71t49.5 232v491h281v-1001
q-6 -3 -17 -10.5t-14 -9.5q-63 -43 -87.5 -76t-24.5 -76q0 -40 28 -66t72 -26q43 0 110 31l-34 -156q-67 -39 -148 -39z" />
    <glyph glyph-name="Wcircumflex" unicode="&#x174;" horiz-adv-x="2258" 
d="M1124 2142l400 -319l-146 -137l-254 206l-252 -206l-139 137zM666 494l378 1062h164l359 -1062l370 1050h318l-582 -1575h-211l-342 1010l-360 -1010h-211l-547 1575h317z" />
    <glyph glyph-name="wcircumflex" unicode="&#x175;" horiz-adv-x="1832" 
d="M911 1636l400 -319l-144 -139l-256 213l-252 -213l-139 139zM582 424l272 606h121l272 -616l269 587h313l-518 -1021h-129l-271 608l-266 -608h-129l-514 1021h315z" />
    <glyph glyph-name="Ycircumflex" unicode="&#x176;" horiz-adv-x="1349" 
d="M674 2142l395 -319l-143 -137l-252 206l-252 -206l-141 137zM-12 1544h356l332 -536l328 536h360l-543 -835v-709h-301v709z" />
    <glyph glyph-name="ycircumflex" unicode="&#x177;" horiz-adv-x="1239" 
d="M616 1636l398 -319l-144 -139l-254 213l-254 -213l-137 139zM2 1001h326l301 -569l284 569h322l-809 -1536h-317l368 689z" />
    <glyph glyph-name="Ydieresis" unicode="&#x178;" horiz-adv-x="1349" 
d="M432 2044q70 0 119 -48t49 -116q0 -70 -50 -119t-118 -49q-69 0 -117.5 49t-48.5 119q0 68 48.5 116t117.5 48zM920 2044q69 0 117 -48t48 -116q0 -70 -48.5 -119t-116.5 -49q-70 0 -119 49t-49 119q0 68 49 116t119 48zM-12 1544h356l332 -536l328 536h360l-543 -835
v-709h-301v709z" />
    <glyph glyph-name="Zacute" unicode="&#x179;" horiz-adv-x="1351" 
d="M680 1686l-123 112l317 307l193 -157zM1260 262v-262h-1211l754 1282h-637v262h1132l-751 -1282h713z" />
    <glyph glyph-name="zacute" unicode="&#x17a;" horiz-adv-x="1122" 
d="M580 1178l-136 92l275 350l207 -129zM1055 244v-244h-1024l569 764h-481v244h973l-566 -764h529z" />
    <glyph glyph-name="Zdotaccent" unicode="&#x17b;" horiz-adv-x="1351" 
d="M735 2044q73 0 124.5 -51t51.5 -123q0 -71 -51.5 -122.5t-124.5 -51.5q-72 0 -122 52t-50 124q0 69 51 120.5t121 51.5zM1260 262v-262h-1211l754 1282h-637v262h1132l-751 -1282h713z" />
    <glyph glyph-name="zdotaccent" unicode="&#x17c;" horiz-adv-x="1122" 
d="M602 1538q71 0 122.5 -51t51.5 -121q0 -73 -51.5 -124.5t-122.5 -51.5q-74 0 -125 51.5t-51 126.5q0 69 51.5 119.5t124.5 50.5zM1055 244v-244h-1024l569 764h-481v244h973l-566 -764h529z" />
    <glyph glyph-name="Zcaron" unicode="&#x17d;" horiz-adv-x="1351" 
d="M465 2142l252 -205l252 205l147 -135l-399 -321l-391 321zM1260 262v-262h-1211l754 1282h-637v262h1132l-751 -1282h713z" />
    <glyph glyph-name="zcaron" unicode="&#x17e;" horiz-adv-x="1122" 
d="M344 1636l254 -211l254 211l143 -137l-397 -321l-391 321zM1055 244v-244h-1024l569 764h-481v244h973l-566 -764h529z" />
    <glyph glyph-name="longs" unicode="&#x17f;" horiz-adv-x="677" 
d="M143 0v760h-108v241h108v322q0 112 21 180t72 127q59 62 136 96.5t160 34.5q77 0 148 -35v-253q-79 36 -127 36q-37 0 -67 -19.5t-42 -51.5q-20 -44 -20 -156v-1282h-281z" />
    <glyph glyph-name="uni018F" unicode="&#x18f;" horiz-adv-x="1847" 
d="M1440 840q-31 207 -173.5 336t-340.5 129q-309 0 -463 -295l-266 147q95 192 294.5 308t434.5 116q169 0 321.5 -63.5t262 -172t173.5 -259t64 -318.5q0 -167 -64 -317t-174 -258t-262.5 -171t-322.5 -63q-135 0 -261.5 39.5t-227.5 112.5t-177 170.5t-117 219t-41 251.5
q0 45 4 88h1336zM434 606q42 -122 105 -196q67 -81 171.5 -129t213.5 -48q108 0 214.5 48.5t172.5 126.5q62 77 98 198h-975z" />
    <glyph glyph-name="florin" unicode="&#x192;" 
d="M1083 1030l-26 -147h-244l-113 -619q-34 -197 -79 -306t-121 -179q-122 -119 -385 -119q-35 0 -117 6l45 260l82 -4q94 0 147.5 32.5t88.5 113t63 237.5l102 578h-137l21 147h143l47 258q70 410 430 410q60 0 100 -8.5t93 -32.5l-45 -250q-69 35 -131 35q-70 0 -109 -49
t-64 -168l-36 -195h245z" />
    <glyph glyph-name="Ohorn" unicode="&#x1a0;" horiz-adv-x="1849" 
d="M1591 1645l250 -21l-242 -385q150 -213 150 -469q0 -166 -64.5 -315.5t-174 -256.5t-262.5 -170t-324 -63t-324 62.5t-262.5 169.5t-173.5 256t-64 315q0 168 64.5 318.5t174.5 258.5t263 171t324 63q159 0 303.5 -54.5t253.5 -154.5zM924 1303q-138 0 -256.5 -71
t-188 -192t-69.5 -262q0 -224 150.5 -380t365.5 -156q139 0 257.5 71t187.5 193t69 266q0 109 -40.5 207t-109.5 169t-164.5 113t-201.5 42z" />
    <glyph glyph-name="ohorn" unicode="&#x1a1;" horiz-adv-x="1306" 
d="M1161 1145l234 -21l-228 -370q60 -108 60 -252q0 -235 -160 -385t-412 -150q-255 0 -414 148.5t-159 384.5t159.5 385t411.5 149q121 0 228.5 -37.5t179.5 -103.5zM653 782q-116 0 -199 -82t-83 -196q0 -120 82 -202.5t202 -82.5q116 0 199.5 82.5t83.5 198.5
q0 118 -83.5 200t-201.5 82z" />
    <glyph glyph-name="Uhorn" unicode="&#x1af;" horiz-adv-x="1595" 
d="M1905 1636l-260 -413l-154 16l164 418zM479 659q0 -120 9.5 -172.5t39.5 -101.5q38 -66 110.5 -104.5t160.5 -38.5q86 0 159 38.5t111 104.5q30 50 39.5 103.5t9.5 170.5v885h301v-944q0 -267 -114 -412q-80 -104 -214 -163.5t-292 -59.5t-293 59.5t-215 163.5
q-113 148 -113 412v944h301v-885z" />
    <glyph glyph-name="uhorn" unicode="&#x1b0;" horiz-adv-x="1239" 
d="M1524 1071l-256 -407l-146 14l164 414zM823 0v127q-65 -85 -141 -122.5t-180 -37.5q-187 0 -281 105q-86 103 -86 295v634h279v-555q0 -106 30 -159q22 -37 67.5 -58.5t100.5 -21.5q112 0 161.5 71t49.5 232v491h281v-1001h-281z" />
    <glyph glyph-name="uni01C4" unicode="&#x1c4;" horiz-adv-x="2899" 
d="M2015 2142l252 -205l256 205l143 -135l-399 -321l-391 321zM178 1544h443q336 0 553 -178q130 -105 202 -262.5t72 -331.5q0 -171 -73.5 -328.5t-205.5 -265.5q-112 -93 -243.5 -135.5t-307.5 -42.5h-440v1544zM2810 262v-262h-1211l754 1282h-637v262h1135l-752 -1282
h711zM559 262q146 0 244 29t170 94q77 69 121.5 173t44.5 214q0 112 -44.5 213.5t-121.5 171.5q-75 67 -171 96t-243 29h-80v-1020h80z" />
    <glyph glyph-name="uni01C5" unicode="&#x1c5;" horiz-adv-x="2670" 
d="M1892 1636l254 -211l254 211l144 -137l-398 -321l-391 321zM178 1544h443q336 0 553 -178q130 -105 202 -262.5t72 -331.5q0 -171 -73.5 -328.5t-205.5 -265.5q-112 -93 -243.5 -135.5t-307.5 -42.5h-440v1544zM559 262q146 0 244 29t170 94q77 69 121.5 173t44.5 214
q0 112 -44.5 213.5t-121.5 171.5q-75 67 -171 96t-243 29h-80v-1020h80zM2603 244v-244h-1022l569 764h-481v244h971l-563 -764h526z" />
    <glyph glyph-name="uni01C6" unicode="&#x1c6;" horiz-adv-x="2437" 
d="M1182 1733v-1733h-279v129q-67 -85 -146.5 -123.5t-183.5 -38.5q-212 0 -351.5 153t-139.5 382q0 111 38 210t102.5 169.5t155 111.5t191.5 41q102 0 181 -38.5t153 -123.5v861h279zM1661 1636l254 -211l252 211l145 -137l-397 -321l-395 321zM2372 244v-244h-1024
l569 764h-481v244h972l-567 -764h531zM653 782q-118 0 -200 -81.5t-82 -198.5q0 -118 82.5 -200.5t199.5 -82.5q114 0 196.5 82.5t82.5 196.5q0 120 -81 202t-198 82z" />
    <glyph glyph-name="uni01C7" unicode="&#x1c7;" horiz-adv-x="1886" 
d="M479 262h475v-262h-776v1544h301v-1282zM1833 502q0 -160 -32.5 -262t-104.5 -170q-55 -51 -131 -79t-158 -28q-202 0 -360 146l180 219q59 -86 149 -86q48 0 84 24t51 68q21 56 21 217v993h301v-1042z" />
    <glyph glyph-name="uni01C8" unicode="&#x1c8;" horiz-adv-x="1531" 
d="M1264 1595q69 0 118.5 -50t49.5 -120q0 -69 -49.5 -118.5t-118.5 -49.5q-70 0 -119 49.5t-49 120.5q0 68 49.5 118t118.5 50zM479 262h475v-262h-776v1544h301v-1282zM1040 -541q-95 0 -141 19v250q45 -25 98 -25q58 0 91.5 34t33.5 126v1138h281v-1091
q0 -150 -30 -230.5t-89 -130.5q-107 -90 -244 -90z" />
    <glyph glyph-name="uni01C9" unicode="&#x1c9;" horiz-adv-x="1101" 
d="M414 0h-279v1733h279v-1733zM834 1595q69 0 118 -50t49 -120q0 -69 -49 -118.5t-118 -49.5q-70 0 -119 49.5t-49 120.5q0 68 49.5 118t118.5 50zM610 -541q-95 0 -141 19v250q45 -25 98 -25q58 0 91.5 34t33.5 126v1138h281v-1091q0 -150 -30 -230.5t-89 -130.5
q-107 -90 -244 -90z" />
    <glyph glyph-name="uni01CA" unicode="&#x1ca;" horiz-adv-x="2705" 
d="M178 1579h209l938 -1075v1040h301v-1575h-207l-940 1075v-1044h-301v1579zM2529 502q0 -160 -32.5 -262t-104.5 -170q-55 -51 -131 -79t-158 -28q-202 0 -360 146l180 219q59 -86 150 -86q48 0 84 24t51 68q12 32 16 76t4 141v993h301v-1042z" />
    <glyph glyph-name="uni01CB" unicode="&#x1cb;" horiz-adv-x="2359" 
d="M2091 1595q69 0 118.5 -50t49.5 -120q0 -69 -49.5 -118.5t-118.5 -49.5q-70 0 -119 49.5t-49 120.5q0 68 49.5 118t118.5 50zM178 1579h209l938 -1075v1040h301v-1575h-207l-940 1075v-1044h-301v1579zM1868 -541q-96 0 -142 19v250q45 -25 99 -25q58 0 91.5 34t33.5 126
v1138h280v-1091q0 -150 -30 -230.5t-89 -130.5q-107 -90 -243 -90z" />
    <glyph glyph-name="uni01CC" unicode="&#x1cc;" horiz-adv-x="1777" 
d="M1509 1595q69 0 118.5 -50t49.5 -120q0 -69 -49.5 -118.5t-118.5 -49.5q-70 0 -119 49.5t-49 120.5q0 68 49.5 118t118.5 50zM414 1001v-124q65 85 138 121t177 36q90 0 166 -31.5t125 -89.5q44 -49 62 -111.5t18 -164.5v-637h-281v555q0 66 -5.5 101.5t-22.5 60.5
q-20 37 -64.5 58.5t-99.5 21.5q-108 0 -160.5 -68.5t-52.5 -210.5v-518h-279v1001h279zM1286 -541q-95 0 -141 19v250q45 -25 98 -25q58 0 91.5 34t33.5 126v1138h281v-1091q0 -150 -30 -230.5t-89 -130.5q-107 -90 -244 -90z" />
    <glyph glyph-name="uni01CD" unicode="&#x1cd;" horiz-adv-x="1550" 
d="M535 2142l251 -205l254 205l146 -135l-400 -321l-391 321zM461 326l-139 -326h-320l670 1577h225l649 -1577h-321l-133 326h-631zM782 1124l-225 -555h440z" />
    <glyph glyph-name="uni01CE" unicode="&#x1ce;" horiz-adv-x="1316" 
d="M420 1636l252 -211l254 211l143 -137l-397 -321l-391 321zM1182 1001v-1001h-279v129q-67 -85 -146.5 -123.5t-183.5 -38.5q-212 0 -351.5 153t-139.5 382q0 111 38 210t102.5 169.5t155 111.5t191.5 41q102 0 181 -38.5t153 -123.5v129h279zM653 782q-118 0 -200 -81.5
t-82 -198.5q0 -118 82.5 -200.5t199.5 -82.5q114 0 196.5 82.5t82.5 196.5q0 120 -81 202t-198 82z" />
    <glyph glyph-name="uni01CF" unicode="&#x1cf;" horiz-adv-x="655" 
d="M72 2142l252 -205l256 205l143 -135l-399 -321l-392 321zM479 0h-301v1544h301v-1544z" />
    <glyph glyph-name="uni01D0" unicode="&#x1d0;" horiz-adv-x="540" 
d="M16 1636l252 -211l254 211l144 -137l-398 -321l-391 321zM412 0h-281v1001h281v-1001z" />
    <glyph glyph-name="uni01D1" unicode="&#x1d1;" horiz-adv-x="1849" 
d="M670 2142l252 -205l254 205l143 -135l-397 -321l-392 321zM928 1579q170 0 322.5 -63t261.5 -170.5t173 -257.5t64 -318t-64.5 -317.5t-175.5 -256t-265.5 -169t-328.5 -62.5q-171 0 -322.5 63t-259.5 171.5t-170.5 260t-62.5 322.5q0 162 65.5 309.5t176 254.5t264 170
t322.5 63zM924 1303q-138 0 -256.5 -71t-188 -192t-69.5 -262q0 -224 150.5 -380t365.5 -156q139 0 257.5 71t187.5 193t69 266q0 109 -40.5 207t-109.5 169t-164.5 113t-201.5 42z" />
    <glyph glyph-name="uni01D2" unicode="&#x1d2;" horiz-adv-x="1306" 
d="M397 1636l254 -211l254 211l144 -137l-398 -321l-391 321zM657 1034q252 0 411 -148t159 -384q0 -238 -161 -386.5t-419 -148.5q-251 0 -408 151t-157 392q0 229 161.5 376.5t413.5 147.5zM653 782q-116 0 -199 -82t-83 -196q0 -120 82 -202.5t202 -82.5
q116 0 199.5 82.5t83.5 198.5q0 118 -83.5 200t-201.5 82z" />
    <glyph glyph-name="uni01D3" unicode="&#x1d3;" horiz-adv-x="1595" 
d="M545 2142l252 -205l252 205l145 -135l-397 -321l-391 321zM479 659q0 -120 9.5 -172.5t39.5 -101.5q38 -66 110.5 -104.5t160.5 -38.5q86 0 159 38.5t111 104.5q30 50 39.5 103.5t9.5 170.5v885h301v-944q0 -267 -114 -412q-80 -104 -214 -163.5t-292 -59.5t-293 59.5
t-215 163.5q-113 148 -113 412v944h301v-885z" />
    <glyph glyph-name="uni01D4" unicode="&#x1d4;" horiz-adv-x="1239" 
d="M362 1636l252 -211l256 211l144 -137l-400 -321l-391 321zM823 0v127q-65 -85 -141 -122.5t-180 -37.5q-187 0 -281 105q-86 103 -86 295v634h279v-555q0 -106 30 -159q22 -37 67.5 -58.5t100.5 -21.5q112 0 161.5 71t49.5 232v491h281v-1001h-281z" />
    <glyph glyph-name="uni01DD" unicode="&#x1dd;" horiz-adv-x="1245" 
d="M868 549q-3 96 -32 156q-29 58 -88 93.5t-127 35.5q-155 0 -236 -150l-281 23q60 151 196 236t316 85q243 0 397 -146t154 -376q0 -233 -153 -384t-391 -151q-181 0 -313.5 90t-194.5 254q-22 61 -29.5 106.5t-7.5 127.5h790zM373 391q17 -104 84.5 -165.5t163.5 -61.5
q97 0 164 62.5t77 164.5h-489z" />
    <glyph glyph-name="Gcaron" unicode="&#x1e6;" horiz-adv-x="1763" 
d="M657 2142l252 -205l252 205l146 -135l-398 -321l-391 321zM1661 825q-2 -170 -19 -269.5t-61 -186.5q-95 -195 -269 -299.5t-403 -104.5q-173 0 -323 60t-257 165.5t-168 254t-61 319.5q0 233 105.5 419t293 291t421.5 105q216 0 384 -92.5t277 -272.5l-264 -141
q-137 230 -402 230q-218 0 -361.5 -153.5t-143.5 -385.5q0 -149 65 -269t180.5 -188.5t257.5 -68.5q166 0 277.5 89.5t128.5 237.5h-363v260h705z" />
    <glyph glyph-name="gcaron" unicode="&#x1e7;" 
d="M403 1636l252 -211l252 211l144 -137l-398 -321l-391 321zM1178 37q0 -155 -24 -239.5t-89 -157.5q-148 -177 -422 -177q-305 0 -461 220q-37 54 -53.5 97t-22.5 101h306q45 -180 235 -180q112 0 189 74q61 67 61 209v151q-76 -90 -155 -129t-185 -39
q-206 0 -340.5 146.5t-134.5 373.5q0 237 138.5 392t350.5 155q105 0 180.5 -37.5t145.5 -124.5v129h281v-964zM653 782q-118 0 -200 -81.5t-82 -198.5q0 -118 82.5 -200.5t199.5 -82.5q114 0 196.5 82.5t82.5 196.5q0 119 -81.5 201.5t-197.5 82.5z" />
    <glyph glyph-name="uni01F4" unicode="&#x1f4;" horiz-adv-x="1763" 
d="M889 1686l-123 112l317 307l193 -157zM1661 825q-2 -170 -19 -269.5t-61 -186.5q-95 -195 -269 -299.5t-403 -104.5q-173 0 -323 60t-257 165.5t-168 254t-61 319.5q0 233 105.5 419t293 291t421.5 105q216 0 384 -92.5t277 -272.5l-264 -141q-137 230 -402 230
q-218 0 -361.5 -153.5t-143.5 -385.5q0 -149 65 -269t180.5 -188.5t257.5 -68.5q166 0 277.5 89.5t128.5 237.5h-363v260h705z" />
    <glyph glyph-name="uni01F5" unicode="&#x1f5;" 
d="M522 1178l-133 92l275 350l206 -129zM1178 37q0 -155 -24 -239.5t-89 -157.5q-148 -177 -422 -177q-305 0 -461 220q-37 54 -53.5 97t-22.5 101h306q45 -180 235 -180q112 0 189 74q61 67 61 209v151q-76 -90 -155 -129t-185 -39q-206 0 -340.5 146.5t-134.5 373.5
q0 237 138.5 392t350.5 155q105 0 180.5 -37.5t145.5 -124.5v129h281v-964zM653 782q-118 0 -200 -81.5t-82 -198.5q0 -118 82.5 -200.5t199.5 -82.5q114 0 196.5 82.5t82.5 196.5q0 119 -81.5 201.5t-197.5 82.5z" />
    <glyph glyph-name="Aringacute" unicode="&#x1fa;" horiz-adv-x="1550" 
d="M514 1958l-125 113l320 309l192 -158zM770 2050q92 0 156.5 -63t64.5 -154q0 -92 -64 -155.5t-155 -63.5t-155 64t-64 157q0 89 64.5 152t152.5 63zM772 1919q-35 0 -61.5 -25.5t-26.5 -60.5q0 -36 26 -62t62 -26q35 0 60.5 25.5t25.5 62.5q0 36 -25 61t-61 25zM461 326
l-139 -326h-320l670 1577h225l649 -1577h-321l-133 326h-631zM782 1124l-225 -555h440z" />
    <glyph glyph-name="aringacute" unicode="&#x1fb;" horiz-adv-x="1316" 
d="M442 1542l-133 92l277 348l202 -131zM672 1604q88 0 150.5 -62t62.5 -151t-62.5 -151t-150.5 -62q-89 0 -151 62t-62 153q0 88 62.5 149.5t150.5 61.5zM672 1473q-34 0 -58 -24t-24 -58q0 -32 24 -56t58 -24q32 0 56 24t24 56q0 35 -23 58.5t-57 23.5zM1182 1001v-1001
h-279v129q-67 -85 -146.5 -123.5t-183.5 -38.5q-212 0 -351.5 153t-139.5 382q0 111 38 210t102.5 169.5t155 111.5t191.5 41q102 0 181 -38.5t153 -123.5v129h279zM653 782q-118 0 -200 -81.5t-82 -198.5q0 -118 82.5 -200.5t199.5 -82.5q114 0 196.5 82.5t82.5 196.5
q0 120 -81 202t-198 82z" />
    <glyph glyph-name="AEacute" unicode="&#x1fc;" horiz-adv-x="2129" 
d="M975 1686l-123 112l317 307l191 -157zM469 326l-133 -326h-320l664 1544h815l102 -262h-567l139 -344h560l104 -262h-561l172 -414h569l101 -262h-883l-131 326h-631zM795 1094l-226 -525h439z" />
    <glyph glyph-name="aeacute" unicode="&#x1fd;" horiz-adv-x="1867" 
d="M879 1178l-134 92l275 350l207 -129zM1032 457q6 -127 74.5 -200t181.5 -73q78 0 137.5 36t90.5 102l262 -41q-62 -150 -191 -232t-303 -82q-259 0 -391 191q-144 -191 -399 -191q-184 0 -298 91t-114 237q0 151 109.5 241.5t291.5 90.5q152 0 279 -72q2 18 2 51
q0 99 -66.5 154t-187.5 55q-138 0 -277 -43v225q157 37 287 37q138 0 226.5 -40.5t146.5 -131.5q132 172 379 172q239 0 377.5 -145.5t138.5 -396.5v-35h-756zM1518 635q-52 199 -238 199q-93 0 -151 -48.5t-89 -150.5h478zM549 428q-91 0 -144 -33t-53 -90q0 -60 55 -99.5
t142 -39.5q90 0 151.5 41.5t61.5 101.5q0 52 -60 85.5t-153 33.5z" />
    <glyph glyph-name="Oslashacute" unicode="&#x1fe;" horiz-adv-x="1863" 
d="M883 1686l-125 112l317 307l193 -157zM1536 1329q78 -97 102 -137q56 -91 87.5 -202.5t31.5 -219.5q0 -161 -64.5 -310t-172.5 -257.5t-256.5 -173t-309.5 -64.5q-138 0 -260 29.5t-200 81.5l-172 -201l-160 145l155 199q-72 90 -90 121q-121 191 -121 430
q0 168 64.5 318t175 257.5t264.5 170.5t326 63q226 0 422 -113l176 211l172 -143zM1171 1245q-124 58 -239 58q-140 0 -259 -71t-188 -192.5t-69 -263.5q0 -88 27.5 -173t74.5 -146zM678 305q72 -36 127 -49.5t123 -13.5q141 0 260.5 70.5t188.5 192t69 265.5
q0 183 -105 320z" />
    <glyph glyph-name="oslashacute" unicode="&#x1ff;" horiz-adv-x="1310" 
d="M635 1178l-135 92l276 350l205 -129zM1079 877q148 -157 148 -377q0 -232 -160 -382.5t-410 -150.5q-153 0 -290 64l-138 -160l-120 106l120 146q-147 150 -147 379q0 234 160 383t411 149q156 0 289 -61l131 160l131 -107zM764 760q-54 22 -111 22q-117 0 -199.5 -82.5
t-82.5 -199.5q0 -71 45 -154zM545 244q61 -25 108 -25q117 0 201 82t84 199q0 77 -47 155z" />
    <glyph glyph-name="uni0200" unicode="&#x200;" horiz-adv-x="1550" 
d="M377 2103l293 -309l-101 -108l-362 262zM823 2097l293 -303l-100 -108l-363 262zM461 326l-139 -326h-320l670 1577h225l649 -1577h-321l-133 326h-631zM782 1124l-225 -555h440z" />
    <glyph glyph-name="uni0201" unicode="&#x201;" horiz-adv-x="1316" 
d="M393 1620l234 -350l-113 -92l-311 313zM825 1620l236 -350l-115 -92l-309 313zM1182 1001v-1001h-279v129q-67 -85 -146.5 -123.5t-183.5 -38.5q-212 0 -351.5 153t-139.5 382q0 111 38 210t102.5 169.5t155 111.5t191.5 41q102 0 181 -38.5t153 -123.5v129h279zM653 782
q-118 0 -200 -81.5t-82 -198.5q0 -118 82.5 -200.5t199.5 -82.5q114 0 196.5 82.5t82.5 196.5q0 120 -81 202t-198 82z" />
    <glyph glyph-name="uni0218" unicode="&#x218;" horiz-adv-x="1230" 
d="M932 1192q-60 67 -118 96t-132 29q-92 0 -154.5 -50t-62.5 -122q0 -62 49 -103t184 -92q130 -47 194 -78.5t116 -74.5q135 -117 135 -324q0 -228 -148.5 -369t-388.5 -141q-169 0 -297.5 71t-232.5 222l194 188q53 -98 137 -152t187 -54q105 0 172.5 61.5t67.5 157.5
q0 93 -84 153q-53 34 -215 95q-209 75 -294 168t-85 247q0 194 136 321.5t345 127.5q259 0 453 -170zM758 -143l-262 -414l-156 16l166 418z" />
    <glyph glyph-name="uni0219" unicode="&#x219;" horiz-adv-x="937" 
d="M682 768q-85 68 -166 68q-47 0 -77.5 -24.5t-30.5 -61.5q0 -34 31.5 -56.5t127.5 -54.5q85 -29 122.5 -46.5t72.5 -43.5q110 -76 110 -223q0 -158 -117.5 -258.5t-303.5 -100.5q-108 0 -207.5 44t-171.5 124l145 170q120 -117 240 -117q54 0 90.5 32t36.5 79
q0 42 -30 65.5t-126 59.5q-94 34 -126 48.5t-66 39.5q-99 66 -99 207t100.5 230t258.5 89q184 0 325 -106zM604 -143l-254 -392l-149 17l168 395z" />
    <glyph glyph-name="uni021A" unicode="&#x21a;" horiz-adv-x="1026" 
d="M360 0v1282h-344v262h994v-262h-348v-1282h-302zM659 -143l-262 -414l-153 16l166 418z" />
    <glyph glyph-name="uni021B" unicode="&#x21b;" horiz-adv-x="727" 
d="M676 250v-244q-63 -31 -184 -31q-157 0 -232 66q-84 76 -84 248v471h-117v241h117v345h279v-345h235v-241h-235v-426q0 -72 26 -98.5t86 -26.5q65 0 109 41zM530 -143l-251 -392l-150 17l168 395z" />
    <glyph glyph-name="uni0226" unicode="&#x226;" horiz-adv-x="1550" 
d="M776 2044q71 0 121.5 -51t50.5 -123q0 -71 -51 -122.5t-121 -51.5q-73 0 -124.5 52t-51.5 124q0 70 51.5 121t124.5 51zM461 326l-139 -326h-320l670 1577h225l649 -1577h-321l-133 326h-631zM782 1124l-225 -555h440z" />
    <glyph glyph-name="uni0227" unicode="&#x227;" horiz-adv-x="1316" 
d="M653 1538q71 0 121.5 -51t50.5 -121q0 -73 -50.5 -124.5t-121.5 -51.5q-74 0 -125 51.5t-51 126.5q0 69 51.5 119.5t124.5 50.5zM1182 1001v-1001h-279v129q-67 -85 -146.5 -123.5t-183.5 -38.5q-212 0 -351.5 153t-139.5 382q0 111 38 210t102.5 169.5t155 111.5
t191.5 41q102 0 181 -38.5t153 -123.5v129h279zM653 782q-118 0 -200 -81.5t-82 -198.5q0 -118 82.5 -200.5t199.5 -82.5q114 0 196.5 82.5t82.5 196.5q0 120 -81 202t-198 82z" />
    <glyph glyph-name="uni0237" unicode="&#x237;" horiz-adv-x="540" 
d="M49 -541q-95 0 -141 19v250q45 -25 98 -25q58 0 91.5 34t33.5 126v1138h281v-1091q0 -152 -29 -233t-88 -128q-112 -90 -246 -90z" />
    <glyph glyph-name="uni0259" unicode="&#x259;" horiz-adv-x="1245" 
d="M868 549q-3 96 -32 156q-29 58 -88 93.5t-127 35.5q-155 0 -236 -150l-281 23q60 151 196 236t316 85q243 0 397 -146t154 -376q0 -233 -153 -384t-391 -151q-181 0 -313.5 90t-194.5 254q-22 61 -29.5 106.5t-7.5 127.5h790zM373 391q17 -104 84.5 -165.5t163.5 -61.5
q97 0 164 62.5t77 164.5h-489z" />
    <glyph glyph-name="uni02BB" unicode="&#x2bb;" horiz-adv-x="706" 
d="M100 958l326 615l178 -23l-248 -622z" />
    <glyph glyph-name="uni02BC" unicode="&#x2bc;" horiz-adv-x="706" 
d="M604 1544l-325 -616l-179 22l246 623z" />
    <glyph glyph-name="circumflex" unicode="&#x2c6;" horiz-adv-x="1157" 
d="M575 1636l400 -319l-144 -139l-256 213l-251 -213l-140 139z" />
    <glyph glyph-name="caron" unicode="&#x2c7;" horiz-adv-x="1157" 
d="M324 1636l251 -211l256 211l144 -137l-400 -321l-391 321z" />
    <glyph glyph-name="uni02C9" unicode="&#x2c9;" horiz-adv-x="1157" 
d="M948 1460v-184h-739v184h739z" />
    <glyph glyph-name="breve" unicode="&#x2d8;" horiz-adv-x="1157" 
d="M393 1503q26 -77 70 -111t117 -34q72 0 115 34t71 111h195q-19 -150 -121.5 -237.5t-259.5 -87.5t-259 87t-122 238h194z" />
    <glyph glyph-name="dotaccent" unicode="&#x2d9;" horiz-adv-x="1157" 
d="M580 1538q70 0 121 -51t51 -121q0 -73 -50.5 -124.5t-121.5 -51.5q-74 0 -125.5 51.5t-51.5 126.5q0 69 52 119.5t125 50.5z" />
    <glyph glyph-name="ring" unicode="&#x2da;" horiz-adv-x="1157" 
d="M580 1604q88 0 149.5 -62t61.5 -151t-61.5 -151t-149.5 -62q-89 0 -151 62t-62 153q0 88 62.5 149.5t150.5 61.5zM580 1473q-34 0 -58 -24t-24 -58q0 -32 24 -56t58 -24q32 0 55.5 24t23.5 56q0 35 -22.5 58.5t-56.5 23.5z" />
    <glyph glyph-name="ogonek" unicode="&#x2db;" horiz-adv-x="1157" 
d="M784 0q-129 -90 -129 -172q0 -40 28 -66t71 -26q45 0 112 31l-32 -156q-67 -39 -150 -39q-86 0 -145.5 51.5t-59.5 126.5q0 140 172 250h133z" />
    <glyph glyph-name="tilde" unicode="&#x2dc;" horiz-adv-x="1157" 
d="M160 1210q19 133 86 211t162 78q68 0 184 -45q77 -30 99.5 -36.5t45.5 -6.5q34 0 55 17t48 69h159q-28 -137 -99.5 -214t-172.5 -77q-35 0 -66.5 8t-95.5 35q-114 43 -155 43q-30 0 -52 -19.5t-41 -62.5h-157z" />
    <glyph glyph-name="hungarumlaut" unicode="&#x2dd;" horiz-adv-x="1157" 
d="M356 1178l-112 92l233 350l189 -129zM788 1178l-112 92l231 350l191 -129z" />
    <glyph glyph-name="hookabovecomb" unicode="&#x309;" horiz-adv-x="0" 
d="M-604 1155v168l16 6q55 8 70 8q67 10 89.5 25t22.5 49q0 39 -27.5 60.5t-78.5 21.5q-31 0 -41.5 -3.5t-44.5 -23.5l-27 -10l-8 -4l-12 -8l-43 104l14 6l6 2q107 43 203 43q104 0 170 -54.5t66 -139.5q0 -76 -52.5 -119t-146.5 -43h-53v-88h-123z" />
    <glyph glyph-name="dotbelowcomb" unicode="&#x323;" horiz-adv-x="0" 
d="M-578 -92q75 0 129 -53t54 -127q0 -76 -53 -130.5t-127 -54.5q-77 0 -131 54.5t-54 130.5q0 73 54 126.5t128 53.5z" />
    <glyph glyph-name="uni0326" unicode="&#x326;" horiz-adv-x="0" 
d="M-377 -143l-252 -392l-149 17l168 395z" />
    <glyph glyph-name="uni037E" unicode="&#x37e;" horiz-adv-x="579" 
d="M360 1034q77 0 131 -52.5t54 -127.5q0 -76 -54 -129t-129 -53t-128.5 53t-53.5 129q0 74 53.5 127t126.5 53zM500 289l-326 -613l-178 21l248 622z" />
    <glyph glyph-name="tonos" unicode="&#x384;" horiz-adv-x="1157" 
d="M440 1671h279l-37 -485h-205z" />
    <glyph glyph-name="dieresistonos" unicode="&#x385;" horiz-adv-x="1157" 
d="M440 1671h279l-37 -485h-205zM227 1534q64 0 108 -44.5t44 -107.5q0 -64 -43.5 -108.5t-106.5 -44.5q-65 0 -109 44.5t-44 110.5q0 60 45 105t106 45zM930 1534q64 0 108.5 -44.5t44.5 -107.5q0 -64 -44 -108.5t-107 -44.5t-107.5 44.5t-44.5 110.5q0 60 45 105t105 45z
" />
    <glyph glyph-name="Alphatonos" unicode="&#x386;" horiz-adv-x="1550" 
d="M86 1671h281l-39 -518h-205zM461 326l-139 -326h-320l655 1544h252l637 -1544h-321l-133 326h-631zM782 1124l-225 -555h440z" />
    <glyph glyph-name="uni0387" unicode="&#x387;" horiz-adv-x="587" 
d="M360 1034q77 0 131 -52.5t54 -127.5q0 -76 -54 -129t-129 -53t-128.5 53t-53.5 129q0 74 53.5 127t126.5 53z" />
    <glyph glyph-name="Epsilontonos" unicode="&#x388;" horiz-adv-x="1478" 
d="M29 1671h278l-37 -518h-204zM813 1282v-342h533v-262h-533v-416h555v-262h-856v1544h856v-262h-555z" />
    <glyph glyph-name="Etatonos" unicode="&#x389;" horiz-adv-x="1943" 
d="M29 1671h278l-37 -518h-204zM1464 940v604h301v-1544h-301v678h-651v-678h-301v1544h301v-604h651z" />
    <glyph glyph-name="Iotatonos" unicode="&#x38a;" horiz-adv-x="991" 
d="M29 1671h278l-37 -518h-204zM813 0h-301v1544h301v-1544z" />
    <glyph glyph-name="Omicrontonos" unicode="&#x38c;" horiz-adv-x="2131" 
d="M29 1671h278l-37 -518h-204zM1210 1579q170 0 322.5 -63t262 -170.5t173.5 -257.5t64 -318q0 -134 -41 -258t-116.5 -222.5t-177.5 -172t-230 -113t-267 -39.5q-171 0 -322.5 63t-259.5 171.5t-170.5 260t-62.5 322.5q0 162 65 309.5t175.5 254.5t263.5 170t321 63z
M1208 1303q-138 0 -256.5 -71t-188 -192t-69.5 -262q0 -110 40.5 -209.5t109 -171t163.5 -113.5t201 -42q140 0 258.5 71t187 193t68.5 266q0 109 -40.5 207.5t-109.5 169t-164 112.5t-200 42z" />
    <glyph glyph-name="Upsilontonos" unicode="&#x38e;" horiz-adv-x="1738" 
d="M29 1671h278l-37 -518h-204zM377 1544h356l334 -536l326 536h358l-541 -835v-709h-301v709z" />
    <glyph glyph-name="Omegatonos" unicode="&#x38f;" horiz-adv-x="2097" 
d="M29 1671h278l-37 -518h-204zM358 262h377v47q-366 153 -366 553q0 161 61.5 300t177.5 237q217 180 578 180q244 0 429 -89t285.5 -252t100.5 -378q0 -270 -178 -436q-57 -55 -189 -115v-47h377v-262h-676v377q131 39 228 129q68 66 98.5 140.5t30.5 172.5
q0 224 -136 354t-370 130q-235 0 -371.5 -130t-136.5 -354q0 -104 35 -181.5t112 -145.5q93 -83 209 -115v-377h-676v262z" />
    <glyph glyph-name="iotadieresistonos" unicode="&#x390;" horiz-adv-x="563" 
d="M141 1671h281l-37 -485h-207zM-72 1534q64 0 109 -44.5t45 -107.5q0 -64 -44.5 -108.5t-107.5 -44.5q-64 0 -107.5 44.5t-43.5 110.5q0 60 44 105t105 45zM631 1534q64 0 108.5 -44.5t44.5 -107.5q0 -64 -43.5 -108.5t-105.5 -44.5q-65 0 -109.5 44.5t-44.5 110.5
q0 60 45 105t105 45zM137 1001h287v-1001h-287v1001z" />
    <glyph glyph-name="Alpha" unicode="&#x391;" horiz-adv-x="1550" 
d="M461 326l-139 -326h-320l655 1544h252l637 -1544h-321l-133 326h-631zM782 1124l-225 -555h440z" />
    <glyph glyph-name="Beta" unicode="&#x392;" horiz-adv-x="1318" 
d="M178 1544h381q258 0 379 -92q63 -51 100 -135.5t37 -179.5q0 -129 -57 -222q-32 -43 -111 -92q80 -18 123 -38t78 -58q53 -53 83 -130t30 -163q0 -91 -36 -174t-102 -141q-131 -119 -385 -119h-520v1544zM565 901q234 0 234 201q0 98 -58.5 148t-171.5 50h-90v-399h86z
M608 244q153 0 227 52.5t74 160.5q0 115 -90 170q-40 26 -87 35.5t-140 9.5h-113v-428h129z" />
    <glyph glyph-name="Gamma" unicode="&#x393;" horiz-adv-x="1105" 
d="M178 1544h891v-262h-590v-1282h-301v1544z" />
    <glyph glyph-name="uni0394" unicode="&#x394;" horiz-adv-x="1503" 
d="M623 1544h254l622 -1544h-1497zM1087 262l-339 862l-334 -862h673z" />
    <glyph glyph-name="Epsilon" unicode="&#x395;" horiz-adv-x="1144" 
d="M479 1282v-342h533v-262h-533v-416h553v-262h-854v1544h854v-262h-553z" />
    <glyph glyph-name="Zeta" unicode="&#x396;" horiz-adv-x="1351" 
d="M1260 262v-262h-1211l754 1282h-637v262h1132l-751 -1282h713z" />
    <glyph glyph-name="Eta" unicode="&#x397;" horiz-adv-x="1607" 
d="M1133 940v604h299v-1544h-299v678h-654v-678h-301v1544h301v-604h654z" />
    <glyph glyph-name="Theta" unicode="&#x398;" horiz-adv-x="1875" 
d="M942 1579q172 0 327 -63t266.5 -170.5t177 -257.5t65.5 -318t-65.5 -317.5t-178.5 -256t-270 -169t-334 -62.5q-174 0 -328 63t-264 171.5t-174 260t-64 322.5q0 162 66.5 309.5t179.5 254.5t269 170t327 63zM938 1303q-141 0 -263 -71t-193.5 -192t-71.5 -262
q0 -147 70 -270.5t192 -194.5t268 -71q143 0 264 71t191.5 193t70.5 266q0 145 -70.5 267.5t-192 193t-265.5 70.5zM625 913h626v-233h-626v233z" />
    <glyph glyph-name="Iota" unicode="&#x399;" horiz-adv-x="655" 
d="M479 0h-301v1544h301v-1544z" />
    <glyph glyph-name="Kappa" unicode="&#x39a;" horiz-adv-x="1439" 
d="M178 1544h301v-725l561 725h355l-617 -753l666 -791h-377l-588 735v-735h-301v1544z" />
    <glyph glyph-name="Lambda" unicode="&#x39b;" horiz-adv-x="1413" 
d="M584 1544h256l581 -1544h-323l-387 1124l-396 -1124h-319z" />
    <glyph glyph-name="Mu" unicode="&#x39c;" horiz-adv-x="1968" 
d="M362 1571h207l422 -1008l436 1008h209l256 -1571h-303l-137 950l-424 -970h-84l-409 970l-156 -950h-303z" />
    <glyph glyph-name="Nu" unicode="&#x39d;" horiz-adv-x="1802" 
d="M178 1544h232l915 -1040v1040h301v-1544h-231l-916 1044v-1044h-301v1544z" />
    <glyph glyph-name="Xi" unicode="&#x39e;" horiz-adv-x="1386" 
d="M100 1544h1186v-262h-1186v262zM135 940h1116v-262h-1116v262zM100 262h1186v-262h-1186v262z" />
    <glyph glyph-name="Omicron" unicode="&#x39f;" horiz-adv-x="1849" 
d="M928 1579q170 0 322.5 -63t261.5 -170.5t173 -257.5t64 -318t-64.5 -317.5t-175.5 -256t-265.5 -169t-328.5 -62.5q-171 0 -322.5 63t-259.5 171.5t-170.5 260t-62.5 322.5q0 162 65.5 309.5t176 254.5t264 170t322.5 63zM924 1303q-138 0 -256.5 -71t-188 -192
t-69.5 -262q0 -224 150.5 -380t365.5 -156q139 0 257.5 71t187.5 193t69 266q0 109 -40.5 207t-109.5 169t-164.5 113t-201.5 42z" />
    <glyph glyph-name="Pi" unicode="&#x3a0;" horiz-adv-x="1624" 
d="M178 1544h1270v-1544h-301v1282h-668v-1282h-301v1544z" />
    <glyph glyph-name="Rho" unicode="&#x3a1;" horiz-adv-x="1239" 
d="M479 0h-301v1544h451q151 0 243 -27t164 -92q75 -68 116.5 -165t41.5 -207q0 -99 -33 -189t-92 -155q-132 -138 -395 -138h-195v-571zM602 834q283 0 283 221q0 55 -21.5 102.5t-58.5 75.5q-63 49 -221 49h-105v-448h123z" />
    <glyph glyph-name="Sigma" unicode="&#x3a3;" horiz-adv-x="1249" 
d="M516 836l-438 708h1063v-262h-602l303 -446l-338 -574h657v-262h-1112z" />
    <glyph glyph-name="Tau" unicode="&#x3a4;" horiz-adv-x="1026" 
d="M360 0v1282h-344v262h994v-262h-348v-1282h-302z" />
    <glyph glyph-name="Upsilon" unicode="&#x3a5;" horiz-adv-x="1349" 
d="M-12 1544h356l332 -536l328 536h360l-543 -835v-709h-301v709z" />
    <glyph glyph-name="Phi" unicode="&#x3a6;" horiz-adv-x="2142" 
d="M936 94q-282 18 -442 90q-189 83 -291.5 235t-102.5 349q0 212 117.5 370t331.5 236q155 54 387 68v225h270v-225q279 -17 445 -90q188 -81 290.5 -234t102.5 -350q0 -212 -117.5 -370t-331.5 -236q-154 -54 -389 -68v-221h-270v221zM936 1167q-188 -13 -297 -61
q-231 -106 -231 -338q0 -120 69 -211t197 -141q90 -34 262 -45v796zM1206 371q193 11 297 59q114 52 173 138.5t59 199.5q0 120 -68.5 211t-196.5 141q-94 33 -264 47v-796z" />
    <glyph glyph-name="Chi" unicode="&#x3a7;" horiz-adv-x="1445" 
d="M102 1544h361l272 -479l285 479h362l-475 -727l525 -817h-353l-348 565l-358 -565h-357l547 817z" />
    <glyph glyph-name="Psi" unicode="&#x3a8;" horiz-adv-x="1921" 
d="M817 336q-374 15 -540.5 157.5t-165.5 444.5v606h301v-567q-4 -198 86 -279.5t319 -87.5v934h293v-934q229 6 317.5 87t85.5 280v567h302v-606q2 -301 -165.5 -444t-539.5 -158v-336h-293v336z" />
    <glyph glyph-name="uni03A9" unicode="&#x3a9;" horiz-adv-x="1812" 
d="M74 262h377v47q-367 154 -367 553q0 161 62 300t178 237q217 180 577 180q244 0 429 -89t285.5 -252t100.5 -378q0 -270 -178 -436q-58 -56 -188 -115v-47h376v-262h-675v377q130 39 227 129q68 66 98.5 140.5t30.5 172.5q0 224 -136 354t-370 130q-235 0 -371.5 -130
t-136.5 -354q0 -104 35.5 -181.5t112.5 -145.5q93 -83 209 -115v-377h-676v262z" />
    <glyph glyph-name="Iotadieresis" unicode="&#x3aa;" horiz-adv-x="655" 
d="M84 2028q69 0 117.5 -48t48.5 -116q0 -70 -48.5 -119t-117.5 -49q-70 0 -119 49t-49 119q0 67 50 115.5t118 48.5zM571 2028q69 0 117.5 -48t48.5 -116q0 -70 -48.5 -119t-117.5 -49t-117 49t-48 119q0 67 48.5 115.5t116.5 48.5zM477 0h-301v1544h301v-1544z" />
    <glyph glyph-name="Upsilondieresis" unicode="&#x3ab;" horiz-adv-x="1349" 
d="M432 2028q70 0 119 -48t49 -116q0 -70 -50 -119t-118 -49q-69 0 -117.5 49t-48.5 119q0 68 48.5 116t117.5 48zM920 2028q69 0 117 -48t48 -116q0 -70 -48.5 -119t-116.5 -49q-70 0 -119 49t-49 119q0 68 49 116t119 48zM-12 1544h356l332 -536l328 536h360l-543 -835
v-709h-301v709z" />
    <glyph glyph-name="alphatonos" unicode="&#x3ac;" horiz-adv-x="1316" 
d="M518 1671h281l-37 -485h-207zM1182 1001v-1001h-279v129q-67 -85 -146.5 -123.5t-183.5 -38.5q-212 0 -351.5 153t-139.5 382q0 111 38 210t102.5 169.5t155 111.5t191.5 41q102 0 181 -38.5t153 -123.5v129h279zM653 782q-118 0 -200 -81.5t-82 -198.5
q0 -118 82.5 -200.5t199.5 -82.5q114 0 196.5 82.5t82.5 196.5q0 120 -81 202t-198 82z" />
    <glyph glyph-name="epsilontonos" unicode="&#x3ad;" horiz-adv-x="1030" 
d="M453 1671h280l-37 -485h-204zM983 16q-178 -49 -389 -49q-252 0 -391 86q-55 36 -87 99t-32 133q0 85 42.5 148t121.5 95q-74 38 -106.5 88t-32.5 125q0 143 117 218t341 75q187 0 389 -43v-241q-155 41 -319 41q-231 0 -231 -93q0 -86 215 -86h204v-206h-209
q-235 0 -235 -97q0 -46 65.5 -71t182.5 -25q149 0 354 41v-238z" />
    <glyph glyph-name="etatonos" unicode="&#x3ae;" horiz-adv-x="1234" 
d="M504 1671h280l-36 -485h-207zM135 1001h279v-127q69 83 139 115.5t176 32.5q192 0 293 -119q43 -51 60.5 -112t17.5 -160v-1166h-281v1070q0 77 -6 114t-25 66q-45 73 -153 73q-221 0 -221 -266v-522h-279v1001z" />
    <glyph glyph-name="iotatonos" unicode="&#x3af;" horiz-adv-x="563" 
d="M143 1671h279l-37 -485h-205zM139 1001h287v-1001h-287v1001z" />
    <glyph glyph-name="upsilondieresistonos" unicode="&#x3b0;" horiz-adv-x="1204" 
d="M463 1671h280l-36 -485h-207zM250 1534q64 0 108.5 -44.5t44.5 -107.5q0 -64 -44 -108.5t-107 -44.5q-65 0 -108.5 44.5t-43.5 110.5q0 60 44.5 105t105.5 45zM954 1534q63 0 107.5 -44.5t44.5 -107.5q0 -64 -44 -108.5t-106 -44.5q-65 0 -109 44.5t-44 110.5
q0 60 45 105t106 45zM410 1001v-552q0 -81 7.5 -119.5t28.5 -65.5q52 -61 156 -61q116 0 162 71q17 26 24 64t7 111v552h278v-569q0 -128 -20.5 -203.5t-69.5 -132.5q-117 -135 -381 -135q-280 0 -399 158q-40 56 -57 126t-17 187v569h281z" />
    <glyph glyph-name="alpha" unicode="&#x3b1;" horiz-adv-x="1316" 
d="M1182 1001v-1001h-279v129q-67 -85 -146.5 -123.5t-183.5 -38.5q-212 0 -351.5 153t-139.5 382q0 111 38 210t102.5 169.5t155 111.5t191.5 41q102 0 181 -38.5t153 -123.5v129h279zM653 782q-118 0 -200 -81.5t-82 -198.5q0 -118 82.5 -200.5t199.5 -82.5
q114 0 196.5 82.5t82.5 196.5q0 120 -81 202t-198 82z" />
    <glyph glyph-name="beta" unicode="&#x3b2;" horiz-adv-x="1304" 
d="M139 1051q0 186 19.5 292t68.5 177q129 194 420 194q222 0 351.5 -122t129.5 -330q0 -254 -202 -365q67 -21 103 -40.5t71 -55.5q121 -131 121 -328q0 -221 -136.5 -362.5t-347.5 -141.5q-97 0 -169 25t-148 84v-613h-281v1586zM420 301q55 -45 107 -65.5t118 -20.5
q127 0 206 77t79 202q0 97 -53 166.5t-144 91.5q-27 9 -131 12v231q124 1 190 62t66 172q0 107 -60 174t-155 67q-66 0 -117.5 -31.5t-76.5 -86.5q-29 -71 -29 -230v-821z" />
    <glyph glyph-name="gamma" unicode="&#x3b3;" horiz-adv-x="1093" 
d="M406 -207q6 279 -82 541t-324 667h313q185 -356 234 -639q18 93 37.5 159t60.5 171l123 309h311l-223 -454q-101 -213 -136.5 -367t-35.5 -387v-328h-278v328z" />
    <glyph glyph-name="delta" unicode="&#x3b4;" horiz-adv-x="1300" 
d="M442 1085q-63 57 -99 133.5t-36 153.5q0 96 47.5 165.5t137.5 104.5q103 46 376 46h115v-244h-188q-108 0 -152.5 -21t-44.5 -75q0 -77 111 -168l227 -187q157 -131 217.5 -238.5t60.5 -256.5q0 -242 -153.5 -386.5t-409.5 -144.5q-258 0 -411.5 145.5t-153.5 387.5
q0 217 119 340t348 143zM764 768q-64 10 -111 10q-126 0 -202 -76.5t-76 -201.5q0 -127 75.5 -204t200.5 -77q124 0 199.5 76.5t75.5 200.5q0 70 -30 126t-99 115z" />
    <glyph glyph-name="epsilon" unicode="&#x3b5;" horiz-adv-x="1030" 
d="M983 16q-178 -49 -389 -49q-252 0 -391 86q-55 36 -87 99t-32 133q0 85 42.5 148t121.5 95q-74 38 -106.5 88t-32.5 125q0 143 117 218t341 75q187 0 389 -43v-241q-155 41 -319 41q-231 0 -231 -93q0 -86 215 -86h204v-206h-209q-235 0 -235 -97q0 -46 65.5 -71
t182.5 -25q149 0 354 41v-238z" />
    <glyph glyph-name="zeta" unicode="&#x3b6;" horiz-adv-x="897" 
d="M109 1688h819q-249 -463 -358 -683t-150 -341t-41 -222q0 -107 54 -157.5t192 -75.5q85 -15 124 -29t72 -41q41 -32 64.5 -84.5t23.5 -113.5q0 -114 -60.5 -202t-225.5 -218l-158 172q108 70 143 110.5t35 94.5q0 52 -43 71q-28 14 -127 29q-207 28 -298 122t-91 279
q0 178 97.5 400.5t359.5 644.5h-432v244z" />
    <glyph glyph-name="eta" unicode="&#x3b7;" horiz-adv-x="1234" 
d="M135 1001h279v-127q69 83 139 115.5t176 32.5q192 0 293 -119q43 -51 60.5 -112t17.5 -160v-1166h-281v1070q0 77 -6 114t-25 66q-45 73 -153 73q-221 0 -221 -266v-522h-279v1001z" />
    <glyph glyph-name="theta" unicode="&#x3b8;" horiz-adv-x="1296" 
d="M643 1726q216 0 361 -176q106 -127 162.5 -308t56.5 -400q0 -249 -74 -449.5t-205 -314t-293 -113.5q-164 0 -295.5 113.5t-205.5 314.5t-74 451q0 248 74 450.5t204 317t289 114.5zM926 969q-22 232 -97 366.5t-182 134.5q-106 0 -180.5 -137t-93.5 -364h553zM373 723
q23 -236 96.5 -369t181.5 -133q54 0 105.5 44t91.5 122q56 115 78 336h-553z" />
    <glyph glyph-name="iota" unicode="&#x3b9;" horiz-adv-x="563" 
d="M139 1001h287v-1001h-287v1001z" />
    <glyph glyph-name="kappa" unicode="&#x3ba;" horiz-adv-x="1114" 
d="M135 1001h279v-450l354 450h305l-397 -481l440 -520h-325l-377 457v-457h-279v1001z" />
    <glyph glyph-name="lambda" unicode="&#x3bb;" horiz-adv-x="1067" 
d="M375 985l-291 703h297l702 -1688h-301l-264 637l-211 -637h-313z" />
    <glyph glyph-name="uni03BC" unicode="&#x3bc;" horiz-adv-x="1220" 
d="M137 1001h279v-503q0 -145 46 -208t150 -63q103 0 148 62.5t45 208.5v503h280v-1001h-245v131q-34 -83 -81 -113t-143 -30q-139 0 -200 82v-605h-279v1536z" />
    <glyph glyph-name="nu" unicode="&#x3bd;" horiz-adv-x="1161" 
d="M582 434l260 567h315l-516 -1021h-127l-512 1021h315z" />
    <glyph glyph-name="xi" unicode="&#x3be;" horiz-adv-x="960" 
d="M113 1688h829l-65 -52q-135 -101 -184 -141t-101 -94q-131 -140 -131 -254q0 -62 47 -110t129 -70q71 -20 231 -25l-110 -217q-64 10 -111 10q-124 0 -196 -71t-72 -195q0 -114 58 -169t206 -83q89 -15 129.5 -29t75.5 -41q43 -33 67.5 -87t24.5 -119q0 -113 -61 -201.5
t-226 -218.5l-157 172q109 72 143.5 111.5t34.5 91.5q0 56 -47 79q-26 13 -133 29q-113 15 -184 44.5t-122 80.5q-49 52 -76.5 137.5t-27.5 184.5q0 154 63 256t205 178q-96 41 -134 92.5t-38 138.5q0 199 215 328h-282v244z" />
    <glyph glyph-name="omicron" unicode="&#x3bf;" horiz-adv-x="1306" 
d="M657 1034q252 0 411 -148t159 -384q0 -238 -161 -386.5t-419 -148.5q-251 0 -408 151t-157 392q0 229 161.5 376.5t413.5 147.5zM653 782q-116 0 -199 -82t-83 -196q0 -120 82 -202.5t202 -82.5q116 0 199.5 82.5t83.5 198.5q0 118 -83.5 200t-201.5 82z" />
    <glyph glyph-name="pi" unicode="&#x3c0;" horiz-adv-x="1314" 
d="M219 760h-168v241h1215v-241h-168v-760h-283v760h-313v-760h-283v760z" />
    <glyph glyph-name="rho" unicode="&#x3c1;" horiz-adv-x="1331" 
d="M141 -535v979q0 120 17 202.5t57 156.5q60 115 181.5 176t285.5 61q293 0 434 -163q62 -74 96.5 -172t34.5 -203q0 -229 -141.5 -382t-353.5 -153q-197 0 -330 148v-650h-281zM682 786q-123 0 -197.5 -75.5t-74.5 -200.5t79 -207t199 -82q113 0 193 81t80 198
q0 124 -79.5 205t-199.5 81z" />
    <glyph glyph-name="uni03C2" unicode="&#x3c2;" horiz-adv-x="978" 
d="M905 676q-76 58 -136 82t-130 24q-120 0 -189 -79.5t-69 -217.5q0 -125 56.5 -182.5t205.5 -83.5q94 -18 133 -31t72 -38q92 -70 92 -209q0 -113 -61 -200.5t-228 -217.5l-155 170q109 72 143.5 111.5t34.5 93.5q0 56 -47 79q-38 13 -133 27q-117 19 -186 47.5t-118 79.5
q-104 104 -104 332q0 266 130 418.5t357 152.5q173 0 332 -76v-282z" />
    <glyph glyph-name="sigma" unicode="&#x3c3;" horiz-adv-x="1323" 
d="M1335 760h-194l12 -23q43 -71 57.5 -120t14.5 -125q0 -233 -158.5 -379t-413.5 -146q-252 0 -409.5 147t-157.5 382q0 245 153.5 391.5t411.5 146.5q68 0 236 -16q191 -17 254 -17h194v-241zM836 760q-92 20 -166 20q-130 0 -209.5 -78.5t-79.5 -207.5q0 -125 74 -200
t198 -75q133 0 208 77.5t75 215.5q0 72 -20.5 123t-79.5 125z" />
    <glyph glyph-name="tau" unicode="&#x3c4;" horiz-adv-x="878" 
d="M297 760h-279v241h842v-241h-276v-760h-287v760z" />
    <glyph glyph-name="upsilon" unicode="&#x3c5;" horiz-adv-x="1204" 
d="M410 1001v-552q0 -81 7.5 -119.5t28.5 -65.5q52 -61 156 -61q116 0 162 71q17 26 24 64t7 111v552h278v-569q0 -128 -20.5 -203.5t-69.5 -132.5q-117 -135 -381 -135q-280 0 -399 158q-40 56 -57 126t-17 187v569h281z" />
    <glyph glyph-name="phi" unicode="&#x3c6;" horiz-adv-x="1626" 
d="M674 -25q-281 22 -434.5 156t-153.5 356q0 319 328 455l114 -182q-5 -4 -11.5 -9t-10.5 -8.5t-6 -5.5q-53 -42 -67 -55t-27 -37q-37 -61 -37 -143q0 -122 81.5 -199.5t223.5 -89.5v788q56 16 90.5 21.5t91.5 5.5q322 0 502 -139.5t180 -390.5q0 -232 -156.5 -371
t-435.5 -152v-510h-272v510zM946 211q148 11 229.5 86t81.5 203q0 127 -84 204t-227 82v-575z" />
    <glyph glyph-name="chi" unicode="&#x3c7;" horiz-adv-x="1093" 
d="M29 1001h307l233 -464l193 464h303l-369 -714l428 -822h-307l-276 568l-236 -568h-317l411 822z" />
    <glyph glyph-name="psi" unicode="&#x3c8;" horiz-adv-x="1683" 
d="M715 -16h-37q-300 2 -423 126t-114 418v473h287v-499q-3 -160 47.5 -216.5t196.5 -56.5h43v772h276v-772h43q146 0 196.5 56.5t47.5 216.5v499h287v-473q9 -294 -114 -418t-423 -126h-37v-519h-276v519z" />
    <glyph glyph-name="omega" unicode="&#x3c9;" horiz-adv-x="1677" 
d="M963 705v-187q0 -134 22 -205q19 -43 53 -68.5t76 -25.5q85 0 137 86t52 225q0 171 -80 324q-21 32 -39 55t-78 92h278q112 -124 158.5 -238t46.5 -265q0 -242 -119.5 -386.5t-318.5 -144.5q-112 0 -187.5 40.5t-125.5 127.5q-89 -168 -312 -168q-199 0 -319.5 145.5
t-120.5 385.5q0 196 92 358q19 34 40 61.5t73 83.5h278q-13 -15 -31 -36t-25 -29.5t-18 -21.5t-14.5 -18.5t-9.5 -13.5t-9.5 -14.5t-7 -14t-8.5 -17.5q-73 -137 -73 -310q0 -137 51.5 -222t134.5 -85q47 0 83 29t50 76q21 64 21 194v187h250z" />
    <glyph glyph-name="iotadieresis" unicode="&#x3ca;" horiz-adv-x="563" 
d="M41 1524q68 0 117 -49.5t49 -118.5t-49 -117.5t-117 -48.5q-69 0 -117.5 49t-48.5 119q0 68 49.5 117t116.5 49zM520 1524q69 0 118.5 -49.5t49.5 -118.5t-49.5 -117.5t-118.5 -48.5t-117.5 49t-48.5 119q0 68 49 117t117 49zM139 1001h287v-1001h-287v1001z" />
    <glyph glyph-name="upsilondieresis" unicode="&#x3cb;" horiz-adv-x="1204" 
d="M360 1524q68 0 117 -49.5t49 -118.5t-49 -117.5t-117 -48.5q-69 0 -117 49t-48 119q0 68 49 117t116 49zM842 1524q70 0 119 -49.5t49 -118.5t-49 -117.5t-119 -48.5q-69 0 -117.5 49t-48.5 119q0 68 49 117t117 49zM410 1001v-552q0 -81 7.5 -119.5t28.5 -65.5
q52 -61 156 -61q116 0 162 71q17 26 24 64t7 111v552h278v-569q0 -128 -20.5 -203.5t-69.5 -132.5q-117 -135 -381 -135q-280 0 -399 158q-40 56 -57 126t-17 187v569h281z" />
    <glyph glyph-name="omicrontonos" unicode="&#x3cc;" horiz-adv-x="1306" 
d="M514 1671h281l-37 -485h-207zM657 1034q252 0 411 -148t159 -384q0 -238 -161 -386.5t-419 -148.5q-251 0 -408 151t-157 392q0 229 161.5 376.5t413.5 147.5zM653 782q-116 0 -199 -82t-83 -196q0 -120 82 -202.5t202 -82.5q116 0 199.5 82.5t83.5 198.5
q0 118 -83.5 200t-201.5 82z" />
    <glyph glyph-name="upsilontonos" unicode="&#x3cd;" horiz-adv-x="1204" 
d="M463 1671h278l-36 -485h-205zM410 1001v-552q0 -81 7.5 -119.5t28.5 -65.5q52 -61 156 -61q116 0 162 71q17 26 24 64t7 111v552h278v-569q0 -128 -20.5 -203.5t-69.5 -132.5q-117 -135 -381 -135q-280 0 -399 158q-40 56 -57 126t-17 187v569h281z" />
    <glyph glyph-name="omegatonos" unicode="&#x3ce;" horiz-adv-x="1677" 
d="M698 1671h279l-37 -485h-205zM963 705v-187q0 -134 22 -205q19 -43 53 -68.5t76 -25.5q85 0 137 86t52 225q0 171 -80 324q-21 32 -39 55t-78 92h278q112 -124 158.5 -238t46.5 -265q0 -242 -119.5 -386.5t-318.5 -144.5q-112 0 -187.5 40.5t-125.5 127.5
q-89 -168 -312 -168q-199 0 -319.5 145.5t-120.5 385.5q0 196 92 358q19 34 40 61.5t73 83.5h278q-13 -15 -31 -36t-25 -29.5t-18 -21.5t-14.5 -18.5t-9.5 -13.5t-9.5 -14.5t-7 -14t-8.5 -17.5q-73 -137 -73 -310q0 -137 51.5 -222t134.5 -85q47 0 83 29t50 76q21 64 21 194
v187h250z" />
    <glyph glyph-name="uni0400" unicode="&#x400;" horiz-adv-x="1144" 
d="M479 2105l318 -307l-123 -112l-387 262zM479 1282v-342h533v-262h-533v-416h553v-262h-854v1544h854v-262h-553z" />
    <glyph glyph-name="uni0401" unicode="&#x401;" horiz-adv-x="1144" 
d="M362 2028q70 0 119 -48t49 -116q0 -70 -49 -119t-119 -49q-69 0 -117 49t-48 119q0 67 48.5 115.5t116.5 48.5zM852 2028q69 0 117.5 -48t48.5 -116q0 -70 -48.5 -119t-117.5 -49t-118.5 49t-49.5 119q0 67 50 115.5t118 48.5zM479 1282v-342h533v-262h-533v-416h553
v-262h-854v1544h854v-262h-553z" />
    <glyph glyph-name="uni0402" unicode="&#x402;" horiz-adv-x="1603" 
d="M307 1282h-289v262h1016v-262h-422v-502q121 96 221 136t222 40q117 0 209 -42t143 -117q63 -94 63 -283v-995h-290v932q0 129 -53.5 184t-180.5 55q-94 0 -175 -43t-159 -135v-512h-305v1282z" />
    <glyph glyph-name="uni0403" unicode="&#x403;" horiz-adv-x="1105" 
d="M565 1686l-125 112l318 307l192 -157zM178 1544h891v-262h-590v-1282h-301v1544z" />
    <glyph glyph-name="uni0404" unicode="&#x404;" horiz-adv-x="1536" 
d="M422 659l6 -20q30 -112 52 -156t75 -96q148 -145 381 -145q139 0 258.5 43.5t247.5 140.5v-315q-116 -69 -261 -107.5t-292 -38.5q-172 0 -319 59.5t-250 164t-161.5 253t-58.5 322.5q0 179 58.5 331t163.5 258t254 166t325 60q133 0 248.5 -29.5t241.5 -95.5v-299
q-127 79 -234.5 113.5t-226.5 34.5q-144 0 -259 -58t-184 -164q-4 -6 -6.5 -10.5t-5 -8t-4.5 -8.5t-3.5 -8t-4 -10t-4 -10.5t-4.5 -14t-4.5 -15.5t-6 -19.5t-6.5 -22.5q-10 -31 -14 -47h715v-248h-717z" />
    <glyph glyph-name="uni0405" unicode="&#x405;" horiz-adv-x="1241" 
d="M932 1192q-60 67 -118 96t-132 29q-92 0 -154.5 -50t-62.5 -122q0 -62 49 -103t184 -92q130 -47 194 -78.5t116 -74.5q135 -117 135 -324q0 -228 -148.5 -369t-388.5 -141q-169 0 -297.5 71t-232.5 222l194 188q53 -98 137 -152t187 -54q105 0 172.5 61.5t67.5 157.5
q0 93 -84 153q-53 34 -215 95q-209 75 -294 168t-85 247q0 194 136 321.5t345 127.5q259 0 453 -170z" />
    <glyph glyph-name="uni0406" unicode="&#x406;" horiz-adv-x="655" 
d="M178 1544h301v-1544h-301v1544z" />
    <glyph glyph-name="uni0407" unicode="&#x407;" horiz-adv-x="655" 
d="M84 2028q69 0 117.5 -48t48.5 -116q0 -70 -48.5 -119t-117.5 -49q-70 0 -119 49t-49 119q0 67 50 115.5t118 48.5zM571 2028q69 0 117.5 -48t48.5 -116q0 -70 -48.5 -119t-117.5 -49t-117 49t-48 119q0 67 48.5 115.5t116.5 48.5zM477 0h-301v1544h301v-1544z" />
    <glyph glyph-name="uni0408" unicode="&#x408;" horiz-adv-x="929" 
d="M754 514q0 -122 -14.5 -195t-51.5 -141q-60 -101 -160 -157t-223 -56q-95 0 -170 34t-153 112l168 229q37 -52 72.5 -75t80.5 -23q82 0 119 65t37 209v1028h295v-1030z" />
    <glyph glyph-name="uni0409" unicode="&#x409;" horiz-adv-x="2140" 
d="M1014 1282h-410l-2 -43q-17 -347 -38.5 -535.5t-57.5 -316.5q-56 -200 -161.5 -294.5t-274.5 -94.5q-47 0 -88 2v264q33 -4 53 -4q97 0 149 89t80 302q46 344 62 893h979v-594h272q246 0 373 -118t127 -347q0 -127 -47 -230t-132 -165q-131 -90 -362 -90h-522v1282z
M1489 242q91 0 145 14.5t88 48.5q28 29 44 76t16 98q0 56 -19.5 106t-52.5 79q-62 53 -221 53h-184v-475h184z" />
    <glyph glyph-name="uni040A" unicode="&#x40a;" horiz-adv-x="2267" 
d="M178 1544h301v-594h666v594h293v-594h270q246 0 373 -118t127 -347q0 -128 -47 -232.5t-131 -162.5q-131 -90 -361 -90h-524v711h-666v-711h-301v1544zM1620 242q92 0 146 14.5t85 48.5q29 29 46.5 76t17.5 98q0 57 -20 106.5t-54 78.5q-31 30 -82 41.5t-139 11.5h-182
v-475h182z" />
    <glyph glyph-name="uni040B" unicode="&#x40b;" horiz-adv-x="1603" 
d="M307 1282h-289v262h1016v-262h-422v-502q121 96 221 136t222 40q117 0 209 -42t143 -117q63 -94 63 -283v-514h-290v451q0 129 -53.5 184t-180.5 55q-94 0 -175 -43t-159 -135v-512h-305v1282z" />
    <glyph glyph-name="uni040C" unicode="&#x40c;" horiz-adv-x="1439" 
d="M729 1686l-123 112l318 307l192 -157zM178 1544h301v-725l561 725h355l-617 -753l666 -791h-377l-588 735v-735h-301v1544z" />
    <glyph glyph-name="uni040D" unicode="&#x40d;" horiz-adv-x="1615" 
d="M748 2105l317 -307l-125 -112l-387 262zM178 1544h289v-1040l745 1040h228v-1544h-289v1028l-745 -1028h-228v1544z" />
    <glyph glyph-name="uni040E" unicode="&#x40e;" horiz-adv-x="1333" 
d="M496 2017q26 -76 69.5 -110.5t114.5 -34.5q73 0 116.5 34t71.5 111h195q-20 -150 -122.5 -236.5t-260.5 -86.5q-156 0 -258 87t-121 236h195zM516 584l-512 960h352l322 -676l323 676h353l-854 -1544h-320z" />
    <glyph glyph-name="uni040F" unicode="&#x40f;" horiz-adv-x="1613" 
d="M178 1544h301v-1282h649v1282h302v-1544h-490v-297h-270v297h-492v1544z" />
    <glyph glyph-name="uni0410" unicode="&#x410;" horiz-adv-x="1550" 
d="M461 326l-139 -326h-320l655 1544h252l637 -1544h-321l-133 326h-631zM782 1124l-225 -555h440z" />
    <glyph glyph-name="uni0411" unicode="&#x411;" horiz-adv-x="1318" 
d="M178 1544h959v-262h-668v-352h268q251 0 379.5 -114.5t128.5 -338.5q0 -127 -47.5 -228.5t-132.5 -160.5q-128 -88 -365 -88h-522v1544zM651 242q97 0 151 13t87 46q61 61 61 168q0 55 -19 102t-54 74q-59 51 -226 51h-182v-454h182z" />
    <glyph glyph-name="uni0412" unicode="&#x412;" horiz-adv-x="1318" 
d="M178 1544h381q258 0 379 -92q63 -51 100 -135.5t37 -179.5q0 -129 -57 -222q-32 -43 -111 -92q80 -18 123 -38t78 -58q53 -53 83 -130t30 -163q0 -91 -36 -174t-102 -141q-131 -119 -385 -119h-520v1544zM565 901q234 0 234 201q0 98 -58.5 148t-171.5 50h-90v-399h86z
M608 244q153 0 227 52.5t74 160.5q0 115 -90 170q-40 26 -87 35.5t-140 9.5h-113v-428h129z" />
    <glyph glyph-name="uni0413" unicode="&#x413;" horiz-adv-x="1105" 
d="M178 1544h891v-262h-590v-1282h-301v1544z" />
    <glyph glyph-name="uni0414" unicode="&#x414;" horiz-adv-x="1560" 
d="M-37 262h78q118 4 177.5 90.5t84.5 288.5q52 389 68 903h995v-1282h137v-559h-270v297h-1000v-297h-270v559zM1065 262v1020h-414q-16 -387 -51 -651q-20 -149 -49 -217.5t-107 -151.5h621z" />
    <glyph glyph-name="uni0415" unicode="&#x415;" horiz-adv-x="1144" 
d="M479 1282v-342h533v-262h-533v-416h553v-262h-854v1544h854v-262h-553z" />
    <glyph glyph-name="uni0416" unicode="&#x416;" horiz-adv-x="2148" 
d="M928 670h-70l-496 -670h-366l606 791l-559 753h346l453 -633h86v633h297v-633h86l450 633h344l-557 -753l606 -791h-368l-492 670h-69v-670h-297v670z" />
    <glyph glyph-name="uni0417" unicode="&#x417;" horiz-adv-x="1298" 
d="M371 913h110q184 0 273 29q135 51 135 162q0 94 -93 146.5t-257 52.5q-112 0 -195.5 -21t-228.5 -86v303q212 80 460 80q289 0 456 -112.5t167 -307.5q0 -152 -106 -252q-33 -31 -71 -52.5t-106 -45.5q160 -51 235 -142.5t75 -234.5q0 -100 -41.5 -188t-116.5 -150
q-84 -67 -200.5 -98t-282.5 -31q-141 0 -278.5 23t-229.5 63v316q204 -125 469 -125q180 0 273 56t93 165q0 113 -103 165t-327 52h-110v233z" />
    <glyph glyph-name="uni0418" unicode="&#x418;" horiz-adv-x="1615" 
d="M178 1544h289v-1040l745 1040h228v-1544h-289v1028l-745 -1028h-228v1544z" />
    <glyph glyph-name="uni0419" unicode="&#x419;" horiz-adv-x="1615" 
d="M623 2017q28 -77 71 -111t115 -34t116 34t70 111h195q-20 -149 -122 -236t-259 -87t-259.5 87t-121.5 236h195zM178 1544h289v-1040l745 1040h228v-1544h-289v1028l-745 -1028h-228v1544z" />
    <glyph glyph-name="uni041A" unicode="&#x41a;" horiz-adv-x="1439" 
d="M178 1544h301v-725l561 725h355l-617 -753l666 -791h-377l-588 735v-735h-301v1544z" />
    <glyph glyph-name="uni041B" unicode="&#x41b;" horiz-adv-x="1490" 
d="M1315 1544v-1544h-301v1282h-410l-2 -43q-21 -361 -41 -544.5t-55 -307.5q-56 -200 -161.5 -294.5t-274.5 -94.5q-47 0 -88 2v264q31 -4 53 -4q97 0 149 89t80 302q46 340 62 893h989z" />
    <glyph glyph-name="uni041C" unicode="&#x41c;" horiz-adv-x="1968" 
d="M362 1571h207l422 -1008l436 1008h209l256 -1571h-303l-137 950l-424 -970h-84l-409 970l-156 -950h-303z" />
    <glyph glyph-name="uni041D" unicode="&#x41d;" horiz-adv-x="1607" 
d="M1133 940v604h299v-1544h-299v678h-654v-678h-301v1544h301v-604h654z" />
    <glyph glyph-name="uni041E" unicode="&#x41e;" horiz-adv-x="1849" 
d="M928 1579q170 0 322.5 -63t261.5 -170.5t173 -257.5t64 -318t-64.5 -317.5t-175.5 -256t-265.5 -169t-328.5 -62.5q-171 0 -322.5 63t-259.5 171.5t-170.5 260t-62.5 322.5q0 162 65.5 309.5t176 254.5t264 170t322.5 63zM924 1303q-138 0 -256.5 -71t-188 -192
t-69.5 -262q0 -224 150.5 -380t365.5 -156q139 0 257.5 71t187.5 193t69 266q0 109 -40.5 207t-109.5 169t-164.5 113t-201.5 42z" />
    <glyph glyph-name="uni041F" unicode="&#x41f;" horiz-adv-x="1624" 
d="M178 1544h1270v-1544h-301v1282h-668v-1282h-301v1544z" />
    <glyph glyph-name="uni0420" unicode="&#x420;" horiz-adv-x="1239" 
d="M479 0h-301v1544h451q151 0 243 -27t164 -92q75 -68 116.5 -165t41.5 -207q0 -99 -33 -189t-92 -155q-132 -138 -395 -138h-195v-571zM602 834q283 0 283 221q0 55 -21.5 102.5t-58.5 75.5q-63 49 -221 49h-105v-448h123z" />
    <glyph glyph-name="uni0421" unicode="&#x421;" horiz-adv-x="1406" 
d="M1305 1108q-106 92 -196.5 131t-197.5 39q-215 0 -360 -147.5t-145 -364.5q0 -140 66 -256t181.5 -182t255.5 -66q108 0 201 39t195 129v-367q-203 -98 -398 -98q-164 0 -313.5 63t-257 169.5t-171 254.5t-63.5 312q0 134 40.5 258t115.5 223t175.5 173t225.5 114.5
t261 40.5q105 0 193 -21.5t192 -74.5v-369z" />
    <glyph glyph-name="uni0422" unicode="&#x422;" horiz-adv-x="1026" 
d="M360 0v1282h-344v262h994v-262h-348v-1282h-302z" />
    <glyph glyph-name="uni0423" unicode="&#x423;" horiz-adv-x="1333" 
d="M516 584l-512 960h352l322 -676l323 676h353l-854 -1544h-320z" />
    <glyph glyph-name="uni0424" unicode="&#x424;" horiz-adv-x="2142" 
d="M936 94q-282 18 -442 90q-189 83 -291.5 235t-102.5 349q0 212 117.5 370t331.5 236q155 54 387 68v225h270v-225q279 -17 445 -90q188 -81 290.5 -234t102.5 -350q0 -212 -117.5 -370t-331.5 -236q-154 -54 -389 -68v-221h-270v221zM936 1167q-188 -13 -297 -61
q-231 -106 -231 -338q0 -120 69 -211t197 -141q90 -34 262 -45v796zM1206 371q193 11 297 59q114 52 173 138.5t59 199.5q0 120 -68.5 211t-196.5 141q-94 33 -264 47v-796z" />
    <glyph glyph-name="uni0425" unicode="&#x425;" horiz-adv-x="1445" 
d="M102 1544h361l272 -479l285 479h362l-475 -727l525 -817h-353l-348 565l-358 -565h-357l547 817z" />
    <glyph glyph-name="uni0426" unicode="&#x426;" horiz-adv-x="1622" 
d="M178 1544h301v-1282h649v1282h302v-1282h139v-559h-271v297h-1120v1544z" />
    <glyph glyph-name="uni0427" unicode="&#x427;" horiz-adv-x="1464" 
d="M989 487q-130 -19 -179 -23.5t-116 -4.5q-181 0 -315 53t-203 152q-86 130 -86 401v479h301v-452q0 -120 13 -178.5t49 -100.5q82 -94 278 -94q125 0 258 41v784h299v-1544h-299v487z" />
    <glyph glyph-name="uni0428" unicode="&#x428;" horiz-adv-x="2256" 
d="M178 1544h301v-1282h500v1282h301v-1282h500v1282h301v-1544h-1903v1544z" />
    <glyph glyph-name="uni0429" unicode="&#x429;" horiz-adv-x="2273" 
d="M178 1544h301v-1282h500v1282h301v-1282h500v1282h301v-1282h139v-559h-272v297h-1770v1544z" />
    <glyph glyph-name="uni042A" unicode="&#x42a;" horiz-adv-x="1548" 
d="M420 1282h-414v262h705v-594h268q247 0 367 -108q65 -59 100 -152t35 -205q0 -129 -47 -233t-134 -162q-131 -90 -358 -90h-522v1282zM893 242q92 0 146 14.5t85 48.5q29 29 46.5 76t17.5 98q0 55 -20 105.5t-54 79.5q-62 53 -221 53h-182v-475h182z" />
    <glyph glyph-name="uni042B" unicode="&#x42b;" horiz-adv-x="1925" 
d="M178 1544h291v-594h272q246 0 373 -118t127 -347q0 -127 -46.5 -230t-131.5 -165q-131 -90 -363 -90h-522v1544zM1438 1544h309v-1544h-309v1544zM653 242q93 0 146.5 14.5t85.5 48.5q61 61 61 174q0 56 -19.5 106t-52.5 79q-62 53 -221 53h-184v-475h184z" />
    <glyph glyph-name="uni042C" unicode="&#x42c;" horiz-adv-x="1304" 
d="M178 1544h291v-594h272q246 0 373 -118t127 -347q0 -127 -46.5 -230t-131.5 -165q-131 -90 -363 -90h-522v1544zM653 242q93 0 146.5 14.5t85.5 48.5q61 61 61 174q0 56 -19.5 106t-52.5 79q-62 53 -221 53h-184v-475h184z" />
    <glyph glyph-name="uni042D" unicode="&#x42d;" horiz-adv-x="1536" 
d="M397 907h717q-3 6 -5 12.5t-3 11.5t-2 7q-29 96 -48.5 132t-70.5 87q-146 146 -379 146q-119 0 -226.5 -34.5t-236.5 -113.5v299q128 66 244.5 95.5t249.5 29.5q234 0 416.5 -102.5t283.5 -288t101 -424.5q0 -174 -58.5 -322.5t-161.5 -253.5t-250.5 -164t-320.5 -59
q-147 0 -297.5 40t-255.5 106v315q229 -184 508 -184q142 0 257 57t185 164q20 31 29.5 55.5t42.5 140.5h-719v248z" />
    <glyph glyph-name="uni042E" unicode="&#x42e;" horiz-adv-x="2457" 
d="M178 1544h301v-635h291q40 192 121 318q107 165 285 258.5t385 93.5q166 0 314 -62.5t253.5 -170t167 -257.5t61.5 -319q0 -167 -62.5 -316.5t-169 -256.5t-256 -169.5t-317.5 -62.5q-207 0 -388 99t-285 270q-79 126 -111 307h-289v-641h-301v1544zM1556 1303
q-133 0 -246 -70.5t-179 -191t-66 -261.5q0 -149 64.5 -272.5t177 -194.5t247.5 -71q207 0 350.5 152.5t143.5 373.5q0 146 -66 269t-179 194.5t-247 71.5z" />
    <glyph glyph-name="uni042F" unicode="&#x42f;" horiz-adv-x="1366" 
d="M840 612l-437 -612h-329l475 643q-96 6 -155 24.5t-111 59.5q-146 115 -146 342q0 132 50.5 235.5t144.5 161.5q67 41 148.5 59.5t199.5 18.5h510v-1544h-303v612h-47zM887 1294h-168q-136 0 -207.5 -59t-71.5 -172q0 -225 271 -225h176v456z" />
    <glyph glyph-name="uni0430" unicode="&#x430;" horiz-adv-x="1316" 
d="M1182 1001v-1001h-279v129q-67 -85 -146.5 -123.5t-183.5 -38.5q-212 0 -351.5 153t-139.5 382q0 111 38 210t102.5 169.5t155 111.5t191.5 41q102 0 181 -38.5t153 -123.5v129h279zM653 782q-118 0 -200 -81.5t-82 -198.5q0 -118 82.5 -200.5t199.5 -82.5
q114 0 196.5 82.5t82.5 196.5q0 120 -81 202t-198 82z" />
    <glyph glyph-name="uni0431" unicode="&#x431;" horiz-adv-x="1341" 
d="M1104 1497q-57 -40 -131.5 -54.5t-267.5 -21.5q-66 -5 -111 -16t-81.5 -37t-57.5 -62.5t-35.5 -98.5t-20 -139t-6.5 -189q68 82 146.5 117.5t187.5 35.5q232 0 379 -148t147 -382q0 -238 -158.5 -385.5t-414.5 -147.5q-148 0 -263 52.5t-184 152.5q-124 173 -124 608
q0 577 180 754q80 80 229 102q77 12 266 29q212 17 285 68zM682 780q-123 0 -199.5 -75.5t-76.5 -198.5q0 -126 77 -205.5t201 -79.5q120 0 199.5 80t79.5 201t-79.5 199.5t-201.5 78.5z" />
    <glyph glyph-name="uni0432" unicode="&#x432;" horiz-adv-x="1179" 
d="M135 1001h543q209 0 289 -57q96 -74 96 -201q0 -76 -33.5 -126t-107.5 -85q182 -57 182 -241q0 -143 -104.5 -217t-305.5 -74h-559v1001zM610 594q89 0 131.5 27t42.5 84q0 50 -38 73t-121 23h-211v-207h196zM639 203q98 0 144 25t46 79q0 107 -194 107h-221v-211h225z
" />
    <glyph glyph-name="uni0433" unicode="&#x433;" horiz-adv-x="872" 
d="M135 1001h707v-241h-428v-760h-279v1001z" />
    <glyph glyph-name="uni0434" unicode="&#x434;" horiz-adv-x="1247" 
d="M248 0v-274h-264v518h36q56 -2 109 45.5t80 126.5q56 154 70 585h823v-757h110v-518h-264v274h-700zM807 760h-277l-2 -31q-6 -39 -10 -127q-14 -141 -45.5 -221t-97.5 -137h432v516z" />
    <glyph glyph-name="uni0435" unicode="&#x435;" horiz-adv-x="1198" 
d="M369 457q5 -131 67 -200t176 -69q79 0 134.5 31.5t105.5 102.5l258 -41q-63 -155 -187.5 -234.5t-301.5 -79.5q-244 0 -391.5 145.5t-147.5 387.5q0 243 142.5 388.5t381.5 145.5t376.5 -144t137.5 -396v-37h-751zM852 635q-23 97 -84.5 148t-155.5 51q-93 0 -154 -52
t-81 -147h475z" />
    <glyph glyph-name="uni0436" unicode="&#x436;" horiz-adv-x="1583" 
d="M657 414h-45l-325 -414h-318l416 520l-373 481h305l293 -399h47v399h271v-399h47l293 399h303l-371 -481l416 -520h-318l-325 414h-45v-414h-271v414z" />
    <glyph glyph-name="uni0437" unicode="&#x437;" horiz-adv-x="1030" 
d="M203 612h207q215 0 215 86q0 93 -232 93q-164 0 -319 -41v241q205 43 391 43q223 0 340 -75t117 -218q0 -74 -33.5 -124t-106.5 -89q79 -32 121.5 -95t42.5 -148q0 -70 -32.5 -133t-88.5 -99q-131 -86 -393 -86q-210 0 -385 49v238q205 -41 352 -41q118 0 183 25t65 71
q0 97 -233 97h-211v206z" />
    <glyph glyph-name="uni0438" unicode="&#x438;" horiz-adv-x="1191" 
d="M135 1001h275v-587l403 587h244v-1001h-275v575l-403 -575h-244v1001z" />
    <glyph glyph-name="uni0439" unicode="&#x439;" horiz-adv-x="1191" 
d="M410 1503q26 -76 69.5 -110.5t114.5 -34.5q73 0 117.5 34t70.5 111h195q-20 -151 -122.5 -238t-260.5 -87q-155 0 -257 87t-122 238h195zM135 1001h275v-587l403 587h244v-1001h-275v575l-403 -575h-244v1001z" />
    <glyph glyph-name="uni043A" unicode="&#x43a;" horiz-adv-x="1114" 
d="M135 1001h279v-450l354 450h305l-397 -481l440 -520h-325l-377 457v-457h-279v1001z" />
    <glyph glyph-name="uni043B" unicode="&#x43b;" horiz-adv-x="1167" 
d="M750 760h-275q-17 -293 -41 -434q-18 -91 -47.5 -150t-79.5 -100q-101 -78 -239 -78q-33 0 -84 2v242q37 0 62 4.5t48.5 20t37.5 37t27.5 65t20.5 94t13.5 134.5t10 176t7.5 228h819v-1001h-280v760z" />
    <glyph glyph-name="uni043C" unicode="&#x43c;" horiz-adv-x="1501" 
d="M242 1001h260l250 -657l249 657h263l176 -1001h-277l-88 594l-235 -594h-183l-227 594l-90 -594h-274z" />
    <glyph glyph-name="uni043D" unicode="&#x43d;" horiz-adv-x="1212" 
d="M135 1001h279v-360h385v360h280v-1001h-280v406h-385v-406h-279v1001z" />
    <glyph glyph-name="uni043E" unicode="&#x43e;" horiz-adv-x="1306" 
d="M657 1034q252 0 411 -148t159 -384q0 -238 -161 -386.5t-419 -148.5q-251 0 -408 151t-157 392q0 229 161.5 376.5t413.5 147.5zM653 782q-116 0 -199 -82t-83 -196q0 -120 82 -202.5t202 -82.5q116 0 199.5 82.5t83.5 198.5q0 118 -83.5 200t-201.5 82z" />
    <glyph glyph-name="uni043F" unicode="&#x43f;" horiz-adv-x="1200" 
d="M135 1001h932v-1001h-281v760h-372v-760h-279v1001z" />
    <glyph glyph-name="uni0440" unicode="&#x440;" horiz-adv-x="1316" 
d="M135 -535v1536h279v-129q67 85 146 123.5t183 38.5q212 0 352 -152.5t140 -381.5q0 -148 -64 -270.5t-176 -192.5t-247 -70q-101 0 -180 38.5t-154 123.5v-664h-279zM664 782q-116 0 -197.5 -81.5t-81.5 -198.5q0 -118 82.5 -200.5t198.5 -82.5q115 0 197.5 82.5
t82.5 196.5q0 120 -81.5 202t-200.5 82z" />
    <glyph glyph-name="uni0441" unicode="&#x441;" horiz-adv-x="964" 
d="M887 696q-61 47 -113 66.5t-115 19.5q-124 0 -206 -80t-82 -202q0 -121 81.5 -201t206.5 -80q64 0 116.5 19.5t111.5 64.5v-272q-123 -64 -258 -64q-152 0 -277.5 69.5t-197.5 191t-72 268.5q0 150 72 273.5t198 194t279 70.5q138 0 256 -59v-279z" />
    <glyph glyph-name="uni0442" unicode="&#x442;" horiz-adv-x="878" 
d="M297 760h-279v241h842v-241h-276v-760h-287v760z" />
    <glyph glyph-name="uni0443" unicode="&#x443;" horiz-adv-x="1239" 
d="M2 1001h326l301 -569l284 569h322l-809 -1536h-317l368 685z" />
    <glyph glyph-name="uni0444" unicode="&#x444;" horiz-adv-x="1830" 
d="M780 37q-70 -42 -120 -57t-121 -15q-201 0 -327 148.5t-126 386.5t126 386t327 148q72 0 119.5 -14t121.5 -57v415h271v-415q72 43 120.5 57t120.5 14q201 0 327 -148t126 -386t-126 -386.5t-327 -148.5q-71 0 -121 15t-120 57v-572h-271v572zM780 694q-50 50 -90.5 69
t-95.5 19q-102 0 -163.5 -77t-61.5 -205q0 -129 61.5 -206t163.5 -77q55 0 95.5 19t90.5 69v389zM1051 305q52 -51 91 -69.5t93 -18.5q103 0 165 77t62 206t-62 205.5t-165 76.5q-54 0 -93 -18.5t-91 -69.5v-389z" />
    <glyph glyph-name="uni0445" unicode="&#x445;" horiz-adv-x="1300" 
d="M92 1001h354l209 -258l211 258h357l-394 -456l469 -545h-358l-287 350l-291 -350h-360l477 545z" />
    <glyph glyph-name="uni0446" unicode="&#x446;" horiz-adv-x="1214" 
d="M135 1001h279v-757h372v757h281v-757h111v-518h-265v274h-778v1001z" />
    <glyph glyph-name="uni0447" unicode="&#x447;" horiz-adv-x="1122" 
d="M709 252q-100 -23 -187 -23q-239 0 -338.5 110.5t-99.5 375.5v286h278v-307q0 -123 42 -171t149 -48q82 0 156 29v497h280v-1001h-280v252z" />
    <glyph glyph-name="uni0448" unicode="&#x448;" horiz-adv-x="1740" 
d="M135 1001h287v-757h309v757h279v-757h307v757h287v-1001h-1469v1001z" />
    <glyph glyph-name="uni0449" unicode="&#x449;" horiz-adv-x="1755" 
d="M135 1001h287v-757h309v757h279v-757h307v757h287v-757h110v-518h-262v274h-1317v1001z" />
    <glyph glyph-name="uni044A" unicode="&#x44a;" horiz-adv-x="1191" 
d="M236 760h-240v241h520v-311h193q213 0 307 -61q131 -87 131 -277q0 -172 -105.5 -262t-306.5 -90h-499v760zM688 195q109 0 157 34.5t48 112.5q0 80 -49 116t-156 36h-172v-299h172z" />
    <glyph glyph-name="uni044B" unicode="&#x44b;" horiz-adv-x="1605" 
d="M135 1001h279v-311h192q218 0 307 -61q134 -89 134 -277q0 -172 -105.5 -262t-306.5 -90h-500v1001zM1178 1001h295v-1001h-295v1001zM584 195q110 0 158.5 35t48.5 114q0 78 -48 114t-155 36h-174v-299h170z" />
    <glyph glyph-name="uni044C" unicode="&#x44c;" horiz-adv-x="1091" 
d="M135 1001h279v-311h192q218 0 307 -61q134 -89 134 -277q0 -172 -105.5 -262t-306.5 -90h-500v1001zM584 195q110 0 158.5 35t48.5 114q0 78 -48 114t-155 36h-174v-299h170z" />
    <glyph glyph-name="uni044D" unicode="&#x44d;" horiz-adv-x="1132" 
d="M268 600h480q-22 51 -34.5 71.5t-33.5 41.5q-91 88 -248 88q-94 0 -156.5 -16t-179.5 -70v252q114 38 200 52.5t189 14.5q254 0 406.5 -145.5t152.5 -388.5q0 -254 -156 -394.5t-437 -140.5q-107 0 -190 15.5t-183 52.5v246q114 -50 181.5 -66t160.5 -16q180 0 274 104
q34 40 56 109h-482v190z" />
    <glyph glyph-name="uni044E" unicode="&#x44e;" horiz-adv-x="1769" 
d="M147 1001h281v-380h174q28 96 52.5 145t68.5 94q73 82 179.5 125t232.5 43q241 0 394.5 -148.5t153.5 -379.5q0 -232 -153.5 -380.5t-394.5 -148.5q-211 0 -349.5 107.5t-185.5 308.5h-172v-387h-281v1001zM1135 776q-122 0 -198.5 -76.5t-76.5 -197.5q0 -126 75 -201.5
t200 -75.5q123 0 197.5 76t74.5 199t-75.5 199.5t-196.5 76.5z" />
    <glyph glyph-name="uni044F" unicode="&#x44f;" horiz-adv-x="1128" 
d="M707 336l-19 2l-303 -338h-330l375 379q-173 9 -260.5 84.5t-87.5 212.5q0 90 37.5 161t105.5 111q48 30 112 41.5t169 11.5h487v-1001h-286v336zM707 813h-148q-104 0 -151.5 -33.5t-47.5 -107.5q0 -79 48 -116.5t149 -37.5h150v295z" />
    <glyph glyph-name="uni0450" unicode="&#x450;" horiz-adv-x="1198" 
d="M487 1620l277 -350l-135 -92l-346 313zM369 457q5 -131 67 -200t176 -69q79 0 134.5 31.5t105.5 102.5l258 -41q-63 -155 -187.5 -234.5t-301.5 -79.5q-244 0 -391.5 145.5t-147.5 387.5q0 243 142.5 388.5t381.5 145.5t376.5 -144t137.5 -396v-37h-751zM852 635
q-23 97 -84.5 148t-155.5 51q-93 0 -154 -52t-81 -147h475z" />
    <glyph glyph-name="uni0451" unicode="&#x451;" horiz-adv-x="1198" 
d="M369 1524q67 0 115 -49.5t48 -118.5t-47.5 -117.5t-115.5 -48.5q-71 0 -119.5 49t-48.5 119q0 67 50 116.5t118 49.5zM848 1524q69 0 117.5 -49.5t48.5 -118.5t-48.5 -117.5t-117.5 -48.5q-70 0 -119 49t-49 119q0 67 50 116.5t118 49.5zM369 457q5 -131 67 -200t176 -69
q79 0 134.5 31.5t105.5 102.5l258 -41q-63 -155 -187.5 -234.5t-301.5 -79.5q-244 0 -391.5 145.5t-147.5 387.5q0 243 142.5 388.5t381.5 145.5t376.5 -144t137.5 -396v-37h-751zM852 635q-23 97 -84.5 148t-155.5 51q-93 0 -154 -52t-81 -147h475z" />
    <glyph glyph-name="uni0452" unicode="&#x452;" horiz-adv-x="1193" 
d="M690 -541q-97 0 -143 19v250q45 -25 98 -25q58 0 91.5 34t33.5 126v721q0 99 -37.5 142.5t-124.5 43.5q-97 0 -151 -72q-24 -31 -33.5 -70.5t-9.5 -107.5v-520h-293v1235h-123v172h123v281h293v-281h381v-172h-381v-365q78 89 147 123.5t166 34.5q86 0 157 -35t115 -100
q62 -89 62 -256v-727q0 -152 -30 -232.5t-91 -128.5q-112 -90 -250 -90z" />
    <glyph glyph-name="uni0453" unicode="&#x453;" horiz-adv-x="872" 
d="M473 1178l-133 92l276 350l203 -129zM135 1001h707v-241h-428v-760h-279v1001z" />
    <glyph glyph-name="uni0454" unicode="&#x454;" horiz-adv-x="1132" 
d="M379 410q20 -55 31.5 -77t35.5 -44q95 -92 265 -92q93 0 158 16t182 66v-246q-98 -38 -181 -53t-194 -15q-280 0 -435 140.5t-155 394.5q0 243 152 388.5t407 145.5q102 0 186.5 -14.5t200.5 -52.5v-252q-117 54 -179.5 70t-154.5 16q-123 0 -197 -47t-120 -154h479v-190
h-481z" />
    <glyph glyph-name="uni0455" unicode="&#x455;" horiz-adv-x="931" 
d="M242 319q89 -118 209 -118q51 0 82.5 27t31.5 69q0 40 -45.5 72t-152.5 69q-126 40 -181 103.5t-55 167.5q0 146 101 237.5t260 91.5q94 0 166 -31.5t139 -103.5l-166 -166q-61 76 -146 76q-34 0 -60 -21.5t-26 -50.5q0 -33 33.5 -55.5t112.5 -46.5q303 -86 303 -315
q0 -157 -113 -258t-286 -101q-247 0 -379 189z" />
    <glyph glyph-name="uni0456" unicode="&#x456;" horiz-adv-x="555" 
d="M274 1571q70 0 119 -49.5t49 -120.5q0 -72 -47.5 -122t-115.5 -50q-71 0 -119.5 50.5t-48.5 123.5q0 68 49 118t114 50zM414 0h-279v1008h279v-1008z" />
    <glyph glyph-name="uni0457" unicode="&#x457;" horiz-adv-x="540" 
d="M33 1524q67 0 115.5 -49.5t48.5 -118.5t-48 -117.5t-116 -48.5q-69 0 -118.5 49t-49.5 119q0 67 50 116.5t118 49.5zM512 1524q69 0 117.5 -49.5t48.5 -118.5t-48.5 -117.5t-117.5 -48.5t-118.5 49t-49.5 119q0 67 50 116.5t118 49.5zM412 0h-281v1001h281v-1001z" />
    <glyph glyph-name="uni0458" unicode="&#x458;" horiz-adv-x="555" 
d="M270 1257q-70 0 -119 49.5t-49 120.5q0 68 49.5 118t118.5 50t118.5 -50t49.5 -120q0 -69 -49.5 -118.5t-118.5 -49.5zM47 -541q-95 0 -141 19v250q45 -25 98 -25q58 0 91.5 34t33.5 126v1138h281v-1091q0 -150 -30 -230.5t-89 -130.5q-107 -90 -244 -90z" />
    <glyph glyph-name="uni0459" unicode="&#x459;" horiz-adv-x="1685" 
d="M729 760h-254q-11 -194 -18.5 -269t-22.5 -165q-18 -91 -47.5 -150t-79.5 -100q-93 -78 -239 -78q-33 0 -84 2v242q37 0 62 4.5t48.5 20t37.5 37t27.5 65t20.5 94t13.5 134.5t10 176t7.5 228h799v-311h190q215 0 309 -61q131 -87 131 -277q0 -172 -105 -262t-306 -90
h-500v760zM1180 195q109 0 157.5 34.5t48.5 112.5q0 79 -49.5 115.5t-156.5 36.5h-170v-299h170z" />
    <glyph glyph-name="uni045A" unicode="&#x45a;" horiz-adv-x="1755" 
d="M135 1001h279v-311h385v311h280v-311h191q215 0 309 -61q131 -89 131 -277q0 -172 -105.5 -262t-306.5 -90h-499v453h-385v-453h-279v1001zM1247 195q111 0 160 35t49 114q0 78 -49 114t-156 36h-172v-299h168z" />
    <glyph glyph-name="uni045B" unicode="&#x45b;" horiz-adv-x="1193" 
d="M121 1235h-123v172h123v281h293v-281h381v-172h-381v-365q78 89 147 123.5t166 34.5q86 0 157 -35t115 -100q62 -89 62 -256v-637h-291v584q0 99 -37.5 142.5t-124.5 43.5q-97 0 -151 -72q-24 -31 -33.5 -70.5t-9.5 -107.5v-520h-293v1235z" />
    <glyph glyph-name="uni045C" unicode="&#x45c;" horiz-adv-x="1114" 
d="M590 1178l-133 92l274 350l207 -129zM135 1001h279v-450l354 450h305l-397 -481l440 -520h-325l-377 457v-457h-279v1001z" />
    <glyph glyph-name="uni045D" unicode="&#x45d;" horiz-adv-x="1191" 
d="M559 1620l277 -350l-131 -92l-349 313zM135 1001h275v-587l403 587h244v-1001h-275v575l-403 -575h-244v1001z" />
    <glyph glyph-name="uni045E" unicode="&#x45e;" horiz-adv-x="1239" 
d="M434 1503q29 -77 73 -111t116 -34t115 34t69 111h194q-19 -151 -120 -238t-258 -87q-158 0 -260 87t-119 238h190zM2 1001h326l301 -569l284 569h322l-809 -1536h-317l368 685z" />
    <glyph glyph-name="uni045F" unicode="&#x45f;" horiz-adv-x="1200" 
d="M135 1001h279v-757h372v757h281v-1001h-336v-274h-264v274h-332v1001z" />
    <glyph glyph-name="uni0490" unicode="&#x490;" horiz-adv-x="1105" 
d="M178 1544h621v158h270v-420h-590v-1282h-301v1544z" />
    <glyph glyph-name="uni0491" unicode="&#x491;" horiz-adv-x="872" 
d="M135 1001h451v158h256v-399h-428v-760h-279v1001z" />
    <glyph glyph-name="uni0492" unicode="&#x492;" horiz-adv-x="1118" 
d="M178 645h-143v250h143v649h901v-262h-592v-387h353v-250h-353v-645h-309v645z" />
    <glyph glyph-name="uni0493" unicode="&#x493;" horiz-adv-x="854" 
d="M135 319h-110v222h110v460h690v-243h-411v-217h256v-222h-256v-319h-279v319z" />
    <glyph glyph-name="uni0496" unicode="&#x496;" horiz-adv-x="2148" 
d="M2150 262v-559h-270v297h-94l-492 672h-69v-672h-297v672h-70l-496 -672h-366l606 791l-559 753h346l453 -633h86v633h297v-633h86l450 633h344l-557 -753l408 -529h194z" />
    <glyph glyph-name="uni0497" unicode="&#x497;" horiz-adv-x="1583" 
d="M1616 244v-518h-264v274h-54l-325 416h-45v-416h-271v416h-45l-325 -416h-318l416 520l-373 481h305l293 -399h47v399h271v-399h47l293 399h303l-371 -481l221 -276h195z" />
    <glyph glyph-name="uni049A" unicode="&#x49a;" horiz-adv-x="1439" 
d="M1432 262v-559h-271v297h-94l-588 737v-737h-301v1544h301v-725l561 725h355l-617 -753l447 -529h207z" />
    <glyph glyph-name="uni049B" unicode="&#x49b;" horiz-adv-x="1114" 
d="M1116 244v-518h-264v274h-61l-377 457v-457h-279v1001h279v-450l354 450h305l-397 -481l235 -276h205z" />
    <glyph glyph-name="uni049C" unicode="&#x49c;" horiz-adv-x="1501" 
d="M174 1544h301v-647h109v369h143v-363l401 641h355l-500 -753l549 -791h-377l-428 655v-372h-143v372h-109v-655h-301v1544z" />
    <glyph glyph-name="uni049D" unicode="&#x49d;" horiz-adv-x="1200" 
d="M135 1001h279v-358h92v211h121v-209l235 356h309l-327 -473l368 -528h-323l-262 408v-246h-121v246h-92v-408h-279v1001z" />
    <glyph glyph-name="uni04A2" unicode="&#x4a2;" horiz-adv-x="1607" 
d="M1554 262v-559h-270v297h-151v678h-654v-678h-301v1544h301v-604h654v604h299v-1282h122z" />
    <glyph glyph-name="uni04A3" unicode="&#x4a3;" horiz-adv-x="1212" 
d="M1176 244v-518h-265v274h-112v406h-385v-406h-279v1001h279v-360h385v360h280v-757h97z" />
    <glyph glyph-name="uni04AE" unicode="&#x4ae;" horiz-adv-x="1349" 
d="M-12 1544h356l332 -536l328 536h360l-543 -835v-709h-301v709z" />
    <glyph glyph-name="uni04AF" unicode="&#x4af;" horiz-adv-x="1163" 
d="M-6 1001h321l279 -698l262 698h313l-421 -948v-588h-302v588z" />
    <glyph glyph-name="uni04B0" unicode="&#x4b0;" horiz-adv-x="1384" 
d="M532 350h-258v252h258v113l-542 829h360l342 -532l336 532h363l-557 -829v-113h268v-252h-268v-350h-302v350z" />
    <glyph glyph-name="uni04B1" unicode="&#x4b1;" horiz-adv-x="1247" 
d="M207 -227v227h268v82l-461 917h326l285 -667l288 667h322l-463 -921v-78h262v-227h-262v-308h-297v308h-268z" />
    <glyph glyph-name="uni04B2" unicode="&#x4b2;" horiz-adv-x="1445" 
d="M1473 262v-559h-273v297h-121l-348 565l-358 -565h-357l547 817l-461 727h361l272 -479l285 479h358l-471 -727l357 -555h209z" />
    <glyph glyph-name="uni04B3" unicode="&#x4b3;" horiz-adv-x="1300" 
d="M1278 244v-518h-264v274h-74l-287 350l-291 -350h-360l477 547l-387 454h354l209 -258l211 258h357l-394 -454l258 -303h191z" />
    <glyph glyph-name="uni04B6" unicode="&#x4b6;" horiz-adv-x="1464" 
d="M989 0v487q-193 -28 -295 -28q-181 0 -315 53t-203 152q-86 130 -86 401v479h301v-452q0 -120 13 -178.5t49 -100.5q82 -94 278 -94q128 0 258 41v784h299v-1282h152v-559h-271v297h-180z" />
    <glyph glyph-name="uni04B7" unicode="&#x4b7;" horiz-adv-x="1122" 
d="M709 0v254q-100 -23 -187 -23q-239 0 -338.5 110t-99.5 374v286h278v-307q0 -123 41.5 -170t149.5 -47q83 0 156 27v497h280v-757h105v-518h-263v274h-122z" />
    <glyph glyph-name="uni04B8" unicode="&#x4b8;" horiz-adv-x="1464" 
d="M629 461q-293 26 -415.5 164t-119.5 440v479h301v-452q-4 -178 47.5 -258t186.5 -105v434h143v-444q126 10 221 41v784h301v-1544h-301v487q-135 -20 -221 -26v-287h-143v287z" />
    <glyph glyph-name="uni04B9" unicode="&#x4b9;" horiz-adv-x="1122" 
d="M481 231q-220 12 -308.5 120t-88.5 364v286h278v-309q-2 -100 25 -147t94 -64v287h121v-291q44 4 107 27v497h280v-1001h-280v252l-107 -19v-167h-121v165z" />
    <glyph glyph-name="uni04BA" unicode="&#x4ba;" horiz-adv-x="1474" 
d="M178 1544h305v-684q116 96 217 136t224 40q117 0 209 -41.5t143 -117.5q61 -88 61 -279v-598h-288v532q0 129 -45 177q-61 61 -187 61q-95 0 -175 -42t-159 -134v-594h-305v1544z" />
    <glyph glyph-name="uni04BB" unicode="&#x4bb;" horiz-adv-x="1210" 
d="M416 1688v-785q65 70 131.5 99.5t159.5 29.5q107 0 191 -45t130 -125q26 -43 35.5 -95t9.5 -140v-627h-278v555q0 123 -41.5 178t-135.5 55t-145 -57q-26 -26 -41.5 -85t-15.5 -134v-512h-279v1688h279z" />
    <glyph glyph-name="uni04C0" unicode="&#x4c0;" horiz-adv-x="655" 
d="M178 1544h301v-1544h-301v1544z" />
    <glyph glyph-name="uni04CF" unicode="&#x4cf;" horiz-adv-x="655" 
d="M178 1544h301v-1544h-301v1544z" />
    <glyph glyph-name="uni04D8" unicode="&#x4d8;" horiz-adv-x="1847" 
d="M1440 840q-31 207 -173.5 336t-340.5 129q-309 0 -463 -295l-266 147q95 192 294.5 308t434.5 116q169 0 321.5 -63.5t262 -172t173.5 -259t64 -318.5q0 -167 -64 -317t-174 -258t-262.5 -171t-322.5 -63q-135 0 -261.5 39.5t-227.5 112.5t-177 170.5t-117 219t-41 251.5
q0 45 4 88h1336zM434 606q42 -122 105 -196q67 -81 171.5 -129t213.5 -48q108 0 214.5 48.5t172.5 126.5q62 77 98 198h-975z" />
    <glyph glyph-name="uni04D9" unicode="&#x4d9;" horiz-adv-x="1245" 
d="M868 549q-3 96 -32 156q-29 58 -88 93.5t-127 35.5q-155 0 -236 -150l-281 23q60 151 196 236t316 85q243 0 397 -146t154 -376q0 -233 -153 -384t-391 -151q-181 0 -313.5 90t-194.5 254q-22 61 -29.5 106.5t-7.5 127.5h790zM373 391q17 -104 84.5 -165.5t163.5 -61.5
q97 0 164 62.5t77 164.5h-489z" />
    <glyph glyph-name="uni04E2" unicode="&#x4e2;" horiz-adv-x="1615" 
d="M1194 1927v-184h-770v184h770zM178 1544h289v-1040l745 1040h228v-1544h-289v1028l-745 -1028h-228v1544z" />
    <glyph glyph-name="uni04E3" unicode="&#x4e3;" horiz-adv-x="1191" 
d="M965 1460v-184h-740v184h740zM135 1001h275v-587l403 587h244v-1001h-275v575l-403 -575h-244v1001z" />
    <glyph glyph-name="uni04E8" unicode="&#x4e8;" horiz-adv-x="1847" 
d="M938 1581q219 0 405.5 -109t295 -296t108.5 -408q0 -167 -64 -317t-174 -258t-262.5 -171t-322.5 -63q-230 0 -419 106t-297 292.5t-108 414.5q0 169 64.5 319.5t176 257.5t267 169.5t330.5 62.5zM1430 885q-35 187 -176 303.5t-330 116.5q-188 0 -326.5 -115
t-181.5 -305h1014zM420 651q43 -189 181 -303.5t323 -114.5t322 113.5t181 304.5h-1007z" />
    <glyph glyph-name="uni04E9" unicode="&#x4e9;" horiz-adv-x="1300" 
d="M651 1028q247 0 408.5 -151t161.5 -381q0 -229 -163 -377t-415 -148q-243 0 -404 153t-161 386q0 108 44 204t120 165t182.5 109t226.5 40zM940 588q-17 63 -47 106q-39 54 -106 87.5t-140 33.5q-107 0 -181 -59t-106 -168h580zM362 414q66 -226 285 -226q78 0 149 36.5
t105 94.5q19 38 37 95h-576z" />
    <glyph glyph-name="uni04EE" unicode="&#x4ee;" horiz-adv-x="1333" 
d="M1065 1927v-184h-770v184h770zM516 584l-512 960h352l322 -676l323 676h353l-854 -1544h-320z" />
    <glyph glyph-name="uni04EF" unicode="&#x4ef;" horiz-adv-x="1239" 
d="M989 1460v-184h-741v184h741zM2 1001h326l301 -569l284 569h322l-809 -1536h-317l368 685z" />
    <glyph glyph-name="uni1E1E" unicode="&#x1e1e;" horiz-adv-x="1081" 
d="M604 2044q71 0 122.5 -51t51.5 -123q0 -70 -52 -122t-122 -52q-73 0 -124.5 52t-51.5 124q0 70 51.5 121t124.5 51zM479 1282v-342h484v-262h-484v-678h-301v1544h817v-262h-516z" />
    <glyph glyph-name="Wgrave" unicode="&#x1e80;" horiz-adv-x="2258" 
d="M1026 2105l315 -307l-120 -112l-387 262zM666 494l378 1062h164l359 -1062l370 1050h318l-582 -1575h-211l-342 1010l-360 -1010h-211l-547 1575h317z" />
    <glyph glyph-name="wgrave" unicode="&#x1e81;" horiz-adv-x="1832" 
d="M848 1620l274 -350l-131 -92l-348 313zM582 424l272 606h121l272 -616l269 587h313l-518 -1021h-129l-271 608l-266 -608h-129l-514 1021h315z" />
    <glyph glyph-name="Wacute" unicode="&#x1e82;" horiz-adv-x="2258" 
d="M997 1686l-125 112l320 307l192 -157zM666 494l378 1062h164l359 -1062l370 1050h318l-582 -1575h-211l-342 1010l-360 -1010h-211l-547 1575h317z" />
    <glyph glyph-name="wacute" unicode="&#x1e83;" horiz-adv-x="1832" 
d="M807 1178l-131 92l274 350l205 -129zM582 424l272 606h121l272 -616l269 587h313l-518 -1021h-129l-271 608l-266 -608h-129l-514 1021h315z" />
    <glyph glyph-name="Wdieresis" unicode="&#x1e84;" horiz-adv-x="2258" 
d="M885 2044q69 0 117.5 -48t48.5 -116q0 -70 -48.5 -119t-117.5 -49q-71 0 -119.5 49t-48.5 119q0 67 50 115.5t118 48.5zM1372 2044q69 0 117.5 -48t48.5 -116q0 -70 -48.5 -119t-117.5 -49t-117.5 49t-48.5 119q0 67 49 115.5t117 48.5zM666 494l378 1062h164l359 -1062
l370 1050h318l-582 -1575h-211l-342 1010l-360 -1010h-211l-547 1575h317z" />
    <glyph glyph-name="wdieresis" unicode="&#x1e85;" horiz-adv-x="1832" 
d="M676 1524q67 0 115.5 -49.5t48.5 -118.5t-48 -117.5t-116 -48.5q-69 0 -117.5 49t-48.5 119q0 68 49 117t117 49zM1155 1524q69 0 117.5 -49.5t48.5 -118.5t-48.5 -117.5t-117.5 -48.5t-117.5 49t-48.5 119q0 68 49.5 117t116.5 49zM582 424l272 606h121l272 -616
l269 587h313l-518 -1021h-129l-271 608l-266 -608h-129l-514 1021h315z" />
    <glyph glyph-name="uni1E9E" unicode="&#x1e9e;" horiz-adv-x="1466" 
d="M1036 885q172 -83 260 -187.5t88 -248.5q0 -216 -137 -341.5t-375 -125.5q-139 0 -274 38v297q130 -73 264 -73q90 0 150.5 52t60.5 150q0 107 -87 180t-308 142l254 528q-89 19 -182 19t-150.5 -20.5t-89 -71t-42.5 -119t-11 -180.5v-924h-301v1014q0 298 142.5 431.5
t426.5 133.5q339 0 582 -156z" />
    <glyph glyph-name="uni1EA0" unicode="&#x1ea0;" horiz-adv-x="1550" 
d="M461 326l-139 -326h-320l670 1577h225l649 -1577h-321l-133 326h-631zM782 1124l-225 -555h440zM748 -174q76 0 129 -52.5t53 -127.5q0 -76 -52.5 -129.5t-127.5 -53.5q-76 0 -129.5 53.5t-53.5 129.5q0 74 54 127t127 53z" />
    <glyph glyph-name="uni1EA1" unicode="&#x1ea1;" horiz-adv-x="1316" 
d="M1182 1001v-1001h-279v129q-67 -85 -146.5 -123.5t-183.5 -38.5q-212 0 -351.5 153t-139.5 382q0 111 38 210t102.5 169.5t155 111.5t191.5 41q102 0 181 -38.5t153 -123.5v129h279zM653 782q-118 0 -200 -81.5t-82 -198.5q0 -118 82.5 -200.5t199.5 -82.5
q114 0 196.5 82.5t82.5 196.5q0 120 -81 202t-198 82zM639 -92q75 0 128.5 -53t53.5 -127q0 -76 -53 -130.5t-127 -54.5q-76 0 -130 54t-54 131q0 73 54 126.5t128 53.5z" />
    <glyph glyph-name="uni1EA2" unicode="&#x1ea2;" horiz-adv-x="1550" 
d="M717 1726v168l16 7q55 8 70 8q68 11 90 25t22 48q0 39 -27.5 60.5t-78.5 21.5q-32 0 -42.5 -3t-41.5 -21l-29 -12l-6 -5l-14 -8l-41 105l20 10q109 41 201 41q104 0 170 -55t66 -140q0 -76 -52.5 -118.5t-146.5 -42.5h-53v-89h-123zM461 326l-139 -326h-320l670 1577h225
l649 -1577h-321l-133 326h-631zM782 1124l-225 -555h440z" />
    <glyph glyph-name="uni1EA3" unicode="&#x1ea3;" horiz-adv-x="1316" 
d="M518 1155v168l17 6q55 8 69 8q68 11 90.5 25.5t22.5 48.5q0 38 -28 60t-79 22q-31 0 -41.5 -3.5t-42.5 -23.5l-28 -10l-6 -4l-15 -8l-43 104l15 6l8 2q107 43 200 43q104 0 170 -54.5t66 -139.5q0 -76 -52.5 -119t-146.5 -43h-53v-88h-123zM1182 1001v-1001h-279v129
q-67 -85 -146.5 -123.5t-183.5 -38.5q-212 0 -351.5 153t-139.5 382q0 111 38 210t102.5 169.5t155 111.5t191.5 41q102 0 181 -38.5t153 -123.5v129h279zM653 782q-118 0 -200 -81.5t-82 -198.5q0 -118 82.5 -200.5t199.5 -82.5q114 0 196.5 82.5t82.5 196.5q0 120 -81 202
t-198 82z" />
    <glyph glyph-name="uni1EA4" unicode="&#x1ea4;" horiz-adv-x="1550" 
d="M1294 2267l195 -160l-350 -235l61 -49l-145 -137l-252 206l-252 -206l-139 137l391 319l198 -160zM461 326l-139 -326h-320l670 1577h225l649 -1577h-321l-133 326h-631zM782 1124l-225 -555h440z" />
    <glyph glyph-name="uni1EA5" unicode="&#x1ea5;" horiz-adv-x="1316" 
d="M1102 1763l203 -129l-295 -268l59 -49l-143 -139l-254 213l-252 -213l-139 139l391 319l200 -161zM1182 1001v-1001h-279v129q-67 -85 -146.5 -123.5t-183.5 -38.5q-212 0 -351.5 153t-139.5 382q0 111 38 210t102.5 169.5t155 111.5t191.5 41q102 0 181 -38.5
t153 -123.5v129h279zM653 782q-118 0 -200 -81.5t-82 -198.5q0 -118 82.5 -200.5t199.5 -82.5q114 0 196.5 82.5t82.5 196.5q0 120 -81 202t-198 82z" />
    <glyph glyph-name="uni1EA6" unicode="&#x1ea6;" horiz-adv-x="1550" 
d="M1008 2351l315 -309l-123 -113l-385 264zM772 2142l397 -319l-143 -137l-254 206l-252 -206l-141 137zM461 326l-139 -326h-320l670 1577h225l649 -1577h-321l-133 326h-631zM782 1124l-225 -555h440z" />
    <glyph glyph-name="uni1EA7" unicode="&#x1ea7;" horiz-adv-x="1316" 
d="M844 1757l319 -311l-125 -111l-385 262zM610 1548l400 -319l-148 -139l-252 208l-252 -208l-141 139zM1182 1001v-1001h-279v129q-67 -85 -146.5 -123.5t-183.5 -38.5q-212 0 -351.5 153t-139.5 382q0 111 38 210t102.5 169.5t155 111.5t191.5 41q102 0 181 -38.5
t153 -123.5v129h279zM653 782q-118 0 -200 -81.5t-82 -198.5q0 -118 82.5 -200.5t199.5 -82.5q114 0 196.5 82.5t82.5 196.5q0 120 -81 202t-198 82z" />
    <glyph glyph-name="uni1EA8" unicode="&#x1ea8;" horiz-adv-x="1550" 
d="M1032 2058l17 2q23 3 38.5 6t20.5 4t10 1q68 11 90.5 25.5t22.5 49.5q0 37 -28 58.5t-79 21.5q-32 0 -42.5 -3t-43.5 -21l-26 -13l-8 -4q-7 -2 -13 -8l-43 104l15 9l6 2q115 41 202 41q104 0 170 -55.5t66 -141.5q0 -76 -52.5 -119t-146.5 -43q-28 0 -53 2v-88h-35
l78 -65l-143 -137l-252 206l-252 -206l-139 137l391 319l229 -182v98zM461 326l-139 -326h-320l670 1577h225l649 -1577h-321l-133 326h-631zM782 1124l-225 -555h440z" />
    <glyph glyph-name="uni1EA9" unicode="&#x1ea9;" horiz-adv-x="1316" 
d="M948 1532l17 2q58 11 69 12q67 7 90 22.5t23 51.5q0 38 -28 60t-79 22q-31 0 -41.5 -3.5t-42.5 -23.5l-49 -22l-41 104l21 8q113 43 200 43q104 0 170 -55t66 -143q0 -75 -53 -118.5t-146 -43.5q-26 0 -53 4v-88h-57l55 -47l-143 -139l-254 213l-252 -213l-139 139
l391 319l276 -223v119zM1182 1001v-1001h-279v129q-67 -85 -146.5 -123.5t-183.5 -38.5q-212 0 -351.5 153t-139.5 382q0 111 38 210t102.5 169.5t155 111.5t191.5 41q102 0 181 -38.5t153 -123.5v129h279zM653 782q-118 0 -200 -81.5t-82 -198.5q0 -118 82.5 -200.5
t199.5 -82.5q114 0 196.5 82.5t82.5 196.5q0 120 -81 202t-198 82z" />
    <glyph glyph-name="uni1EAA" unicode="&#x1eaa;" horiz-adv-x="1550" 
d="M395 2161q20 136 86.5 214.5t161.5 78.5q67 0 186 -48q85 -30 103.5 -35.5t42.5 -5.5q33 0 52.5 17t45.5 69h160q-26 -139 -97.5 -216.5t-174.5 -77.5q-30 0 -62 9t-98 36q-117 43 -156 43q-32 0 -53.5 -19t-38.5 -65h-158zM803 2142l397 -319l-145 -137l-252 206
l-252 -206l-139 137zM461 326l-139 -326h-320l670 1577h225l649 -1577h-321l-133 326h-631zM782 1124l-225 -555h440z" />
    <glyph glyph-name="uni1EAB" unicode="&#x1eab;" horiz-adv-x="1316" 
d="M238 1667q22 136 88 213.5t161 77.5q67 0 187 -47q80 -30 100.5 -35.5t44.5 -5.5q33 0 54 17.5t47 68.5h159q-26 -139 -98.5 -217t-175.5 -78q-49 0 -162 45q-104 43 -151 43q-33 0 -54.5 -18.5t-40.5 -63.5h-159zM672 1636l397 -319l-143 -139l-254 213l-252 -213
l-139 139zM1182 1001v-1001h-279v129q-67 -85 -146.5 -123.5t-183.5 -38.5q-212 0 -351.5 153t-139.5 382q0 111 38 210t102.5 169.5t155 111.5t191.5 41q102 0 181 -38.5t153 -123.5v129h279zM653 782q-118 0 -200 -81.5t-82 -198.5q0 -118 82.5 -200.5t199.5 -82.5
q114 0 196.5 82.5t82.5 196.5q0 120 -81 202t-198 82z" />
    <glyph glyph-name="uni1EAC" unicode="&#x1eac;" horiz-adv-x="1550" 
d="M803 2142l397 -319l-145 -137l-252 206l-252 -206l-139 137zM461 326l-139 -326h-320l670 1577h225l649 -1577h-321l-133 326h-631zM782 1124l-225 -555h440zM748 -55q76 0 129 -53.5t53 -127.5q0 -77 -52.5 -130.5t-127.5 -53.5q-76 0 -129.5 53.5t-53.5 130.5
q0 73 54.5 127t126.5 54z" />
    <glyph glyph-name="uni1EAD" unicode="&#x1ead;" horiz-adv-x="1316" 
d="M668 1636l399 -319l-143 -139l-256 213l-252 -213l-140 139zM1182 1001v-1001h-279v129q-67 -85 -146.5 -123.5t-183.5 -38.5q-212 0 -351.5 153t-139.5 382q0 111 38 210t102.5 169.5t155 111.5t191.5 41q102 0 181 -38.5t153 -123.5v129h279zM653 782
q-118 0 -200 -81.5t-82 -198.5q0 -118 82.5 -200.5t199.5 -82.5q114 0 196.5 82.5t82.5 196.5q0 120 -81 202t-198 82zM639 -92q75 0 128.5 -53t53.5 -127q0 -76 -53 -130.5t-127 -54.5q-76 0 -130 54t-54 131q0 73 54 126.5t128 53.5z" />
    <glyph glyph-name="uni1EAE" unicode="&#x1eae;" horiz-adv-x="1550" 
d="M784 1974l-122 111l317 311l192 -158zM588 2017q28 -77 71.5 -111t116.5 -34q72 0 115.5 34t69.5 111h194q-20 -149 -122 -236t-257 -87q-158 0 -260.5 86.5t-122.5 236.5h195zM461 326l-139 -326h-320l670 1577h225l649 -1577h-321l-133 326h-631zM782 1124l-225 -555
h440z" />
    <glyph glyph-name="uni1EAF" unicode="&#x1eaf;" horiz-adv-x="1316" 
d="M672 1407l-135 92l276 350l205 -129zM487 1503q26 -76 71 -110.5t116 -34.5q72 0 116 34t70 111h195q-19 -151 -121 -238t-260 -87q-157 0 -258.5 87t-120.5 238h192zM1182 1001v-1001h-279v129q-67 -85 -146.5 -123.5t-183.5 -38.5q-212 0 -351.5 153t-139.5 382
q0 111 38 210t102.5 169.5t155 111.5t191.5 41q102 0 181 -38.5t153 -123.5v129h279zM653 782q-118 0 -200 -81.5t-82 -198.5q0 -118 82.5 -200.5t199.5 -82.5q114 0 196.5 82.5t82.5 196.5q0 120 -81 202t-198 82z" />
    <glyph glyph-name="uni1EB0" unicode="&#x1eb0;" horiz-adv-x="1550" 
d="M571 2370l320 -310l-125 -112l-387 264zM588 2017q28 -77 71.5 -111t116.5 -34q72 0 115.5 34t69.5 111h194q-20 -149 -122 -236t-257 -87q-158 0 -260.5 86.5t-122.5 236.5h195zM461 326l-139 -326h-320l670 1577h225l649 -1577h-321l-133 326h-631zM782 1124l-225 -555
h440z" />
    <glyph glyph-name="uni1EB1" unicode="&#x1eb1;" horiz-adv-x="1316" 
d="M514 1870l274 -350l-133 -93l-348 314zM487 1503q26 -76 71 -110.5t116 -34.5q72 0 116 34t70 111h195q-19 -151 -121 -238t-260 -87q-157 0 -258.5 87t-120.5 238h192zM1182 1001v-1001h-279v129q-67 -85 -146.5 -123.5t-183.5 -38.5q-212 0 -351.5 153t-139.5 382
q0 111 38 210t102.5 169.5t155 111.5t191.5 41q102 0 181 -38.5t153 -123.5v129h279zM653 782q-118 0 -200 -81.5t-82 -198.5q0 -118 82.5 -200.5t199.5 -82.5q114 0 196.5 82.5t82.5 196.5q0 120 -81 202t-198 82z" />
    <glyph glyph-name="uni1EB2" unicode="&#x1eb2;" horiz-adv-x="1550" 
d="M700 1987v167l17 5q55 10 69 10q69 11 92 25t23 49q0 38 -28 59.5t-78 21.5q-33 0 -43.5 -3t-42.5 -23l-29 -12l-6 -5q-9 -2 -15 -6l-41 105l13 6l8 2q107 43 201 43q104 0 169.5 -55t65.5 -140q0 -77 -52 -120t-146 -43h-54v-86h-123zM588 2017q28 -77 71.5 -111
t116.5 -34q72 0 115.5 34t69.5 111h194q-20 -149 -122 -236t-257 -87q-158 0 -260.5 86.5t-122.5 236.5h195zM461 326l-139 -326h-320l670 1577h225l649 -1577h-321l-133 326h-631zM782 1124l-225 -555h440z" />
    <glyph glyph-name="uni1EB3" unicode="&#x1eb3;" horiz-adv-x="1316" 
d="M602 1448v172l16 2q64 12 70 12q68 11 90.5 25t22.5 49q0 38 -28 59t-79 21q-31 0 -41.5 -3t-44.5 -22l-26 -12l-9 -4l-14 -6l-41 104l10.5 3.5t10.5 4.5q105 41 202 41q103 0 169.5 -54t66.5 -138q0 -77 -53.5 -121.5t-145.5 -44.5q-28 0 -53 2v-90h-123zM487 1503
q26 -76 71 -110.5t116 -34.5q72 0 116 34t70 111h195q-19 -151 -121 -238t-260 -87q-157 0 -258.5 87t-120.5 238h192zM1182 1001v-1001h-279v129q-67 -85 -146.5 -123.5t-183.5 -38.5q-212 0 -351.5 153t-139.5 382q0 111 38 210t102.5 169.5t155 111.5t191.5 41
q102 0 181 -38.5t153 -123.5v129h279zM653 782q-118 0 -200 -81.5t-82 -198.5q0 -118 82.5 -200.5t199.5 -82.5q114 0 196.5 82.5t82.5 196.5q0 120 -81 202t-198 82z" />
    <glyph glyph-name="uni1EB4" unicode="&#x1eb4;" horiz-adv-x="1550" 
d="M385 2085q19 135 85 214t161 79q69 0 186 -47q85 -30 103.5 -35.5t42.5 -5.5q34 0 54 16t46 68h160q-26 -138 -99 -215.5t-176 -77.5q-54 0 -160 43q-112 45 -153 45q-33 0 -54 -19t-40 -65h-156zM588 2017q28 -77 71.5 -111t116.5 -34q72 0 115.5 34t69.5 111h194
q-20 -149 -122 -236t-257 -87q-158 0 -260.5 86.5t-122.5 236.5h195zM461 326l-139 -326h-320l670 1577h225l649 -1577h-321l-133 326h-631zM782 1124l-225 -555h440z" />
    <glyph glyph-name="uni1EB5" unicode="&#x1eb5;" horiz-adv-x="1316" 
d="M242 1569q20 136 87 214.5t163 78.5q60 0 184 -47q16 -6 35 -13.5t28 -11t20.5 -8t16.5 -6t12 -3.5t11.5 -2.5t9.5 -1t12 -0.5q34 0 53.5 17.5t47.5 71.5h159q-26 -135 -97.5 -214t-168.5 -79q-51 0 -91 11.5t-161 61.5q-34 15 -65 15q-36 0 -58 -19t-41 -65h-157z
M487 1503q26 -76 71 -110.5t116 -34.5q72 0 116 34t70 111h195q-19 -151 -121 -238t-260 -87q-157 0 -258.5 87t-120.5 238h192zM1182 1001v-1001h-279v129q-67 -85 -146.5 -123.5t-183.5 -38.5q-212 0 -351.5 153t-139.5 382q0 111 38 210t102.5 169.5t155 111.5t191.5 41
q102 0 181 -38.5t153 -123.5v129h279zM653 782q-118 0 -200 -81.5t-82 -198.5q0 -118 82.5 -200.5t199.5 -82.5q114 0 196.5 82.5t82.5 196.5q0 120 -81 202t-198 82z" />
    <glyph glyph-name="uni1EB6" unicode="&#x1eb6;" horiz-adv-x="1550" 
d="M588 2017q28 -77 71.5 -111t116.5 -34q72 0 115.5 34t69.5 111h194q-20 -149 -122 -236t-257 -87q-158 0 -260.5 86.5t-122.5 236.5h195zM461 326l-139 -326h-320l670 1577h225l649 -1577h-321l-133 326h-631zM782 1124l-225 -555h440zM748 -43q76 0 129 -53.5t53 -128.5
t-52.5 -129t-127.5 -54q-76 0 -129.5 54t-53.5 129q0 74 54 128t127 54z" />
    <glyph glyph-name="uni1EB7" unicode="&#x1eb7;" horiz-adv-x="1316" 
d="M483 1503q26 -77 70 -111t117 -34q72 0 115 34t71 111h195q-19 -150 -121.5 -237.5t-259.5 -87.5t-259 87t-122 238h194zM1182 1001v-1001h-279v129q-67 -85 -146.5 -123.5t-183.5 -38.5q-212 0 -351.5 153t-139.5 382q0 111 38 210t102.5 169.5t155 111.5t191.5 41
q102 0 181 -38.5t153 -123.5v129h279zM653 782q-118 0 -200 -81.5t-82 -198.5q0 -118 82.5 -200.5t199.5 -82.5q114 0 196.5 82.5t82.5 196.5q0 120 -81 202t-198 82zM639 -92q75 0 128.5 -53t53.5 -127q0 -76 -53 -130.5t-127 -54.5q-76 0 -130 54t-54 131q0 73 54 126.5
t128 53.5z" />
    <glyph glyph-name="uni1EB8" unicode="&#x1eb8;" horiz-adv-x="1144" 
d="M479 1282v-342h533v-262h-533v-416h553v-262h-854v1544h854v-262h-553zM610 -66q77 0 131 -52.5t54 -127.5t-54 -128.5t-129 -53.5t-128.5 53.5t-53.5 128.5q0 74 53.5 127t126.5 53z" />
    <glyph glyph-name="uni1EB9" unicode="&#x1eb9;" horiz-adv-x="1198" 
d="M369 457q5 -131 67 -200t176 -69q79 0 134.5 31.5t105.5 102.5l258 -41q-63 -155 -187.5 -234.5t-301.5 -79.5q-244 0 -391.5 145.5t-147.5 387.5q0 243 142.5 388.5t381.5 145.5t376.5 -144t137.5 -396v-37h-751zM852 635q-23 97 -84.5 148t-155.5 51q-93 0 -154 -52
t-81 -147h475zM598 -92q75 0 128.5 -53t53.5 -127q0 -76 -53 -130.5t-127 -54.5q-76 0 -130 54t-54 131q0 73 54 126.5t128 53.5z" />
    <glyph glyph-name="uni1EBA" unicode="&#x1eba;" horiz-adv-x="1144" 
d="M555 1722v168l16 4q60 11 70 11q68 11 90.5 25t22.5 48q0 38 -28 60t-79 22q-32 0 -42.5 -3t-41.5 -23l-28 -11l-7 -6q-8 -2 -14 -6l-41 105l12 6l9 2q107 43 200 43q104 0 170 -55t66 -140q0 -76 -52.5 -119t-146.5 -43h-53v-88h-123zM479 1282v-342h533v-262h-533v-416
h553v-262h-854v1544h854v-262h-553z" />
    <glyph glyph-name="uni1EBB" unicode="&#x1ebb;" horiz-adv-x="1198" 
d="M492 1151v168l14 4q57 10 69 10q69 11 92 25t23 49q0 39 -27.5 60.5t-78.5 21.5q-32 0 -43 -3.5t-43 -23.5l-29 -10l-6 -6l-14 -6l-41 104l14 6l6 2q107 43 201 43q104 0 170.5 -54.5t66.5 -139.5q0 -76 -53 -119t-147 -43h-54v-88h-120zM369 457q5 -131 67 -200t176 -69
q79 0 134.5 31.5t105.5 102.5l258 -41q-63 -155 -187.5 -234.5t-301.5 -79.5q-244 0 -391.5 145.5t-147.5 387.5q0 243 142.5 388.5t381.5 145.5t376.5 -144t137.5 -396v-37h-751zM852 635q-23 97 -84.5 148t-155.5 51q-93 0 -154 -52t-81 -147h475z" />
    <glyph glyph-name="uni1EBC" unicode="&#x1ebc;" horiz-adv-x="1144" 
d="M154 1716q19 136 84.5 214.5t160.5 78.5q70 0 187 -47q86 -31 103.5 -36t41.5 -5q34 0 55 17t48 69h159q-28 -140 -99.5 -217.5t-174.5 -77.5q-32 0 -64 9t-98 36q-111 43 -151 43q-34 0 -56 -19t-41 -65h-155zM479 1282v-342h533v-262h-533v-416h553v-262h-854v1544h854
v-262h-553z" />
    <glyph glyph-name="uni1EBD" unicode="&#x1ebd;" horiz-adv-x="1198" 
d="M180 1210q20 134 87.5 211.5t162.5 77.5q66 0 182 -45q77 -30 100.5 -36.5t47.5 -6.5q34 0 53 16.5t47 69.5h160q-26 -137 -98 -214t-174 -77q-60 0 -162 43q-114 43 -154 43q-32 0 -53.5 -19.5t-40.5 -62.5h-158zM369 457q5 -131 67 -200t176 -69q79 0 134.5 31.5
t105.5 102.5l258 -41q-63 -155 -187.5 -234.5t-301.5 -79.5q-244 0 -391.5 145.5t-147.5 387.5q0 243 142.5 388.5t381.5 145.5t376.5 -144t137.5 -396v-37h-751zM852 635q-23 97 -84.5 148t-155.5 51q-93 0 -154 -52t-81 -147h475z" />
    <glyph glyph-name="uni1EBE" unicode="&#x1ebe;" horiz-adv-x="1144" 
d="M1075 2275l193 -159l-332 -228l80 -65l-144 -137l-254 206l-251 -206l-140 137l391 319l179 -141zM479 1282v-342h533v-262h-533v-416h553v-262h-854v1544h854v-262h-553z" />
    <glyph glyph-name="uni1EBF" unicode="&#x1ebf;" horiz-adv-x="1198" 
d="M1022 1788l205 -129l-303 -273l88 -69l-146 -139l-254 213l-252 -213l-139 139l391 319l176 -141zM369 457q5 -131 67 -200t176 -69q79 0 134.5 31.5t105.5 102.5l258 -41q-63 -155 -187.5 -234.5t-301.5 -79.5q-244 0 -391.5 145.5t-147.5 387.5q0 243 142.5 388.5
t381.5 145.5t376.5 -144t137.5 -396v-37h-751zM852 635q-23 97 -84.5 148t-155.5 51q-93 0 -154 -52t-81 -147h475z" />
    <glyph glyph-name="uni1EC0" unicode="&#x1ec0;" horiz-adv-x="1144" 
d="M860 2351l320 -309l-125 -113l-385 264zM627 2142l399 -319l-147 -137l-252 206l-252 -206l-142 137zM479 1282v-342h533v-262h-533v-416h553v-262h-854v1544h854v-262h-553z" />
    <glyph glyph-name="uni1EC1" unicode="&#x1ec1;" horiz-adv-x="1198" 
d="M838 1794l317 -311l-123 -111l-387 262zM602 1585l397 -319l-143 -140l-254 209l-252 -209l-139 140zM369 457q5 -131 67 -200t176 -69q79 0 134.5 31.5t105.5 102.5l258 -41q-63 -155 -187.5 -234.5t-301.5 -79.5q-244 0 -391.5 145.5t-147.5 387.5q0 243 142.5 388.5
t381.5 145.5t376.5 -144t137.5 -396v-37h-751zM852 635q-23 97 -84.5 148t-155.5 51q-93 0 -154 -52t-81 -147h475z" />
    <glyph glyph-name="uni1EC2" unicode="&#x1ec2;" horiz-adv-x="1144" 
d="M866 2052l17 2l67 12q67 9 91 24t24 48q0 38 -28 60t-79 22q-32 0 -43 -3t-43 -22q-19 -9 -49 -22l-41 104l15 4l6 3q101 43 201 43q104 0 170.5 -55t66.5 -140q0 -77 -53 -119.5t-148 -42.5q-26 0 -51 2v-88h-47l74 -61l-144 -137l-254 206l-251 -206l-140 137l391 319
l248 -196v106zM479 1282v-342h533v-262h-533v-416h553v-262h-854v1544h854v-262h-553z" />
    <glyph glyph-name="uni1EC3" unicode="&#x1ec3;" horiz-adv-x="1198" 
d="M858 1552l16 2l70 13q67 9 90 23.5t23 47.5q0 38 -28 60t-79 22q-32 0 -42.5 -3t-41.5 -21l-49 -23l-41 105l12 4l9 2q98 43 200 43q104 0 170 -55t66 -140q0 -76 -52.5 -119t-146.5 -43q-13 0 -53 3v-89h-51l82 -67l-144 -139l-256 213l-252 -213l-139 139l391 319
l246 -196v112zM369 457q5 -131 67 -200t176 -69q79 0 134.5 31.5t105.5 102.5l258 -41q-63 -155 -187.5 -234.5t-301.5 -79.5q-244 0 -391.5 145.5t-147.5 387.5q0 243 142.5 388.5t381.5 145.5t376.5 -144t137.5 -396v-37h-751zM852 635q-23 97 -84.5 148t-155.5 51
q-93 0 -154 -52t-81 -147h475z" />
    <glyph glyph-name="uni1EC4" unicode="&#x1ec4;" horiz-adv-x="1144" 
d="M203 2148q20 135 86.5 214t161.5 79q67 0 186 -45q86 -32 103.5 -37.5t41.5 -5.5q33 0 54 17.5t47 68.5h157q-25 -140 -97 -218.5t-175 -78.5q-30 0 -62 9t-98 36q-105 45 -155 45q-32 0 -53 -19.5t-40 -64.5h-157zM618 2142l398 -319l-144 -137l-254 206l-251 -206
l-140 137zM479 1282v-342h533v-262h-533v-416h553v-262h-854v1544h854v-262h-553z" />
    <glyph glyph-name="uni1EC5" unicode="&#x1ec5;" horiz-adv-x="1198" 
d="M229 1642q19 135 86 214t162 79q71 0 185 -47q79 -29 100.5 -35t44.5 -6q34 0 54 17t46 69h160q-26 -139 -98 -217t-174 -78q-32 0 -64 9t-96 36q-117 43 -156 43q-34 0 -54.5 -19t-37.5 -65h-158zM612 1636l400 -319l-146 -139l-254 213l-252 -213l-139 139zM369 457
q5 -131 67 -200t176 -69q79 0 134.5 31.5t105.5 102.5l258 -41q-63 -155 -187.5 -234.5t-301.5 -79.5q-244 0 -391.5 145.5t-147.5 387.5q0 243 142.5 388.5t381.5 145.5t376.5 -144t137.5 -396v-37h-751zM852 635q-23 97 -84.5 148t-155.5 51q-93 0 -154 -52t-81 -147h475z
" />
    <glyph glyph-name="uni1EC6" unicode="&#x1ec6;" horiz-adv-x="1144" 
d="M618 2142l398 -319l-144 -137l-254 206l-251 -206l-140 137zM479 1282v-342h533v-262h-533v-416h553v-262h-854v1544h854v-262h-553zM612 -49q77 0 131 -52.5t54 -127.5q0 -76 -53.5 -129.5t-127.5 -53.5q-77 0 -130.5 53.5t-53.5 129.5q0 74 53.5 127t126.5 53z" />
    <glyph glyph-name="uni1EC7" unicode="&#x1ec7;" horiz-adv-x="1198" 
d="M614 1636l400 -319l-144 -139l-256 213l-252 -213l-139 139zM369 457q5 -131 67 -200t176 -69q79 0 134.5 31.5t105.5 102.5l258 -41q-63 -155 -187.5 -234.5t-301.5 -79.5q-244 0 -391.5 145.5t-147.5 387.5q0 243 142.5 388.5t381.5 145.5t376.5 -144t137.5 -396v-37
h-751zM852 635q-23 97 -84.5 148t-155.5 51q-93 0 -154 -52t-81 -147h475zM590 -92q75 0 128.5 -53t53.5 -127q0 -76 -53 -130.5t-127 -54.5q-76 0 -130 54t-54 131q0 73 54 126.5t128 53.5z" />
    <glyph glyph-name="uni1EC8" unicode="&#x1ec8;" horiz-adv-x="655" 
d="M248 1722v168l16 4q60 11 70 11q68 11 90 25t22 48q0 39 -27.5 60.5t-78.5 21.5q-32 0 -42.5 -3t-43.5 -23l-27 -11l-8 -6q-6 -2 -12 -6l-43 105l14 6l6 2q107 43 203 43q104 0 170 -55t66 -140q0 -76 -52.5 -119t-146.5 -43h-53v-88h-123zM479 0h-301v1544h301v-1544z
" />
    <glyph glyph-name="uni1EC9" unicode="&#x1ec9;" horiz-adv-x="538" 
d="M207 1120v168l14 6q68 9 70 9q68 11 91.5 25.5t23.5 47.5q0 38 -28 60t-79 22q-32 0 -44.5 -3.5t-41.5 -22.5q-1 0 -35 -15l-14 -8l-41 104l14 7l6 4q112 41 201 41q104 0 171 -55t67 -140q0 -76 -53.5 -119t-147.5 -43h-53v-88h-121zM410 0h-281v1001h281v-1001z" />
    <glyph glyph-name="uni1ECA" unicode="&#x1eca;" horiz-adv-x="655" 
d="M477 0h-301v1544h301v-1544zM322 -68q76 0 129 -52.5t53 -127.5q0 -76 -52.5 -129t-127.5 -53q-77 0 -130 53t-53 129q0 74 54 127t127 53z" />
    <glyph glyph-name="uni1ECB" unicode="&#x1ecb;" horiz-adv-x="538" 
d="M270 1595q69 0 118.5 -50t49.5 -120q0 -69 -49.5 -118.5t-118.5 -49.5q-70 0 -119 49.5t-49 120.5q0 68 49.5 118t118.5 50zM410 0h-281v1001h281v-1001zM270 -92q75 0 129 -53t54 -127q0 -76 -53.5 -130.5t-127.5 -54.5q-76 0 -130 54t-54 131q0 73 54 126.5t128 53.5z
" />
    <glyph glyph-name="uni1ECC" unicode="&#x1ecc;" horiz-adv-x="1849" 
d="M928 1579q170 0 322.5 -63t261.5 -170.5t173 -257.5t64 -318t-64.5 -317.5t-175.5 -256t-265.5 -169t-328.5 -62.5q-171 0 -322.5 63t-259.5 171.5t-170.5 260t-62.5 322.5q0 162 65.5 309.5t176 254.5t264 170t322.5 63zM924 1303q-138 0 -256.5 -71t-188 -192
t-69.5 -262q0 -224 150.5 -380t365.5 -156q139 0 257.5 71t187.5 193t69 266q0 109 -40.5 207t-109.5 169t-164.5 113t-201.5 42zM926 -102q76 0 129 -53t53 -128q0 -76 -52.5 -129t-127.5 -53q-77 0 -130 53t-53 129q0 74 54 127.5t127 53.5z" />
    <glyph glyph-name="uni1ECD" unicode="&#x1ecd;" horiz-adv-x="1306" 
d="M657 1034q252 0 411 -148t159 -384q0 -238 -161 -386.5t-419 -148.5q-251 0 -408 151t-157 392q0 229 161.5 376.5t413.5 147.5zM653 782q-116 0 -199 -82t-83 -196q0 -120 82 -202.5t202 -82.5q116 0 199.5 82.5t83.5 198.5q0 118 -83.5 200t-201.5 82zM647 -92
q75 0 128.5 -53t53.5 -127q0 -76 -53 -130.5t-127 -54.5q-76 0 -130 54t-54 131q0 73 54 126.5t128 53.5z" />
    <glyph glyph-name="uni1ECE" unicode="&#x1ece;" horiz-adv-x="1849" 
d="M840 1726v168l16 7q55 8 70 8q68 11 90 25t22 48q0 39 -27.5 60.5t-78.5 21.5q-32 0 -42.5 -3t-41.5 -21l-29 -12l-6 -5l-14 -8l-41 105l20 10q109 41 201 41q104 0 169.5 -55t65.5 -140q0 -76 -52 -118.5t-146 -42.5h-53v-89h-123zM928 1579q170 0 322.5 -63
t261.5 -170.5t173 -257.5t64 -318t-64.5 -317.5t-175.5 -256t-265.5 -169t-328.5 -62.5q-171 0 -322.5 63t-259.5 171.5t-170.5 260t-62.5 322.5q0 162 65.5 309.5t176 254.5t264 170t322.5 63zM924 1303q-138 0 -256.5 -71t-188 -192t-69.5 -262q0 -224 150.5 -380
t365.5 -156q139 0 257.5 71t187.5 193t69 266q0 109 -40.5 207t-109.5 169t-164.5 113t-201.5 42z" />
    <glyph glyph-name="uni1ECF" unicode="&#x1ecf;" horiz-adv-x="1306" 
d="M582 1116v168q63 13 84 14q70 11 92 25t22 49q0 39 -27.5 60.5t-78.5 21.5q-32 0 -43 -3.5t-43 -23.5q-1 0 -9 -3.5t-20.5 -9.5t-19.5 -9l-41 104l14 7l6 2q107 43 201 43q104 0 170.5 -55t66.5 -140q0 -77 -52 -119.5t-146 -42.5h-53v-88h-123zM657 1034q252 0 411 -148
t159 -384q0 -238 -161 -386.5t-419 -148.5q-251 0 -408 151t-157 392q0 229 161.5 376.5t413.5 147.5zM653 782q-116 0 -199 -82t-83 -196q0 -120 82 -202.5t202 -82.5q116 0 199.5 82.5t83.5 198.5q0 118 -83.5 200t-201.5 82z" />
    <glyph glyph-name="uni1ED0" unicode="&#x1ed0;" horiz-adv-x="1849" 
d="M1403 2284l192 -160l-352 -238l76 -63l-143 -137l-254 206l-252 -206l-140 137l392 319l184 -147zM922 1579q370 0 612 -260q104 -110 159.5 -252t55.5 -297q0 -166 -64.5 -315.5t-174 -256.5t-262.5 -170t-324 -63q-168 0 -321 62.5t-263 168t-175 251.5t-65 307
q0 374 267 614q111 99 257.5 155t297.5 56zM924 1303q-138 0 -256.5 -71t-188 -192t-69.5 -262q0 -224 150.5 -380t365.5 -156q139 0 257.5 71t187.5 193t69 266q0 109 -40.5 207t-109.5 169t-164.5 113t-201.5 42z" />
    <glyph glyph-name="uni1ED1" unicode="&#x1ed1;" horiz-adv-x="1306" 
d="M1063 1767l205 -129l-291 -264l72 -57l-144 -139l-252 213l-254 -213l-139 139l391 319l189 -151zM651 1034q257 0 416.5 -147t159.5 -385q0 -235 -160 -385t-412 -150q-250 0 -411.5 148.5t-161.5 376.5q0 265 182 413q70 58 176.5 93.5t210.5 35.5zM653 782
q-116 0 -199 -82t-83 -196q0 -120 82 -202.5t202 -82.5q116 0 199.5 82.5t83.5 198.5q0 118 -83.5 200t-201.5 82z" />
    <glyph glyph-name="uni1ED2" unicode="&#x1ed2;" horiz-adv-x="1849" 
d="M1176 2351l317 -309l-123 -113l-387 264zM940 2142l397 -319l-143 -137l-254 206l-252 -206l-139 137zM922 1579q370 0 612 -260q104 -110 159.5 -252t55.5 -297q0 -166 -64.5 -315.5t-174 -256.5t-262.5 -170t-324 -63q-168 0 -321 62.5t-263 168t-175 251.5t-65 307
q0 374 267 614q111 99 257.5 155t297.5 56zM924 1303q-138 0 -256.5 -71t-188 -192t-69.5 -262q0 -224 150.5 -380t365.5 -156q139 0 257.5 71t187.5 193t69 266q0 109 -40.5 207t-109.5 169t-164.5 113t-201.5 42z" />
    <glyph glyph-name="uni1ED3" unicode="&#x1ed3;" horiz-adv-x="1306" 
d="M897 1778l320 -312l-125 -112l-385 264zM664 1569l397 -320l-146 -139l-251 209l-252 -209l-142 139zM651 1034q257 0 416.5 -147t159.5 -385q0 -235 -160 -385t-412 -150q-250 0 -411.5 148.5t-161.5 376.5q0 265 182 413q70 58 176.5 93.5t210.5 35.5zM653 782
q-116 0 -199 -82t-83 -196q0 -120 82 -202.5t202 -82.5q116 0 199.5 82.5t83.5 198.5q0 118 -83.5 200t-201.5 82z" />
    <glyph glyph-name="uni1ED4" unicode="&#x1ed4;" horiz-adv-x="1849" 
d="M1171 2060l17 2q21 3 40.5 6.5t28.5 4.5q67 9 90 24.5t23 50.5q0 38 -27.5 59t-78.5 21q-32 0 -42.5 -3t-43.5 -21l-27 -13l-8 -4l-15 -8l-41 105l21 10q112 41 203 41q103 0 169 -55t66 -142q0 -77 -52 -119.5t-146 -42.5q-29 0 -54 2v-88h-55l80 -67l-143 -137
l-254 206l-252 -206l-140 137l392 319l249 -198v116zM922 1579q370 0 612 -260q104 -110 159.5 -252t55.5 -297q0 -166 -64.5 -315.5t-174 -256.5t-262.5 -170t-324 -63q-168 0 -321 62.5t-263 168t-175 251.5t-65 307q0 374 267 614q111 99 257.5 155t297.5 56zM924 1303
q-138 0 -256.5 -71t-188 -192t-69.5 -262q0 -224 150.5 -380t365.5 -156q139 0 257.5 71t187.5 193t69 266q0 109 -40.5 207t-109.5 169t-164.5 113t-201.5 42z" />
    <glyph glyph-name="uni1ED5" unicode="&#x1ed5;" horiz-adv-x="1306" 
d="M915 1542l17 2l69 10q68 9 91.5 23.5t23.5 48.5q0 38 -28.5 60t-77.5 22q-33 0 -44 -2.5t-42 -19.5l-50 -25l-40 102l14 6l6 5q106 41 201 41q104 0 170.5 -55t66.5 -140q0 -76 -53 -119t-147 -43h-54v-88h-55l66 -53l-144 -139l-252 213l-254 -213l-139 139l393 319
l262 -213v119zM651 1034q257 0 416.5 -147t159.5 -385q0 -235 -160 -385t-412 -150q-250 0 -411.5 148.5t-161.5 376.5q0 265 182 413q70 58 176.5 93.5t210.5 35.5zM653 782q-116 0 -199 -82t-83 -196q0 -120 82 -202.5t202 -82.5q116 0 199.5 82.5t83.5 198.5
q0 118 -83.5 200t-201.5 82z" />
    <glyph glyph-name="uni1ED6" unicode="&#x1ed6;" horiz-adv-x="1849" 
d="M504 2177q20 136 86.5 215.5t161.5 79.5q69 0 186 -47q86 -31 103.5 -36t41.5 -5q34 0 54 16.5t49 69.5h160q-26 -140 -99 -218.5t-176 -78.5q-32 0 -64 9t-98 36q-109 45 -151 45q-34 0 -56.5 -20t-39.5 -66h-158zM922 2142l397 -319l-143 -137l-254 206l-252 -206
l-140 137zM928 1579q170 0 322.5 -63t261.5 -170.5t173 -257.5t64 -318t-64.5 -317.5t-175.5 -256t-265.5 -169t-328.5 -62.5q-171 0 -322.5 63t-259.5 171.5t-170.5 260t-62.5 322.5q0 162 65.5 309.5t176 254.5t264 170t322.5 63zM924 1303q-138 0 -256.5 -71t-188 -192
t-69.5 -262q0 -224 150.5 -380t365.5 -156q139 0 257.5 71t187.5 193t69 266q0 109 -40.5 207t-109.5 169t-164.5 113t-201.5 42z" />
    <glyph glyph-name="uni1ED7" unicode="&#x1ed7;" horiz-adv-x="1306" 
d="M233 1657q22 135 88.5 213t161.5 78q72 0 187 -45q80 -30 100.5 -35.5t44.5 -5.5q33 0 52.5 16.5t45.5 67.5h160q-26 -138 -97.5 -215.5t-174.5 -77.5q-54 0 -162 43q-112 45 -154 45q-32 0 -53.5 -19.5t-38.5 -64.5h-160zM651 1636l398 -319l-144 -139l-252 213
l-254 -213l-139 139zM657 1034q252 0 411 -148t159 -384q0 -238 -161 -386.5t-419 -148.5q-251 0 -408 151t-157 392q0 229 161.5 376.5t413.5 147.5zM653 782q-116 0 -199 -82t-83 -196q0 -120 82 -202.5t202 -82.5q116 0 199.5 82.5t83.5 198.5q0 118 -83.5 200t-201.5 82
z" />
    <glyph glyph-name="uni1ED8" unicode="&#x1ed8;" horiz-adv-x="1849" 
d="M922 2142l397 -319l-143 -137l-254 206l-252 -206l-140 137zM928 1579q170 0 322.5 -63t261.5 -170.5t173 -257.5t64 -318t-64.5 -317.5t-175.5 -256t-265.5 -169t-328.5 -62.5q-171 0 -322.5 63t-259.5 171.5t-170.5 260t-62.5 322.5q0 162 65.5 309.5t176 254.5
t264 170t322.5 63zM924 1303q-138 0 -256.5 -71t-188 -192t-69.5 -262q0 -224 150.5 -380t365.5 -156q139 0 257.5 71t187.5 193t69 266q0 109 -40.5 207t-109.5 169t-164.5 113t-201.5 42zM924 -86q76 0 129 -52.5t53 -127.5q0 -76 -52.5 -129.5t-127.5 -53.5
q-76 0 -129.5 53.5t-53.5 129.5q0 75 53.5 127.5t127.5 52.5z" />
    </font>
</defs>
</svg>
